<svg xmlns="http://www.w3.org/2000/svg" xmlns:xlink="http://www.w3.org/1999/xlink" width="372" height="251.674" viewBox="0 0 372 251.674">
  <defs>
    <linearGradient id="linear-gradient" y1="0.5" x2="1" y2="0.5" gradientUnits="objectBoundingBox">
      <stop offset="0.001" stop-color="#ed6963"/>
      <stop offset="1" stop-color="#eb3d7e"/>
    </linearGradient>
  </defs>
  <g id="Group_20" data-name="Group 20" transform="translate(-113 -230.766)">
    <path id="Path_12" data-name="Path 12" d="M231.065,269.215a75.137,75.137,0,0,1,17.174-21.981c25-21.852,64.045-21.969,89.287-.28,17.167,14.752,24.4,33.756,24.961,55.948.626,24.888-5.865,48.078-16.507,70.212-5.321,11.068-11.593,21.679-17.724,33.033a18.706,18.706,0,0,1-2.01-2.359c-2.881-5.433-5.675-10.914-8.587-16.33a5.221,5.221,0,0,1,.221-5.655c8.265-14.563,14.627-29.9,17.386-46.492,2.8-16.827,2.689-33.432-5.909-48.917-19.967-35.96-71.694-36.38-93.089-.777-.584.973-1.152,1.956-1.958,3.325-1.053-.857-1.974-1.616-2.9-2.363-18.1-14.51-38.047-17.638-58.839-7.434-20.371,10-30.446,27.386-30.026,50.1.251,13.582,5.244,26.043,11.911,37.782,9.9,17.432,23.585,31.55,39.011,44.076,19.773,16.056,41.526,28.89,64.671,39.458,2.583,1.18,4.13.73,5.909-1.179,8.941-9.591,17.957-19.113,26.939-28.667.772-.821,1.492-1.692,2.388-2.713,3.712,5.7,7.35,11.169,10.809,16.75a3.126,3.126,0,0,1-.239,2.927Q285.6,457.276,267,476.632c-.686.712-2.834.783-3.868.273-12.152-6-24.467-11.731-36.261-18.381-26.041-14.682-50.207-32-71.081-53.562-17.664-18.249-31.889-38.687-39.086-63.416-7.85-26.974-3.587-51.44,16.326-71.874,25.958-26.636,67.549-27.56,95.246-2.709C229.027,267.637,229.848,268.236,231.065,269.215Z" fill="url(#linear-gradient)"/>
    <path id="Path_13" data-name="Path 13" d="M385.716,326.184c-4.533-5-8.8-9.676-13.011-14.395a3.562,3.562,0,0,1-1.014-2.03c-.077-6.331-.046-12.664-.046-18.866a56.113,56.113,0,0,1,15.683,19.155c5.063-3.36,9.643-6.965,14.706-9.668,33.933-18.113,76.619,3.612,82.3,41.7,2.3,15.419-1.634,29.655-8.052,43.39-9.111,19.5-23.1,35.207-39.18,49.145-22.584,19.569-47.95,34.757-75.106,47.065-2.015.913-3.631,1.3-5.528-.519-26.573-25.445-49.635-53.524-65.108-87.216-7.981-17.377-12.93-35.558-12.54-54.875.461-22.81,9.132-41.256,29.383-53.009,8.192-4.754,7.061-4.858,12.015,2.911,2.814,4.414,4.24,9.743,6.026,14.754a3.489,3.489,0,0,1-1.377,3.052c-19.625,10.493-26.09,29.045-24.573,49.168,2.018,26.768,14.25,49.315,30.133,69.986,8.861,11.533,19.238,21.9,28.873,32.842,1.937,2.2,3.746,2.529,6.5,1.236,27.7-13.016,53.367-28.91,73.583-52.375,10.11-11.736,17.481-24.942,20.54-40.387a44.416,44.416,0,0,0-38.541-52.774c-13.115-1.449-24.526,2.331-34.507,10.8C386.362,325.7,385.817,326.1,385.716,326.184Z" fill="url(#linear-gradient)"/>
  </g>
</svg>
