<svg xmlns="http://www.w3.org/2000/svg" xmlns:xlink="http://www.w3.org/1999/xlink" width="433.614" height="42.577" viewBox="0 0 433.614 42.577">
  <defs>
    <linearGradient id="linear-gradient" y1="0.5" x2="1" y2="0.5" gradientUnits="objectBoundingBox">
      <stop offset="0.001" stop-color="#ed6963"/>
      <stop offset="1" stop-color="#eb3d7e"/>
    </linearGradient>
  </defs>
  <g id="Group_21" data-name="Group 21" transform="translate(-535.386 -251.766)">
    <path id="Path_1" data-name="Path 1" d="M573.141,282.4c0,7.115-5.646,11.232-16.466,11.232H535.386V252.472H555.5c10.292,0,15.584,4.293,15.584,10.7a9.9,9.9,0,0,1-5.469,9.056A10.166,10.166,0,0,1,573.141,282.4Zm-28.287-22.759v9.7h9.468c4.646,0,7.175-1.646,7.175-4.88s-2.529-4.823-7.175-4.823Zm18.7,21.759c0-3.47-2.646-5.116-7.586-5.116H544.854v10.173h11.115C560.909,286.462,563.555,284.934,563.555,281.4Z" fill="url(#linear-gradient)"/>
    <path id="Path_2" data-name="Path 2" d="M610.539,280.4H586.6c.882,3.94,4.234,6.351,9.056,6.351A10.726,10.726,0,0,0,603.6,283.7l4.881,5.292c-2.941,3.352-7.351,5.116-13.055,5.116-10.939,0-18.054-6.88-18.054-16.289,0-9.468,7.233-16.29,16.877-16.29,9.292,0,16.467,6.234,16.467,16.407C610.716,278.641,610.6,279.641,610.539,280.4Zm-24.052-5.351h15.584a7.9,7.9,0,0,0-15.584,0Z" fill="url(#linear-gradient)"/>
    <path id="Path_3" data-name="Path 3" d="M630.882,289.579l3.234-7.174A24.213,24.213,0,0,0,647.7,286.7c5.645,0,7.939-1.882,7.939-4.411,0-7.7-23.935-2.411-23.935-17.7,0-7,5.646-12.82,17.348-12.82,5.175,0,10.468,1.235,14.291,3.646l-2.941,7.233a23.256,23.256,0,0,0-11.409-3.234c-5.645,0-7.821,2.117-7.821,4.7,0,7.586,23.935,2.352,23.935,17.466,0,6.88-5.7,12.761-17.466,12.761C641.114,294.343,634.528,292.4,630.882,289.579Z" fill="url(#linear-gradient)"/>
    <path id="Path_4" data-name="Path 4" d="M701.8,280.4H677.866c.882,3.94,4.234,6.351,9.056,6.351a10.726,10.726,0,0,0,7.939-3.057l4.881,5.292c-2.94,3.352-7.351,5.116-13.055,5.116-10.938,0-18.054-6.88-18.054-16.289,0-9.468,7.233-16.29,16.878-16.29,9.291,0,16.466,6.234,16.466,16.407C701.977,278.641,701.859,279.641,701.8,280.4Zm-24.052-5.351h15.584a7.9,7.9,0,0,0-15.584,0Z" fill="url(#linear-gradient)"/>
    <path id="Path_5" data-name="Path 5" d="M738.905,280.4H714.971c.882,3.94,4.234,6.351,9.056,6.351a10.726,10.726,0,0,0,7.939-3.057l4.881,5.292c-2.941,3.352-7.351,5.116-13.055,5.116-10.939,0-18.054-6.88-18.054-16.289,0-9.468,7.233-16.29,16.877-16.29,9.292,0,16.466,6.234,16.466,16.407C739.081,278.641,738.964,279.641,738.905,280.4Zm-24.052-5.351h15.584a7.9,7.9,0,0,0-15.584,0Z" fill="url(#linear-gradient)"/>
    <path id="Path_6" data-name="Path 6" d="M777.539,275.524v18.113h-9.174v-16.7c0-5.117-2.352-7.469-6.41-7.469-4.411,0-7.586,2.7-7.586,8.527v15.643H745.2V262h8.762V265.7a13.85,13.85,0,0,1,10.468-4.176C771.893,261.528,777.539,265.88,777.539,275.524Z" fill="url(#linear-gradient)"/>
    <path id="Path_7" data-name="Path 7" d="M840.576,293.637l-.059-24.7L828.4,289.285h-4.294l-12.055-19.818v24.17h-8.939V252.472H811L826.4,278.053l15.172-25.581H849.4l.118,41.165Z" fill="url(#linear-gradient)"/>
    <path id="Path_8" data-name="Path 8" d="M856.273,277.818c0-9.527,7.351-16.29,17.407-16.29s17.348,6.763,17.348,16.29-7.292,16.289-17.348,16.289S856.273,287.344,856.273,277.818Zm25.463,0c0-5.469-3.47-8.762-8.056-8.762s-8.115,3.293-8.115,8.762,3.528,8.762,8.115,8.762S881.736,283.287,881.736,277.818Z" fill="url(#linear-gradient)"/>
    <path id="Path_9" data-name="Path 9" d="M916.783,261.528V270c-.765-.059-1.352-.117-2.058-.117-5.057,0-8.409,2.764-8.409,8.821v14.937h-9.174V262H905.9v4.176C908.138,263.116,911.9,261.528,916.783,261.528Z" fill="url(#linear-gradient)"/>
    <path id="Path_10" data-name="Path 10" d="M952.772,280.4H928.837c.882,3.94,4.235,6.351,9.057,6.351a10.726,10.726,0,0,0,7.939-3.057l4.881,5.292c-2.941,3.352-7.351,5.116-13.055,5.116-10.938,0-18.055-6.88-18.055-16.289,0-9.468,7.234-16.29,16.878-16.29,9.292,0,16.467,6.234,16.467,16.407C952.949,278.641,952.831,279.641,952.772,280.4Zm-24.053-5.351H944.3a7.9,7.9,0,0,0-15.585,0Z" fill="url(#linear-gradient)"/>
    <path id="Path_11" data-name="Path 11" d="M957.71,288.756c0-3,2.352-5.234,5.645-5.234S969,285.757,969,288.756a5.653,5.653,0,0,1-11.29,0Zm.176-36.284h10.938L967,279.347h-7.292Z" fill="url(#linear-gradient)"/>
  </g>
</svg>
