<svg width="13" height="13" viewBox="0 0 13 13" fill="none" xmlns="http://www.w3.org/2000/svg">
<path fill-rule="evenodd" clip-rule="evenodd" d="M6.49984 10.8334C2.74392 10.8334 2.1665 9.81775 2.1665 6.77087C2.1665 3.724 2.74392 2.70837 6.49984 2.70837C10.2558 2.70837 10.8332 3.724 10.8332 6.77087C10.8332 9.81775 10.2558 10.8334 6.49984 10.8334Z" stroke="#6D76AB" stroke-width="1.5" stroke-linecap="round" stroke-linejoin="round"/>
<path d="M2.7085 5.41663H10.2918" stroke="#6D76AB" stroke-width="1.5" stroke-linecap="round" stroke-linejoin="round"/>
<path d="M4.875 1.625V3.79167" stroke="#6D76AB" stroke-width="1.5" stroke-linecap="round" stroke-linejoin="round"/>
<path d="M8.125 1.625V3.79167" stroke="#6D76AB" stroke-width="1.5" stroke-linecap="round" stroke-linejoin="round"/>
<path fill-rule="evenodd" clip-rule="evenodd" d="M5.41683 7.58329C5.41683 7.88283 5.1747 8.12496 4.87516 8.12496C4.57562 8.12496 4.3335 7.88283 4.3335 7.58329C4.3335 7.28375 4.57562 7.04163 4.87516 7.04163C5.1747 7.04163 5.41683 7.28375 5.41683 7.58329Z" fill="#6D76AB"/>
<path fill-rule="evenodd" clip-rule="evenodd" d="M7.04183 7.58329C7.04183 7.88283 6.7997 8.12496 6.50016 8.12496C6.20062 8.12496 5.9585 7.88283 5.9585 7.58329C5.9585 7.28375 6.20062 7.04163 6.50016 7.04163C6.7997 7.04163 7.04183 7.28375 7.04183 7.58329Z" fill="#6D76AB"/>
<path fill-rule="evenodd" clip-rule="evenodd" d="M8.66683 7.58329C8.66683 7.88283 8.42471 8.12496 8.12516 8.12496C7.82562 8.12496 7.5835 7.88283 7.5835 7.58329C7.5835 7.28375 7.82562 7.04163 8.12516 7.04163C8.42471 7.04163 8.66683 7.28375 8.66683 7.58329Z" fill="#6D76AB"/>
</svg>
