<svg width="48" height="48" viewBox="0 0 48 48" fill="none" xmlns="http://www.w3.org/2000/svg">
<path fill-rule="evenodd" clip-rule="evenodd" d="M24.3184 40C12.1864 40 10.3184 38.75 10.3184 35C10.3184 31.25 12.1864 30 24.3184 30C36.4504 30 38.3184 31.25 38.3184 35C38.3184 38.75 36.4504 40 24.3184 40Z" stroke="#5278FC" stroke-width="3" stroke-linecap="round" stroke-linejoin="round"/>
<path d="M35.3984 30.92C37.5384 24.86 41.8384 12 40.3184 12C38.3184 12 30.3184 18 30.3184 18C30.3184 18 26.3184 6 24.3184 6C22.3184 6 18.3184 18 18.3184 18C18.3184 18 10.3184 12 8.31843 12C6.79843 12 11.0984 24.86 13.2384 30.92" stroke="#5278FC" stroke-width="3" stroke-linecap="round" stroke-linejoin="round"/>
<path fill-rule="evenodd" clip-rule="evenodd" d="M26.3184 22C26.3184 23.106 25.4244 24 24.3184 24C23.2124 24 22.3184 23.106 22.3184 22C22.3184 20.894 23.2124 20 24.3184 20C25.4244 20 26.3184 20.894 26.3184 22Z" fill="#5278FC"/>
</svg>
