<svg width="299" height="17" viewBox="0 0 299 17" fill="none" xmlns="http://www.w3.org/2000/svg">
<path d="M2.74194 0.592407L3.83525 1.34247C3.19577 2.22449 2.86571 3.17596 2.84508 4.19688V5.61367H0.947266V4.40523C0.947266 3.69684 1.11229 2.99539 1.44235 2.30089C1.77928 1.60638 2.21248 1.03689 2.74194 0.592407ZM5.99092 0.592407L7.08423 1.34247C6.44474 2.22449 6.11469 3.17596 6.09406 4.19688V5.61367H4.19624V4.40523C4.19624 3.69684 4.36127 2.99539 4.69133 2.30089C5.02826 1.60638 5.46146 1.03689 5.99092 0.592407Z" fill="white"/>
<path d="M9.08519 16.7917V1.62375H13.3243C14.6308 1.62375 15.786 1.91544 16.7899 2.49882C17.7938 3.0822 18.5674 3.91214 19.1106 4.98862C19.6607 6.0651 19.9392 7.30131 19.9461 8.69727V9.6661C19.9461 11.0968 19.671 12.3504 19.1209 13.4268C18.5777 14.5033 17.7973 15.3298 16.7796 15.9062C15.7688 16.4827 14.5895 16.7778 13.2418 16.7917H9.08519ZM11.0655 3.26972V15.1562H13.149C14.6755 15.1562 15.8616 14.6769 16.7074 13.7185C17.56 12.7601 17.9864 11.3954 17.9864 9.62443V8.73894C17.9864 7.01657 17.5841 5.67965 16.7796 4.72818C15.982 3.76976 14.8474 3.28361 13.3759 3.26972H11.0655Z" fill="white"/>
<path d="M22.143 11.0516C22.143 9.94737 22.3561 8.95423 22.7825 8.07221C23.2157 7.19019 23.8139 6.50958 24.5771 6.03037C25.3473 5.55116 26.224 5.31156 27.2073 5.31156C28.7269 5.31156 29.9543 5.84286 30.8894 6.90545C31.8315 7.96804 32.3025 9.38135 32.3025 11.1454V11.2808C32.3025 12.3781 32.0928 13.3643 31.6733 14.2394C31.2608 15.1075 30.666 15.7847 29.889 16.2708C29.1188 16.757 28.2318 17.0001 27.2279 17.0001C25.7151 17.0001 24.4878 16.4688 23.5457 15.4062C22.6106 14.3436 22.143 12.9372 22.143 11.1871V11.0516ZM24.0614 11.2808C24.0614 12.5309 24.3468 13.5345 24.9175 14.2915C25.4951 15.0485 26.2652 15.427 27.2279 15.427C28.1974 15.427 28.9676 15.045 29.5383 14.2811C30.109 13.5102 30.3944 12.4337 30.3944 11.0516C30.3944 9.81542 30.1021 8.81533 29.5177 8.05138C28.9401 7.28048 28.1699 6.89503 27.2073 6.89503C26.2652 6.89503 25.5054 7.27353 24.9278 8.03054C24.3502 8.78755 24.0614 9.87098 24.0614 11.2808Z" fill="white"/>
<path d="M36.5004 5.51991L36.5623 6.9367C37.4149 5.85327 38.5288 5.31156 39.9041 5.31156C42.2626 5.31156 43.4522 6.65543 43.4728 9.34316V16.7917H41.5647V9.33274C41.5578 8.52017 41.3721 7.91942 41.0077 7.5305C40.6501 7.14158 40.0897 6.94712 39.3265 6.94712C38.7076 6.94712 38.1644 7.1138 37.6968 7.44716C37.2293 7.78052 36.8648 8.21806 36.6035 8.75977V16.7917H34.6954V5.51991H36.5004Z" fill="white"/>
<path d="M46.4433 1.94669L46.2267 5.78035H44.8962L44.9065 0.790341H46.4433V1.94669Z" fill="white"/>
<path d="M51.5591 2.79051V5.51991H53.6426V7.00962H51.5591V13.9998C51.5591 14.4512 51.652 14.7915 51.8376 15.0207C52.0233 15.243 52.3396 15.3541 52.7865 15.3541C53.0066 15.3541 53.3091 15.3124 53.6942 15.2291V16.7917C53.1922 16.9306 52.704 17.0001 52.2296 17.0001C51.3769 17.0001 50.734 16.7396 50.3008 16.2187C49.8676 15.6979 49.651 14.9582 49.651 13.9998V7.00962H47.6191V5.51991H49.651V2.79051H51.5591Z" fill="white"/>
<path d="M61.4195 16.7917V1.62375H65.6587C66.9651 1.62375 68.1203 1.91544 69.1243 2.49882C70.1282 3.0822 70.9017 3.91214 71.445 4.98862C71.995 6.0651 72.2735 7.30131 72.2804 8.69727V9.6661C72.2804 11.0968 72.0054 12.3504 71.4553 13.4268C70.9121 14.5033 70.1316 15.3298 69.1139 15.9062C68.1031 16.4827 66.9239 16.7778 65.5762 16.7917H61.4195ZM63.3999 3.26972V15.1562H65.4833C67.0098 15.1562 68.196 14.6769 69.0417 13.7185C69.8944 12.7601 70.3207 11.3954 70.3207 9.62443V8.73894C70.3207 7.01657 69.9184 5.67965 69.1139 4.72818C68.3163 3.76976 67.1817 3.28361 65.7103 3.26972H63.3999Z" fill="white"/>
<path d="M81.8726 16.7917C81.7626 16.5695 81.6732 16.1736 81.6045 15.6041C80.7174 16.5347 79.6585 17.0001 78.4277 17.0001C77.3275 17.0001 76.4233 16.6875 75.715 16.0625C75.0137 15.4305 74.663 14.6318 74.663 13.6664C74.663 12.4927 75.1031 11.5829 75.9832 10.937C76.8702 10.2842 78.1148 9.95779 79.717 9.95779H81.5735V9.0723C81.5735 8.39863 81.3741 7.86386 80.9753 7.468C80.5765 7.06518 79.9886 6.86378 79.2116 6.86378C78.5308 6.86378 77.9601 7.0374 77.4994 7.38465C77.0387 7.73191 76.8083 8.15208 76.8083 8.64518H74.8899C74.8899 8.08263 75.0859 7.54092 75.4778 7.02004C75.8766 6.49222 76.413 6.07552 77.0868 5.76993C77.7676 5.46435 78.5136 5.31156 79.325 5.31156C80.6109 5.31156 81.6182 5.63798 82.3471 6.29081C83.076 6.9367 83.4541 7.82914 83.4817 8.96812V14.1561C83.4817 15.1909 83.6123 16.0139 83.8736 16.625V16.7917H81.8726ZM78.7062 15.3228C79.3044 15.3228 79.8717 15.1666 80.408 14.854C80.9444 14.5415 81.3329 14.1352 81.5735 13.6352V11.3225H80.078C77.7401 11.3225 76.5711 12.0135 76.5711 13.3956C76.5711 13.9998 76.7705 14.4721 77.1693 14.8124C77.5682 15.1527 78.0804 15.3228 78.7062 15.3228Z" fill="white"/>
<path d="M89.0616 2.79051V5.51991H91.1451V7.00962H89.0616V13.9998C89.0616 14.4512 89.1545 14.7915 89.3401 15.0207C89.5258 15.243 89.8421 15.3541 90.289 15.3541C90.5091 15.3541 90.8116 15.3124 91.1967 15.2291V16.7917C90.6947 16.9306 90.2065 17.0001 89.7321 17.0001C88.8794 17.0001 88.2365 16.7396 87.8033 16.2187C87.3701 15.6979 87.1535 14.9582 87.1535 13.9998V7.00962H85.1216V5.51991H87.1535V2.79051H89.0616Z" fill="white"/>
<path d="M98.0144 17.0001C96.5016 17.0001 95.2708 16.5 94.3219 15.4999C93.373 14.4929 92.8985 13.149 92.8985 11.4683V11.1141C92.8985 9.99599 93.1083 8.99938 93.5277 8.1243C93.954 7.24228 94.5454 6.55472 95.3018 6.06163C96.065 5.56158 96.8901 5.31156 97.7772 5.31156C99.228 5.31156 100.356 5.79424 101.16 6.7596C101.965 7.72496 102.367 9.10702 102.367 10.9058V11.7079H94.8067C94.8342 12.8191 95.1539 13.7185 95.7659 14.4061C96.3847 15.0867 97.1686 15.427 98.1175 15.427C98.7914 15.427 99.3621 15.2881 99.8297 15.0103C100.297 14.7325 100.706 14.3644 101.057 13.906L102.223 14.8228C101.287 16.2743 99.8847 17.0001 98.0144 17.0001ZM97.7772 6.89503C97.007 6.89503 96.3607 7.17978 95.8381 7.74927C95.3155 8.31182 94.9923 9.10355 94.8686 10.1245H100.459V9.97863C100.404 8.99938 100.143 8.24237 99.675 7.7076C99.2074 7.16589 98.5748 6.89503 97.7772 6.89503Z" fill="white"/>
<path d="M113.362 12.0101L113.651 14.0102L114.074 12.208L117.044 1.62375H118.715L121.613 12.208L122.026 14.0415L122.346 11.9996L124.677 1.62375H126.667L123.026 16.7917H121.221L118.127 5.73868L117.89 4.58233L117.653 5.73868L114.445 16.7917H112.64L109.009 1.62375H110.99L113.362 12.0101Z" fill="white"/>
<path d="M130.484 6.88461C131.329 5.83591 132.43 5.31156 133.784 5.31156C136.143 5.31156 137.332 6.65543 137.353 9.34316V16.7917H135.445V9.33274C135.438 8.52017 135.252 7.91942 134.888 7.5305C134.53 7.14158 133.97 6.94712 133.206 6.94712C132.588 6.94712 132.044 7.1138 131.577 7.44716C131.109 7.78052 130.745 8.21806 130.484 8.75977V16.7917H128.575V0.790341H130.484V6.88461Z" fill="white"/>
<path d="M139.704 11.0516C139.704 9.94737 139.918 8.95423 140.344 8.07221C140.777 7.19019 141.375 6.50958 142.139 6.03037C142.909 5.55116 143.785 5.31156 144.769 5.31156C146.288 5.31156 147.516 5.84286 148.451 6.90545C149.393 7.96804 149.864 9.38135 149.864 11.1454V11.2808C149.864 12.3781 149.654 13.3643 149.235 14.2394C148.822 15.1075 148.227 15.7847 147.45 16.2708C146.68 16.757 145.793 17.0001 144.789 17.0001C143.277 17.0001 142.049 16.4688 141.107 15.4062C140.172 14.3436 139.704 12.9372 139.704 11.1871V11.0516ZM141.623 11.2808C141.623 12.5309 141.908 13.5345 142.479 14.2915C143.057 15.0485 143.827 15.427 144.789 15.427C145.759 15.427 146.529 15.045 147.1 14.2811C147.67 13.5102 147.956 12.4337 147.956 11.0516C147.956 9.81542 147.664 8.81533 147.079 8.05138C146.502 7.28048 145.731 6.89503 144.769 6.89503C143.827 6.89503 143.067 7.27353 142.489 8.03054C141.912 8.78755 141.623 9.87098 141.623 11.2808Z" fill="white"/>
<path d="M162.375 9.23898L166.295 1.62375H168.543L163.365 11.135V16.7917H161.385V11.135L156.207 1.62375H158.476L162.375 9.23898Z" fill="white"/>
<path d="M168.997 11.0516C168.997 9.94737 169.21 8.95423 169.636 8.07221C170.07 7.19019 170.668 6.50958 171.431 6.03037C172.201 5.55116 173.078 5.31156 174.061 5.31156C175.581 5.31156 176.808 5.84286 177.743 6.90545C178.685 7.96804 179.156 9.38135 179.156 11.1454V11.2808C179.156 12.3781 178.947 13.3643 178.527 14.2394C178.115 15.1075 177.52 15.7847 176.743 16.2708C175.973 16.757 175.086 17.0001 174.082 17.0001C172.569 17.0001 171.342 16.4688 170.4 15.4062C169.464 14.3436 168.997 12.9372 168.997 11.1871V11.0516ZM170.915 11.2808C170.915 12.5309 171.201 13.5345 171.771 14.2915C172.349 15.0485 173.119 15.427 174.082 15.427C175.051 15.427 175.821 15.045 176.392 14.2811C176.963 13.5102 177.248 12.4337 177.248 11.0516C177.248 9.81542 176.956 8.81533 176.372 8.05138C175.794 7.28048 175.024 6.89503 174.061 6.89503C173.119 6.89503 172.359 7.27353 171.782 8.03054C171.204 8.78755 170.915 9.87098 170.915 11.2808Z" fill="white"/>
<path d="M188.439 15.677C187.697 16.5591 186.607 17.0001 185.17 17.0001C183.98 17.0001 183.072 16.6528 182.447 15.9583C181.828 15.2569 181.515 14.222 181.508 12.8539V5.51991H183.416V12.8018C183.416 14.5103 184.104 15.3645 185.479 15.3645C186.937 15.3645 187.906 14.8158 188.388 13.7185V5.51991H190.296V16.7917H188.48L188.439 15.677Z" fill="white"/>
<path d="M198.743 16.7917V1.62375H202.982C204.289 1.62375 205.444 1.91544 206.448 2.49882C207.452 3.0822 208.225 3.91214 208.768 4.98862C209.319 6.0651 209.597 7.30131 209.604 8.69727V9.6661C209.604 11.0968 209.329 12.3504 208.779 13.4268C208.236 14.5033 207.455 15.3298 206.437 15.9062C205.427 16.4827 204.247 16.7778 202.9 16.7917H198.743ZM200.723 3.26972V15.1562H202.807C204.333 15.1562 205.52 14.6769 206.365 13.7185C207.218 12.7601 207.644 11.3954 207.644 9.62443V8.73894C207.644 7.01657 207.242 5.67965 206.437 4.72818C205.64 3.76976 204.505 3.28361 203.034 3.26972H200.723Z" fill="white"/>
<path d="M211.801 11.0516C211.801 9.94737 212.014 8.95423 212.44 8.07221C212.874 7.19019 213.472 6.50958 214.235 6.03037C215.005 5.55116 215.882 5.31156 216.865 5.31156C218.385 5.31156 219.612 5.84286 220.547 6.90545C221.489 7.96804 221.96 9.38135 221.96 11.1454V11.2808C221.96 12.3781 221.751 13.3643 221.331 14.2394C220.919 15.1075 220.324 15.7847 219.547 16.2708C218.777 16.757 217.89 17.0001 216.886 17.0001C215.373 17.0001 214.146 16.4688 213.204 15.4062C212.268 14.3436 211.801 12.9372 211.801 11.1871V11.0516ZM213.719 11.2808C213.719 12.5309 214.005 13.5345 214.575 14.2915C215.153 15.0485 215.923 15.427 216.886 15.427C217.855 15.427 218.625 15.045 219.196 14.2811C219.767 13.5102 220.052 12.4337 220.052 11.0516C220.052 9.81542 219.76 8.81533 219.176 8.05138C218.598 7.28048 217.828 6.89503 216.865 6.89503C215.923 6.89503 215.163 7.27353 214.586 8.03054C214.008 8.78755 213.719 9.87098 213.719 11.2808Z" fill="white"/>
<path d="M226.158 5.51991L226.22 6.9367C227.073 5.85327 228.187 5.31156 229.562 5.31156C231.92 5.31156 233.11 6.65543 233.131 9.34316V16.7917H231.223V9.33274C231.216 8.52017 231.03 7.91942 230.666 7.5305C230.308 7.14158 229.748 6.94712 228.984 6.94712C228.365 6.94712 227.822 7.1138 227.355 7.44716C226.887 7.78052 226.523 8.21806 226.261 8.75977V16.7917H224.353V5.51991H226.158Z" fill="white"/>
<path d="M236.101 1.94669L235.885 5.78035H234.554L234.564 0.790341H236.101V1.94669Z" fill="white"/>
<path d="M241.217 2.79051V5.51991H243.3V7.00962H241.217V13.9998C241.217 14.4512 241.31 14.7915 241.495 15.0207C241.681 15.243 241.997 15.3541 242.444 15.3541C242.664 15.3541 242.967 15.3124 243.352 15.2291V16.7917C242.85 16.9306 242.362 17.0001 241.887 17.0001C241.035 17.0001 240.392 16.7396 239.959 16.2187C239.525 15.6979 239.309 14.9582 239.309 13.9998V7.00962H237.277V5.51991H239.309V2.79051H241.217Z" fill="white"/>
<path d="M258.308 15.1562H265.424V16.7917H256.317V1.62375H258.308V15.1562Z" fill="white"/>
<path d="M269.457 16.7917H267.549V5.51991H269.457V16.7917ZM267.395 2.53007C267.395 2.21755 267.487 1.95363 267.673 1.73834C267.866 1.52304 268.147 1.41539 268.519 1.41539C268.89 1.41539 269.172 1.52304 269.365 1.73834C269.557 1.95363 269.653 2.21755 269.653 2.53007C269.653 2.8426 269.557 3.10304 269.365 3.31139C269.172 3.51974 268.89 3.62392 268.519 3.62392C268.147 3.62392 267.866 3.51974 267.673 3.31139C267.487 3.10304 267.395 2.8426 267.395 2.53007Z" fill="white"/>
<path d="M275.636 11.5725L274.439 12.833V16.7917H272.531V0.790341H274.439V10.4683L275.46 9.22856L278.936 5.51991H281.257L276.915 10.2286L281.762 16.7917H279.524L275.636 11.5725Z" fill="white"/>
<path d="M287.652 17.0001C286.139 17.0001 284.908 16.5 283.959 15.4999C283.01 14.4929 282.536 13.149 282.536 11.4683V11.1141C282.536 9.99599 282.745 8.99938 283.165 8.1243C283.591 7.24228 284.183 6.55472 284.939 6.06163C285.702 5.56158 286.527 5.31156 287.414 5.31156C288.865 5.31156 289.993 5.79424 290.797 6.7596C291.602 7.72496 292.004 9.10702 292.004 10.9058V11.7079H284.444C284.471 12.8191 284.791 13.7185 285.403 14.4061C286.022 15.0867 286.806 15.427 287.755 15.427C288.429 15.427 288.999 15.2881 289.467 15.0103C289.935 14.7325 290.344 14.3644 290.694 13.906L291.86 14.8228C290.925 16.2743 289.522 17.0001 287.652 17.0001ZM287.414 6.89503C286.644 6.89503 285.998 7.17978 285.475 7.74927C284.953 8.31182 284.63 9.10355 284.506 10.1245H290.096V9.97863C290.041 8.99938 289.78 8.24237 289.312 7.7076C288.845 7.16589 288.212 6.89503 287.414 6.89503Z" fill="white"/>
<path d="M295.49 2.20713L295.181 5.93661H294.036L294.046 0.790341H295.49V2.20713ZM298.275 2.20713L297.966 5.93661H296.821L296.831 0.790341H298.275V2.20713Z" fill="white"/>
</svg>
