<svg xmlns="http://www.w3.org/2000/svg" width="69.717" height="107.47" viewBox="0 0 69.717 107.47">
  <path id="Path_102" data-name="Path 102" d="M1214,278.062c0-3.25-.063-6.5-.063-9.75a2.338,2.338,0,0,0-.812-1.812,34.341,34.341,0,0,1-11.563-22c-.562-5.063-.125-10.188-.25-15.25a20.1,20.1,0,0,1,.125-3.875c.813-4.063,4.063-6.625,8.5-6.813a20.348,20.348,0,0,1,2.75,0c.938.063,1.25-.312,1.25-1.25a9.52,9.52,0,0,1,7.875-9.375,7.889,7.889,0,0,1,3.625.063c.875.25,1.125,0,1.063-.875,0-6.188-.063-12.438,0-18.625a86.349,86.349,0,0,1,.125-9,9.539,9.539,0,0,1,8.437-8.75c5-.375,9.125,2.437,10.313,7.125a13.09,13.09,0,0,1,.375,3.5V206.75c0,1.437,0,1.437,1.312,1.187a9.443,9.443,0,0,1,9.938,4.688c.375.625.625.812,1.375.562a9.506,9.506,0,0,1,12.562,9.188c.063,6.375.063,12.687,0,19.062a33.942,33.942,0,0,1-8.125,21.438,28.781,28.781,0,0,1-3.875,3.937,1.642,1.642,0,0,0-.562,1.5c0,3.313,0,6.563-.063,9.875H1214Zm19.125-74.687v22.937c0,1.063-.312,1.438-1.375,1.375-1.125-.062-2.312,0-3.437,0-1.75,0-1.75,0-1.75-1.812v-8.5a2.861,2.861,0,0,0-2.313-2.938,2.96,2.96,0,0,0-3.687,3.125v18.313c0,1-.313,1.375-1.313,1.375-1.312-.063-2.625-.063-4,0-1,.062-1.312-.375-1.312-1.313.062-3.25,0-6.5,0-9.75,0-.75-.25-1.062-1-1.062-.813.062-1.688,0-2.5,0-2,0-2.625.625-2.625,2.625,0,4.25-.063,8.437,0,12.687a31.548,31.548,0,0,0,.937,7.25,27.732,27.732,0,0,0,10.5,15.438,2.71,2.71,0,0,1,1.25,2.5c-.125,1.687,0,3.375-.062,5,0,.75.25,1.062,1,1.062h29.312c.75,0,1.063-.249,1.063-1-.063-1.687.062-3.375-.063-5a2.713,2.713,0,0,1,1.25-2.5c6.5-4.937,10.438-11.437,11.25-19.562.688-7.063.188-14.188.25-21.25a3.094,3.094,0,1,0-6.187.062c0,1.313-.063,2.563,0,3.875.062,1-.25,1.438-1.313,1.375-1.312-.062-2.562-.062-3.875,0-1.062.063-1.437-.312-1.375-1.375.063-2.937,0-5.875,0-8.812a3,3,0,0,0-1-2.438,2.95,2.95,0,0,0-3.25-.5,2.785,2.785,0,0,0-1.812,2.688v9.25c0,.812-.25,1.187-1.125,1.187-1.313-.062-2.563,0-3.875,0-1.563,0-1.563,0-1.563-1.562V180.062a3.04,3.04,0,0,0-4.312-2.5A3.194,3.194,0,0,0,1233,180.75c.125,7.438.125,15.063.125,22.625" transform="translate(-1201.266 -170.717)" fill="#fff"/>
</svg>
