<svg xmlns="http://www.w3.org/2000/svg" xmlns:xlink="http://www.w3.org/1999/xlink" width="831.931" height="149.732" viewBox="0 0 831.931 149.732">
  <defs>
    <linearGradient id="linear-gradient" y1="0.5" x2="1" y2="0.5" gradientUnits="objectBoundingBox">
      <stop offset="0.001" stop-color="#ed6963"/>
      <stop offset="1" stop-color="#eb3d7e"/>
    </linearGradient>
  </defs>
  <g id="Group_130" data-name="Group 130" transform="translate(-146.639 -401.518)">
    <path id="Path_12" data-name="Path 12" d="M146.639,450.633l3.762-8.346a28.165,28.165,0,0,0,15.8,4.994c6.567,0,9.235-2.189,9.235-5.131,0-8.961-27.842-2.8-27.842-20.589,0-8.141,6.568-14.913,20.18-14.913,6.02,0,12.176,1.436,16.623,4.241l-3.42,8.414a27.047,27.047,0,0,0-13.271-3.762c-6.567,0-9.1,2.462-9.1,5.472,0,8.824,27.841,2.737,27.841,20.317,0,8-6.636,14.843-20.316,14.843C158.542,456.173,150.88,453.916,146.639,450.633Z"/>
    <path id="Path_13" data-name="Path 13" d="M229.132,439.961H201.29c1.026,4.583,4.926,7.388,10.535,7.388a12.476,12.476,0,0,0,9.234-3.557l5.678,6.157c-3.42,3.9-8.551,5.951-15.185,5.951-12.725,0-21-8-21-18.948,0-11.014,8.414-18.949,19.631-18.949,10.809,0,19.155,7.251,19.155,19.085C229.337,437.909,229.2,439.072,229.132,439.961Zm-27.979-6.225H219.28a9.192,9.192,0,0,0-18.127,0Z"/>
    <path id="Path_14" data-name="Path 14" d="M236.446,404.6h10.672v50.757H236.446Z"/>
    <path id="Path_15" data-name="Path 15" d="M292.878,439.961h-27.84c1.025,4.583,4.924,7.388,10.533,7.388a12.477,12.477,0,0,0,9.235-3.557l5.678,6.157c-3.421,3.9-8.551,5.951-15.186,5.951-12.723,0-21-8-21-18.948,0-11.014,8.414-18.949,19.632-18.949,10.808,0,19.153,7.251,19.153,19.085C293.083,437.909,292.946,439.072,292.878,439.961ZM264.9,433.736h18.127a9.192,9.192,0,0,0-18.127,0Z"/>
    <path id="Path_16" data-name="Path 16" d="M297.458,436.952c0-11.082,8.551-18.949,20.521-18.949,7.73,0,13.818,3.352,16.486,9.372l-8.278,4.446a9.177,9.177,0,0,0-8.276-5.062c-5.4,0-9.646,3.762-9.646,10.193s4.242,10.192,9.646,10.192a9.053,9.053,0,0,0,8.276-5.062l8.278,4.515c-2.668,5.882-8.756,9.3-16.486,9.3C306.009,455.9,297.458,448.033,297.458,436.952Z"/>
    <path id="Path_17" data-name="Path 17" d="M364.9,453.574a15.248,15.248,0,0,1-8.687,2.326c-8.688,0-13.749-4.446-13.749-13.2V427.58h-5.678v-8.208h5.678V410.41h10.671v8.962H362.3v8.208h-9.167v14.981c0,3.147,1.71,4.856,4.583,4.856a7.191,7.191,0,0,0,4.309-1.368Z"/>
    <path id="Path_18" data-name="Path 18" d="M422.834,434.352v21h-9.988V450.77c-1.983,3.351-5.814,5.13-11.218,5.13-8.618,0-13.749-4.789-13.749-11.15,0-6.5,4.583-11.014,15.8-11.014h8.483c0-4.583-2.736-7.251-8.483-7.251a17.691,17.691,0,0,0-10.6,3.421l-3.831-7.456c4.036-2.873,9.987-4.447,15.87-4.447C416.335,418,422.834,423.2,422.834,434.352Zm-10.671,9.372v-3.763h-7.319c-4.994,0-6.568,1.847-6.568,4.31,0,2.667,2.258,4.446,6.02,4.446C407.853,448.717,410.931,447.076,412.163,443.724Z"/>
    <path id="Path_19" data-name="Path 19" d="M470.1,434.284v21.069h-10.67V435.925c0-5.951-2.737-8.687-7.457-8.687-5.13,0-8.825,3.147-8.825,9.919v18.2h-10.67v-36.8h10.192v4.309c2.873-3.147,7.183-4.857,12.176-4.857C463.53,418,470.1,423.065,470.1,434.284Z"/>
    <path id="Path_20" data-name="Path 20" d="M515.583,418.551,498.96,457.61c-3.557,8.892-8.619,11.56-15.254,11.56-3.762,0-7.867-1.231-10.261-3.352l3.9-7.592a9.459,9.459,0,0,0,6.019,2.325c2.941,0,4.583-1.3,6.02-4.583l.136-.342-15.938-37.075H484.6l10.33,24.968,10.4-24.968Z"/>
    <path id="Path_21" data-name="Path 21" d="M573.242,440.3c0,8.483-6.226,15.87-19.906,15.87-6.636,0-13.613-1.846-18.265-5.13l4.379-8.482a23.044,23.044,0,0,0,13.612,4.309c5.54,0,8.961-2.326,8.961-6.224,0-3.763-2.463-6.226-11.149-6.226H538.629l2.462-26.951H570.3v8.893H550.326l-.753,9.1h3.9C567.633,425.459,573.242,431.821,573.242,440.3Z" fill="url(#linear-gradient)"/>
    <path id="Path_22" data-name="Path 22" d="M597.108,431.411c0-14.434,11.081-24.763,25.994-24.763,8.277,0,15.186,3.01,19.7,8.482l-7.115,6.567a15.4,15.4,0,0,0-12.039-5.609c-8.961,0-15.322,6.293-15.322,15.323s6.361,15.322,15.322,15.322a15.26,15.26,0,0,0,12.039-5.677l7.115,6.567c-4.515,5.541-11.424,8.55-19.769,8.55C608.189,456.173,597.108,445.844,597.108,431.411Z" fill="url(#linear-gradient)"/>
    <path id="Path_23" data-name="Path 23" d="M681.789,434.352v21H671.8V450.77c-1.985,3.351-5.815,5.13-11.219,5.13-8.619,0-13.749-4.789-13.749-11.15,0-6.5,4.583-11.014,15.8-11.014h8.481c0-4.583-2.735-7.251-8.481-7.251a17.7,17.7,0,0,0-10.6,3.421l-3.83-7.456c4.035-2.873,9.987-4.447,15.87-4.447C675.29,418,681.789,423.2,681.789,434.352Zm-10.672,9.372v-3.763H663.8c-4.994,0-6.567,1.847-6.567,4.31,0,2.667,2.257,4.446,6.02,4.446C666.807,448.717,669.886,447.076,671.117,443.724Z" fill="url(#linear-gradient)"/>
    <path id="Path_24" data-name="Path 24" d="M715.166,453.574a15.258,15.258,0,0,1-8.688,2.326c-8.687,0-13.75-4.446-13.75-13.2V427.58h-5.677v-8.208h5.677V410.41H703.4v8.962h9.166v8.208H703.4v14.981c0,3.147,1.71,4.856,4.583,4.856a7.2,7.2,0,0,0,4.31-1.368Z" fill="url(#linear-gradient)"/>
    <path id="Path_25" data-name="Path 25" d="M755.864,439.961H728.023c1.027,4.583,4.925,7.388,10.534,7.388a12.476,12.476,0,0,0,9.235-3.557l5.678,6.157c-3.42,3.9-8.551,5.951-15.186,5.951-12.724,0-21-8-21-18.948,0-11.014,8.413-18.949,19.632-18.949,10.807,0,19.153,7.251,19.153,19.085C756.069,437.909,755.932,439.072,755.864,439.961Zm-27.978-6.225h18.127a9.192,9.192,0,0,0-18.127,0Z" fill="url(#linear-gradient)"/>
    <path id="Path_26" data-name="Path 26" d="M801.144,418.551V449.2c0,13.681-7.387,19.974-20.658,19.974-6.977,0-13.749-1.71-18.058-5.062l4.241-7.661c3.146,2.531,8.276,4.173,13,4.173,7.524,0,10.807-3.42,10.807-10.056v-1.573c-2.8,3.078-6.84,4.583-11.628,4.583-10.193,0-18.4-7.046-18.4-17.785S768.652,418,778.845,418c5.13,0,9.372,1.71,12.175,5.268v-4.72ZM790.61,435.789c0-5.4-4.036-9.03-9.644-9.03s-9.714,3.626-9.714,9.03,4.1,9.029,9.714,9.029S790.61,441.193,790.61,435.789Z" fill="url(#linear-gradient)"/>
    <path id="Path_27" data-name="Path 27" d="M808.323,436.952c0-11.082,8.55-18.949,20.247-18.949s20.18,7.867,20.18,18.949S840.267,455.9,828.57,455.9,808.323,448.033,808.323,436.952Zm29.619,0c0-6.362-4.036-10.193-9.372-10.193s-9.439,3.831-9.439,10.193,4.1,10.192,9.439,10.192S837.942,443.313,837.942,436.952Z" fill="url(#linear-gradient)"/>
    <path id="Path_28" data-name="Path 28" d="M878.707,418v9.851c-.89-.069-1.573-.137-2.395-.137-5.883,0-9.781,3.215-9.781,10.261v17.375H855.859v-36.8h10.193v4.856C868.651,419.85,873.029,418,878.707,418Z" fill="url(#linear-gradient)"/>
    <path id="Path_29" data-name="Path 29" d="M883.766,407.469c0-3.352,2.668-5.951,6.636-5.951s6.636,2.462,6.636,5.746c0,3.557-2.668,6.156-6.636,6.156S883.766,410.821,883.766,407.469Zm1.3,11.082h10.672v36.8H885.066Z" fill="url(#linear-gradient)"/>
    <path id="Path_30" data-name="Path 30" d="M941.5,439.961H913.658c1.026,4.583,4.925,7.388,10.534,7.388a12.476,12.476,0,0,0,9.235-3.557l5.677,6.157c-3.42,3.9-8.551,5.951-15.185,5.951-12.724,0-21-8-21-18.948,0-11.014,8.413-18.949,19.632-18.949,10.807,0,19.153,7.251,19.153,19.085C941.7,437.909,941.567,439.072,941.5,439.961Zm-27.978-6.225h18.127a9.192,9.192,0,0,0-18.127,0Z" fill="url(#linear-gradient)"/>
    <path id="Path_31" data-name="Path 31" d="M945.257,451.932l3.556-7.661a25.179,25.179,0,0,0,12.792,3.557c4.926,0,6.773-1.3,6.773-3.352,0-6.019-22.232.137-22.232-14.57,0-6.977,6.293-11.9,17.032-11.9,5.063,0,10.672,1.163,14.161,3.215l-3.558,7.594a21.123,21.123,0,0,0-10.6-2.737c-4.788,0-6.839,1.5-6.839,3.421,0,6.293,22.231.2,22.231,14.707,0,6.84-6.362,11.7-17.375,11.7C954.97,455.9,948.677,454.189,945.257,451.932Z" fill="url(#linear-gradient)"/>
    <path id="Path_32" data-name="Path 32" d="M250.778,500.63l-16.623,39.059c-3.557,8.893-8.619,11.561-15.254,11.561-3.763,0-7.867-1.232-10.262-3.353l3.9-7.592a9.461,9.461,0,0,0,6.02,2.325c2.942,0,4.582-1.3,6.02-4.583l.137-.342-15.94-37.075H219.79L230.119,525.6l10.4-24.968Z"/>
    <path id="Path_33" data-name="Path 33" d="M251.389,519.031c0-11.082,8.551-18.948,20.248-18.948s20.179,7.866,20.179,18.948-8.481,18.948-20.179,18.948S251.389,530.112,251.389,519.031Zm29.62,0c0-6.362-4.037-10.193-9.372-10.193s-9.44,3.831-9.44,10.193,4.105,10.192,9.44,10.192S281.009,525.393,281.009,519.031Z"/>
    <path id="Path_34" data-name="Path 34" d="M336,500.63v36.8H325.878v-4.378a14.889,14.889,0,0,1-11.424,4.925c-9.234,0-15.733-5.2-15.733-16.554V500.63h10.671v19.222c0,6.156,2.737,8.892,7.456,8.892,4.926,0,8.483-3.146,8.483-9.919v-18.2Z"/>
    <path id="Path_35" data-name="Path 35" d="M397.833,516.431v21h-9.987v-4.583c-1.984,3.351-5.814,5.13-11.218,5.13-8.619,0-13.75-4.789-13.75-11.15,0-6.5,4.584-11.014,15.8-11.014h8.483c0-4.583-2.736-7.251-8.483-7.251a17.694,17.694,0,0,0-10.6,3.421l-3.83-7.456c4.035-2.873,9.986-4.446,15.869-4.446C391.335,500.083,397.833,505.281,397.833,516.431Zm-10.67,9.372v-3.762h-7.32c-4.994,0-6.567,1.846-6.567,4.309,0,2.668,2.258,4.446,6.02,4.446C382.852,530.8,385.93,529.155,387.163,525.8Z"/>
    <path id="Path_36" data-name="Path 36" d="M430.321,500.083v9.85c-.889-.069-1.572-.137-2.393-.137-5.883,0-9.783,3.215-9.783,10.261v17.375H407.474v-36.8h10.193v4.856C420.266,501.929,424.643,500.083,430.321,500.083Z"/>
    <path id="Path_37" data-name="Path 37" d="M472.184,522.041H444.343c1.026,4.583,4.925,7.387,10.535,7.387a12.476,12.476,0,0,0,9.234-3.557l5.678,6.157c-3.42,3.9-8.551,5.951-15.186,5.951-12.724,0-21-8-21-18.948,0-11.013,8.414-18.948,19.632-18.948,10.809,0,19.154,7.25,19.154,19.084C472.389,519.988,472.253,521.151,472.184,522.041Zm-27.978-6.226h18.127a9.192,9.192,0,0,0-18.127,0Z"/>
    <path id="Path_38" data-name="Path 38" d="M541.13,506.923c0,10.671-8,17.306-20.795,17.306h-9.646v13.2H499.608V489.548h20.727C533.126,489.548,541.13,496.183,541.13,506.923Zm-11.219,0c0-5.267-3.42-8.345-10.192-8.345h-9.03V515.2h9.03C526.491,515.2,529.911,512.122,529.911,506.923Z" fill="url(#linear-gradient)"/>
    <path id="Path_39" data-name="Path 39" d="M584.015,522.041h-27.84c1.026,4.583,4.925,7.387,10.535,7.387a12.476,12.476,0,0,0,9.234-3.557l5.678,6.157c-3.421,3.9-8.551,5.951-15.187,5.951-12.723,0-21-8-21-18.948,0-11.013,8.414-18.948,19.632-18.948,10.809,0,19.154,7.25,19.154,19.084C584.221,519.988,584.084,521.151,584.015,522.041Zm-27.977-6.226h18.128a9.192,9.192,0,0,0-18.128,0Z" fill="url(#linear-gradient)"/>
    <path id="Path_40" data-name="Path 40" d="M615.068,535.653a15.245,15.245,0,0,1-8.687,2.326c-8.688,0-13.75-4.446-13.75-13.2V509.659h-5.678v-8.208h5.678v-8.962H603.3v8.962h9.166v8.208H603.3V524.64c0,3.147,1.709,4.857,4.583,4.857a7.187,7.187,0,0,0,4.309-1.369Z" fill="url(#linear-gradient)"/>
    <path id="Path_41" data-name="Path 41" d="M644,535.653a15.25,15.25,0,0,1-8.688,2.326c-8.687,0-13.75-4.446-13.75-13.2V509.659h-5.677v-8.208h5.677v-8.962h10.672v8.962H641.4v8.208h-9.166V524.64c0,3.147,1.71,4.857,4.583,4.857a7.19,7.19,0,0,0,4.31-1.369Z" fill="url(#linear-gradient)"/>
    <path id="Path_42" data-name="Path 42" d="M685.862,500.63,669.24,539.689c-3.557,8.893-8.619,11.561-15.254,11.561-3.763,0-7.867-1.232-10.261-3.353l3.9-7.592a9.46,9.46,0,0,0,6.019,2.325c2.942,0,4.583-1.3,6.02-4.583l.138-.342L643.862,500.63h11.013L665.2,525.6l10.4-24.968Z" fill="url(#linear-gradient)"/>
    <path id="Path_43" data-name="Path 43" d="M742.153,516.431v21h-9.987v-4.583c-1.985,3.351-5.815,5.13-11.219,5.13-8.619,0-13.749-4.789-13.749-11.15,0-6.5,4.583-11.014,15.8-11.014h8.481c0-4.583-2.736-7.251-8.481-7.251a17.7,17.7,0,0,0-10.6,3.421l-3.83-7.456c4.035-2.873,9.987-4.446,15.87-4.446C735.654,500.083,742.153,505.281,742.153,516.431ZM731.481,525.8v-3.762h-7.319c-4.993,0-6.567,1.846-6.567,4.309,0,2.668,2.257,4.446,6.02,4.446C727.172,530.8,730.251,529.155,731.481,525.8Z"/>
    <path id="Path_44" data-name="Path 44" d="M791.88,519.031c0,11.56-8,18.948-18.333,18.948-4.925,0-8.893-1.573-11.561-4.789v4.242H751.794V486.675h10.672v17.854c2.736-3.01,6.5-4.446,11.081-4.446C783.876,500.083,791.88,507.47,791.88,519.031Zm-10.809,0c0-6.362-4.035-10.193-9.371-10.193s-9.371,3.831-9.371,10.193,4.035,10.192,9.371,10.192S781.071,525.393,781.071,519.031Z"/>
    <path id="Path_45" data-name="Path 45" d="M796.253,519.031c0-11.082,8.55-18.948,20.247-18.948s20.179,7.866,20.179,18.948S828.2,537.979,816.5,537.979,796.253,530.112,796.253,519.031Zm29.619,0c0-6.362-4.036-10.193-9.372-10.193s-9.44,3.831-9.44,10.193,4.1,10.192,9.44,10.192S825.872,525.393,825.872,519.031Z"/>
    <path id="Path_46" data-name="Path 46" d="M880.865,500.63v36.8H870.741v-4.378a14.891,14.891,0,0,1-11.424,4.925c-9.234,0-15.733-5.2-15.733-16.554V500.63h10.672v19.222c0,6.156,2.735,8.892,7.456,8.892,4.924,0,8.481-3.146,8.481-9.919v-18.2Z"/>
    <path id="Path_47" data-name="Path 47" d="M914.516,535.653a15.245,15.245,0,0,1-8.687,2.326c-8.688,0-13.75-4.446-13.75-13.2V509.659H886.4v-8.208h5.678v-8.962h10.672v8.962h9.166v8.208h-9.166V524.64c0,3.147,1.71,4.857,4.583,4.857a7.187,7.187,0,0,0,4.309-1.369Z"/>
  </g>
</svg>
