<svg xmlns="http://www.w3.org/2000/svg" xmlns:xlink="http://www.w3.org/1999/xlink" width="104.438" height="104.375" viewBox="0 0 104.438 104.375">
  <defs>
    <clipPath id="clip-path">
      <path id="Intersection_6" data-name="Intersection 6" d="M167.174,279.062V174.687H271.612V279.062Z" fill="none"/>
    </clipPath>
  </defs>
  <g id="Group_37" data-name="Group 37" transform="translate(-167.174 -174.687)">
    <g id="Group_36" data-name="Group 36">
      <g id="Group_35" data-name="Group 35" clip-path="url(#clip-path)">
        <g id="Group_34" data-name="Group 34">
          <path id="Path_146" data-name="Path 146" d="M271.424,213.563a12.034,12.034,0,0,0-6.375-9.938,28.113,28.113,0,0,0-8.062-2.812,104.618,104.618,0,0,0-10.813-1.5c-.687-.063-.687-.063-.312-.688a16.663,16.663,0,0,0,1.75-9.812,16.391,16.391,0,0,0-27.688-9.438c-.437.438-.437.438-.937,0a16.422,16.422,0,0,0-27.875,11.688,16.752,16.752,0,0,0,1.937,7.75c.313.562.25.562-.312.625a91.23,91.23,0,0,0-10,1.312,30.234,30.234,0,0,0-8.875,2.938A11.8,11.8,0,0,0,167.487,213a41.317,41.317,0,0,0-.063,9.625,11.815,11.815,0,0,0,6.5,9.688,25.582,25.582,0,0,0,4.688,1.937.646.646,0,0,1,.562.75c0,2.313,0,4.563.063,6.875.062,4.625.125,9.313.625,13.938a38.036,38.036,0,0,0,1.812,8.812,18.039,18.039,0,0,0,7.25,9.625,26.067,26.067,0,0,0,8.563,3.375A73.46,73.46,0,0,0,209.737,279q4.875.188,9.562.188c3,0,5.875-.063,8.75-.188,3-.125,6.063-.312,9.063-.687a40.281,40.281,0,0,0,9.375-2.25,17.933,17.933,0,0,0,9.937-9.313,28.713,28.713,0,0,0,2.188-7.5,93.839,93.839,0,0,0,1-13.25c.062-2.375.062-4.75.062-7.063v-3.75c0-.75,0-.75.688-.937a31.284,31.284,0,0,0,4-1.563,12.094,12.094,0,0,0,7-9.75A42.753,42.753,0,0,0,271.424,213.563Zm-91.5,11.625a7.5,7.5,0,0,1-2.75-1.563,3.1,3.1,0,0,1-.812-1.625,12.93,12.93,0,0,1-.188-2.687c0-1.625-.062-3.25.063-4.875a3.747,3.747,0,0,1,2.125-3.188,23.779,23.779,0,0,1,6.5-2,96.493,96.493,0,0,1,12-1.312c4.25-.25,8.562-.375,12.812-.5,1.563,0,3.125-.063,4.688-.063.687,0,.687,0,.687.688v19.5c0,.687,0,.687-.687.687-4.375,0-8.813-.125-13.188-.312-4.5-.188-8.937-.5-13.437-1.125A27.657,27.657,0,0,1,179.924,225.188Zm35.063,44.187c0,.75,0,.75-.75.75A85.213,85.213,0,0,1,200.424,269a22.59,22.59,0,0,1-5.625-1.75,9.037,9.037,0,0,1-4.5-4.875,26.114,26.114,0,0,1-1.562-6.875c-.375-3.187-.5-6.437-.563-9.687-.062-3.063-.062-6.125-.062-9.25,0-.625.062-.688.687-.625,2.813.312,5.688.562,8.563.687,5.625.313,11.25.437,16.875.5.75,0,.812.063.812.813v31.437Zm-7.5-70.812a7.469,7.469,0,1,1,7.437-7.438A7.469,7.469,0,0,1,207.487,198.563Zm23.875-15a7.5,7.5,0,1,1-7.5,7.562A7.428,7.428,0,0,1,231.362,183.563ZM250.674,245.5c-.062,2-.062,3.938-.25,5.938a49.708,49.708,0,0,1-1.437,9.625,9.9,9.9,0,0,1-6.938,7.062,36.927,36.927,0,0,1-7.312,1.438c-3.375.375-6.75.5-10.063.562-.75,0-.75,0-.75-.75V238c0-.75,0-.812.813-.812,2.937-.063,5.875-.063,8.875-.125,3.125-.063,6.25-.188,9.375-.438,2.437-.187,4.875-.375,7.312-.625.375-.062.5.063.5.438C250.737,239.5,250.8,242.5,250.674,245.5Zm11.938-24.125a3.672,3.672,0,0,1-2.125,3.188,24.21,24.21,0,0,1-6.563,2,101.32,101.32,0,0,1-10.562,1.25c-3.313.25-6.625.375-9.938.437-2.937.063-5.937.188-8.875.188-.687,0-.687,0-.687-.688V208.188c0-.688,0-.688.687-.688,4.25,0,8.5.125,12.75.313a121.5,121.5,0,0,1,15,1.312,33.5,33.5,0,0,1,6.563,1.563,9.474,9.474,0,0,1,2.25,1.125,3.157,3.157,0,0,1,1.375,2.062,11.513,11.513,0,0,1,.187,2.063C262.674,217.688,262.737,219.5,262.612,221.375Z" fill="#fff"/>
        </g>
        <path id="Path_147" data-name="Path 147" d="M410.549,25h16.063a1.387,1.387,0,0,1,1.375,1.375v6.688a1.387,1.387,0,0,1-1.375,1.375H410.549a1.387,1.387,0,0,1-1.375-1.375V26.375A1.431,1.431,0,0,1,410.549,25Z" fill="none" stroke="#fff" stroke-width="1" opacity="0.35" style="isolation: isolate"/>
        <path id="Path_148" data-name="Path 148" d="M429.174,27.938v3.5a1.983,1.983,0,0,0,1.188-1.75A1.883,1.883,0,0,0,429.174,27.938Z" fill="#fff" opacity="0.4" style="isolation: isolate"/>
        <path id="Path_149" data-name="Path 149" d="M411.487,26.438h14.187a.827.827,0,0,1,.813.812v4.812a.828.828,0,0,1-.813.813H411.487a.828.828,0,0,1-.813-.813V27.25A.827.827,0,0,1,411.487,26.438Z" fill="#fff"/>
        <path id="Path_150" data-name="Path 150" d="M385.674,25H384.8a.854.854,0,0,0-.875.875V33.5a.854.854,0,0,0,.875.875h.875a.854.854,0,0,0,.875-.875V25.875A.854.854,0,0,0,385.674,25Zm-5,2.063h.875a.854.854,0,0,1,.875.875V33.5a.854.854,0,0,1-.875.875h-.875a.854.854,0,0,1-.875-.875V27.938A.854.854,0,0,1,380.674,27.063Zm-3.25,2.062h-.875a.854.854,0,0,0-.875.875v3.5a.854.854,0,0,0,.875.875h.875a.854.854,0,0,0,.875-.875V30A.854.854,0,0,0,377.424,29.125Zm-4.125,1.75h-.875a.854.854,0,0,0-.875.875V33.5a.854.854,0,0,0,.875.875h.875a.854.854,0,0,0,.875-.875V31.75A.854.854,0,0,0,373.3,30.875Z" fill="#fff"/>
        <path id="Path_151" data-name="Path 151" d="M21.112,25.375c-1.875,0-3.375,1.125-3.375,3,0,1.75,1.375,2.813,3.187,2.813a3.2,3.2,0,0,0,2.438-.938h0c0,2.063-1.063,3.188-2.813,3.188A3.31,3.31,0,0,1,18.8,33l-.625,1.313a4.85,4.85,0,0,0,2.438.562c2.687,0,4.5-1.75,4.5-4.875C25.112,27,23.612,25.375,21.112,25.375Zm.125,4.438c-1.125,0-1.813-.625-1.813-1.563a1.62,1.62,0,0,1,1.813-1.562c1.25,0,1.875.687,1.875,1.562C23.112,29.188,22.362,29.813,21.237,29.813Zm5.875-.063a1.053,1.053,0,0,0,1.062-1.062,1.016,1.016,0,0,0-1.062-1.063,1.054,1.054,0,0,0-1.063,1.063A1.017,1.017,0,0,0,27.112,29.75Zm0,5a1.063,1.063,0,1,0-1.063-1.062A1.017,1.017,0,0,0,27.112,34.75ZM37.3,31.188H35.674V29.313H34.049v1.875h-3L35.3,25.5H33.487l-4.5,5.938v1.187h5.062v2.063h1.625V32.625H37.3ZM36.987,25.5v1.437h1.937v7.75h1.688V25.5Z" fill="#fff"/>
        <path id="Path_152" data-name="Path 152" d="M397.737,26.688a7.477,7.477,0,0,1,5.25,2.125.234.234,0,0,0,.375,0l1-1.063a.314.314,0,0,0,0-.375,9.706,9.706,0,0,0-13.375,0,.311.311,0,0,0,0,.375l1,1.063a.234.234,0,0,0,.375,0A7.888,7.888,0,0,1,397.737,26.688Zm0,3.375a4.323,4.323,0,0,1,2.937,1.125.234.234,0,0,0,.375,0l1-1.063a.227.227,0,0,0,.063-.187c0-.063-.063-.125-.063-.188a6.354,6.354,0,0,0-8.625,0,.314.314,0,0,0,0,.375l1,1.063a.234.234,0,0,0,.375,0A4.325,4.325,0,0,1,397.737,30.063Zm2.062,2.25a.23.23,0,0,1-.062.187l-1.75,1.813a.315.315,0,0,1-.375,0l-1.75-1.813a.227.227,0,0,1-.063-.187c0-.063.063-.125.063-.188a3.108,3.108,0,0,1,3.937,0C399.737,32.188,399.8,32.25,399.8,32.313Z" fill="#fff"/>
      </g>
    </g>
  </g>
</svg>
