<svg width="20" height="20" viewBox="0 0 20 20" fill="none" xmlns="http://www.w3.org/2000/svg">
<path d="M6.28845 11.3907L5.82433 13.1233L4.128 13.1592C3.62105 12.2189 3.3335 11.1431 3.3335 9.99987C3.3335 8.89439 3.60235 7.8519 4.07891 6.93396H4.07928L5.58949 7.21083L6.25105 8.71197C6.11259 9.11564 6.03712 9.54897 6.03712 9.99987C6.03717 10.4892 6.12582 10.9581 6.28845 11.3907Z" fill="#FBBB00"/>
<path d="M16.5504 8.75458C16.6269 9.15786 16.6668 9.57434 16.6668 9.99998C16.6668 10.4773 16.6167 10.9428 16.5211 11.3919C16.1965 12.9201 15.3485 14.2545 14.1738 15.1989L14.1734 15.1985L12.2713 15.1014L12.002 13.4208C12.7815 12.9637 13.3907 12.2483 13.7116 11.3919H10.1467V8.75458H13.7636H16.5504Z" fill="#518EF8"/>
<path d="M14.1736 15.1985L14.174 15.1989C13.0315 16.1172 11.5802 16.6666 10.0003 16.6666C7.46151 16.6666 5.25419 15.2476 4.12817 13.1593L6.28862 11.3909C6.85161 12.8934 8.30107 13.963 10.0003 13.963C10.7307 13.963 11.415 13.7656 12.0022 13.4209L14.1736 15.1985Z" fill="#28B446"/>
<path d="M14.2559 4.86815L12.0962 6.63627C11.4885 6.25642 10.7702 6.037 10.0006 6.037C8.26286 6.037 6.7863 7.15566 6.25151 8.71208L4.07971 6.93408H4.07935C5.18888 4.7949 7.42404 3.33337 10.0006 3.33337C11.6182 3.33337 13.1013 3.90957 14.2559 4.86815Z" fill="#F14336"/>
</svg>
