<svg xmlns="http://www.w3.org/2000/svg" width="216" height="265.823" viewBox="0 0 216 265.823">
  <g id="Group_26" data-name="Group 26" transform="translate(-118.785 -122.152)">
    <text id="Go_Premium" data-name="Go Premium" transform="translate(140.901 380.975)" fill="#474747" font-size="26.377" font-family="Montserrat-SemiBold, Montserrat" font-weight="600"><tspan x="0" y="0">Go Premium</tspan></text>
    <rect id="Rectangle_33" data-name="Rectangle 33" width="216" height="216" rx="45.303" transform="translate(118.785 122.152)" fill="#015272"/>
    <path id="Path_5" data-name="Path 5" d="M309.929,203.235a19.238,19.238,0,0,0-10.21-15.859,44.778,44.778,0,0,0-12.908-4.493,146.178,146.178,0,0,0-17.273-2.36c-1.08-.1-1.068-.114-.549-1.122a26.209,26.209,0,0,0-41.539-30.912c-.749.719-.74.713-1.51-.015a25.715,25.715,0,0,0-21.868-7.226,26.182,26.182,0,0,0-19.579,38.3c.459.868.45.874-.5.958a154.467,154.467,0,0,0-15.96,2.079,47.664,47.664,0,0,0-14.169,4.691,19.005,19.005,0,0,0-10.244,14.868,65.823,65.823,0,0,0-.092,15.4A19.165,19.165,0,0,0,153.9,233.06a36.659,36.659,0,0,0,7.51,3.059,1.057,1.057,0,0,1,.89,1.208q0,5.482.065,10.962c.087,7.433.2,14.859.952,22.262a61.975,61.975,0,0,0,2.891,14.14A28.889,28.889,0,0,0,177.854,300.1a40.9,40.9,0,0,0,13.671,5.365,115.6,115.6,0,0,0,19.607,2.217c5.164.229,10.335.286,15.258.319,4.846-.027,9.441-.119,14.039-.269,4.846-.155,9.679-.456,14.489-1.08a59.94,59.94,0,0,0,15.029-3.643,28.65,28.65,0,0,0,15.859-14.877,47.282,47.282,0,0,0,3.526-11.982,149.248,149.248,0,0,0,1.63-21.242c.1-3.774.1-7.555.134-11.332.018-1.987.018-3.977.024-5.967,0-1.2,0-1.2,1.113-1.543a41.38,41.38,0,0,0,6.37-2.524c6.43-3.256,10.33-8.349,11.216-15.572A69.245,69.245,0,0,0,309.929,203.235ZM163.493,221.841a11.922,11.922,0,0,1-4.446-2.506,4.767,4.767,0,0,1-1.289-2.632,22.214,22.214,0,0,1-.307-4.308c.039-2.584-.072-5.168.137-7.752a5.806,5.806,0,0,1,3.381-5.06,37.606,37.606,0,0,1,10.377-3.157,161.319,161.319,0,0,1,19.18-2.124c6.821-.424,13.65-.648,20.483-.77q3.729-.067,7.457-.1c1.1-.009,1.11.015,1.11,1.14v15.587q0,7.8,0,15.59c0,1.125-.015,1.143-1.11,1.14-7.036,0-14.066-.194-21.1-.486-7.173-.3-14.343-.773-21.463-1.764A58.849,58.849,0,0,1,163.493,221.841Zm56.086,70.694c0,1.167-.018,1.2-1.152,1.173-7.4-.209-14.809-.418-22.122-1.767a34.04,34.04,0,0,1-8.951-2.756,14.479,14.479,0,0,1-7.215-7.812,42,42,0,0,1-2.539-11.01c-.62-5.138-.793-10.3-.937-15.474-.137-4.92-.077-9.843-.116-14.763-.009-1.03.063-1.068,1.053-.961,4.545.5,9.1.865,13.669,1.128,9.011.513,18.028.74,27.05.767,1.206.006,1.257.074,1.257,1.274q0,12.531,0,25.063Zm-11.935-113.37a11.973,11.973,0,1,1,11.935-11.971A11.942,11.942,0,0,1,207.644,179.165Zm38.18-23.945a11.973,11.973,0,1,1-12,12.061A11.941,11.941,0,0,1,245.824,155.22Zm30.929,99.088c-.1,3.153-.137,6.31-.352,9.458a71.567,71.567,0,0,1-2.339,15.441,15.881,15.881,0,0,1-11.1,11.267,60.372,60.372,0,0,1-11.75,2.324c-5.362.6-10.75.773-16.139.91-1.235.03-1.241.009-1.241-1.232V267.421q0-12.526,0-25.051c0-1.245.048-1.292,1.295-1.31,4.72-.069,9.443-.078,14.161-.215,5.015-.143,10.028-.343,15.035-.683,3.917-.266,7.826-.582,11.726-1.03.585-.065.823.117.817.713C276.816,244.667,276.911,249.486,276.753,254.308Zm19.063-38.622a5.793,5.793,0,0,1-3.389,5.051,38.012,38.012,0,0,1-10.455,3.169,148.77,148.77,0,0,1-16.945,1.967q-7.922.549-15.859.748c-4.747.126-9.491.272-14.241.266-1.068,0-1.1-.024-1.1-1.077q0-7.833,0-15.665V194.558c0-1.11.018-1.131,1.122-1.128,6.812.006,13.621.179,20.423.463a217.717,217.717,0,0,1,23.978,2.059,54.335,54.335,0,0,1,10.5,2.5,16.231,16.231,0,0,1,3.6,1.775,4.842,4.842,0,0,1,2.178,3.33,18.676,18.676,0,0,1,.307,3.261C295.918,209.772,296.049,212.729,295.816,215.686Z" fill="#fff"/>
  </g>
</svg>
