<svg xmlns="http://www.w3.org/2000/svg" xmlns:xlink="http://www.w3.org/1999/xlink" width="511.442" height="255.579" viewBox="0 0 511.442 255.579">
  <defs>
    <clipPath id="clip-path">
      <circle id="Ellipse_1" data-name="Ellipse 1" cx="127.79" cy="127.79" r="127.79" transform="translate(306.715 933.35)" fill="none"/>
    </clipPath>
    <clipPath id="clip-path-2">
      <circle id="Ellipse_2" data-name="Ellipse 2" cx="127.79" cy="127.79" r="127.79" transform="translate(562.578 933.35)" fill="none"/>
    </clipPath>
    <pattern id="pattern" preserveAspectRatio="none" width="100%" height="100%" viewBox="0 0 717 807">
      <image width="717" height="807" xlink:href="Group%2024-image2.png"/>
    </pattern>
  </defs>
  <g id="Group_24" data-name="Group 24" transform="translate(-306.715 -933.35)">
    <g id="Group_1" data-name="Group 1" clip-path="url(#clip-path)">
      <g id="qkTnyo">
        <image id="Rectangle_4" data-name="Rectangle 4" width="300.939" height="376.173" transform="translate(283.009 891.97)" xlink:href="Group%2024-image.png"/>
      </g>
    </g>
    <g id="Group_5" data-name="Group 5" clip-path="url(#clip-path-2)">
      <g id="Group_4" data-name="Group 4">
        <rect id="Rectangle_5" data-name="Rectangle 5" width="276.246" height="292.12" transform="translate(562.006 904.472)" fill="url(#pattern)"/>
      </g>
    </g>
    <circle id="Ellipse_3" data-name="Ellipse 3" cx="51.5" cy="51.5" r="51.5" transform="translate(511.561 1017.429)" fill="#015272"/>
    <path id="Path_2" data-name="Path 2" d="M587.575,1076.7a24.427,24.427,0,0,0-.627-4.987,12.031,12.031,0,0,0-8.1-9.233.571.571,0,0,1-.442-.631,52.368,52.368,0,0,0-.222-5.889,23.275,23.275,0,0,0-1.307-5.992,10.983,10.983,0,0,0-7.6-7.009,20.523,20.523,0,0,0-4.862-.719,27.338,27.338,0,0,0-7.893.623,10.974,10.974,0,0,0-6.287,4.044,14.455,14.455,0,0,0-2.461,5.739,39.461,39.461,0,0,0-.737,8.546c0,1.1-.005,1.1-1.032,1.517a11.765,11.765,0,0,0-7.111,7.576,22.44,22.44,0,0,0-.994,6.012,47.659,47.659,0,0,0,.307,9.294,14.935,14.935,0,0,0,2.073,5.9,12.23,12.23,0,0,0,6.437,4.888,32.134,32.134,0,0,0,8.566,1.573c2.475.186,4.956.252,7.213.226a89.877,89.877,0,0,0,9.237-.364,28.849,28.849,0,0,0,6.957-1.422,12.216,12.216,0,0,0,6.534-4.986,15.289,15.289,0,0,0,2.018-5.764A47.862,47.862,0,0,0,587.575,1076.7Zm-32.962-23.194a9.929,9.929,0,0,1,.55-1.557,4.131,4.131,0,0,1,2.707-2.348,12.548,12.548,0,0,1,3.01-.492c.632-.036,1.269-.007,1.9-.007a19.147,19.147,0,0,1,4.251.346,4.534,4.534,0,0,1,3.538,3.218,19.633,19.633,0,0,1,.856,4.766c.076,1.027.092,2.059.148,3.087.018.326-.079.447-.428.417a109.724,109.724,0,0,0-11.031-.291c-1.952.027-3.9.118-5.85.289-.264.023-.413-.022-.406-.328A31.562,31.562,0,0,1,554.613,1053.507Zm26.186,25.458a31.054,31.054,0,0,1-.52,6.559,5.83,5.83,0,0,1-1.531,3.04,6.291,6.291,0,0,1-2.31,1.351,22.3,22.3,0,0,1-5.416,1.082c-2.4.242-4.808.294-7.218.314-2.206.019-4.41.006-6.612-.107a33.128,33.128,0,0,1-7.253-.989,8.471,8.471,0,0,1-2.744-1.228,5.5,5.5,0,0,1-2.028-3.456,22.1,22.1,0,0,1-.457-3.923c-.072-1.6-.077-3.188.008-4.781a25.635,25.635,0,0,1,.418-3.459,5.646,5.646,0,0,1,4.292-4.63,28.042,28.042,0,0,1,5.654-.993c2.929-.248,5.867-.314,8.8-.271a58.965,58.965,0,0,1,9.743.695,14.43,14.43,0,0,1,3.709,1.109,5.048,5.048,0,0,1,2.739,3.251,17.329,17.329,0,0,1,.628,4.005C580.765,1077.5,580.822,1078.473,580.8,1078.965Z" fill="#fff"/>
  </g>
</svg>
