<svg width="24" height="24" viewBox="0 0 24 24" fill="none" xmlns="http://www.w3.org/2000/svg">
<path fill-rule="evenodd" clip-rule="evenodd" d="M11.98 3C14.1884 3 17.2194 4.20375 19.5742 5.91516C20.3926 6.50999 20.9794 7.05013 21.3698 7.4856L21.5635 7.71245L21.7195 7.91674C21.9371 8.11393 22.0175 8.32714 21.9606 8.55636C21.8753 8.90018 21.2024 8.90018 20.4128 9.07058C19.8322 9.19584 19.4509 9.75303 19.5442 10.3395L19.5458 10.3493C19.6787 11.1844 19.7457 12.1099 19.7457 13.125C19.7457 19.3658 17.3175 21 11.9491 21C6.58071 21 4.15249 19.3658 4.15249 13.125C4.15249 12.1122 4.21922 11.1894 4.35176 10.3557L4.35329 10.346C4.44592 9.76336 4.07007 9.20895 3.49453 9.07928C2.74984 8.9115 2.07373 8.88696 1.9993 8.55636C1.92488 8.22575 2.07018 8.06536 2.09214 8.0265C2.442 7.40731 3.22914 6.62889 4.30011 5.86738C6.65911 4.19002 9.74983 3 11.98 3Z" stroke="white" stroke-width="2"/>
<path fill-rule="evenodd" clip-rule="evenodd" d="M12 16C14.025 16 15 15.025 15 13C15 10.975 14.025 10 12 10C9.97496 10 9 10.975 9 13C9 15.025 9.97496 16 12 16Z" stroke="white" stroke-width="2"/>
</svg>
