<svg width="24" height="24" viewBox="0 0 24 24" fill="none" xmlns="http://www.w3.org/2000/svg">
<g clip-path="url(#clip0)">
<g opacity="0.104446">
<g opacity="0.104446">
<path opacity="0.104446" fill-rule="evenodd" clip-rule="evenodd" d="M19.6018 4.1019L19.898 19.6019L4.39799 19.8981L4.10181 4.39808L19.6018 4.1019Z" stroke="#6D76AB" stroke-width="0.2"/>
<path opacity="0.104446" d="M12.0001 21.9C17.4677 21.9 21.9001 17.4676 21.9001 12C21.9001 6.53239 17.4677 2.10001 12.0001 2.10001C6.53248 2.10001 2.1001 6.53239 2.1001 12C2.1001 17.4676 6.53248 21.9 12.0001 21.9Z" stroke="#6D76AB" stroke-width="0.2"/>
<path opacity="0.104446" d="M0 24L24 0" stroke="#6D76AB" stroke-width="0.2"/>
<path opacity="0.104446" d="M0 0L24 24" stroke="#6D76AB" stroke-width="0.2"/>
<path opacity="0.104446" fill-rule="evenodd" clip-rule="evenodd" d="M17.6016 2.10257L17.8986 21.6026L6.39852 21.8975L6.10156 2.39744L17.6016 2.10257Z" stroke="#6D76AB" stroke-width="0.2"/>
<path opacity="0.104446" fill-rule="evenodd" clip-rule="evenodd" d="M21.6026 6.1015L21.8974 17.6016L2.39741 17.8985L2.10254 6.39846L21.6026 6.1015Z" stroke="#6D76AB" stroke-width="0.2"/>
<path opacity="0.104446" d="M12.0001 15.9C14.154 15.9 15.9001 14.1539 15.9001 12C15.9001 9.8461 14.154 8.10001 12.0001 8.10001C9.84619 8.10001 8.1001 9.8461 8.1001 12C8.1001 14.1539 9.84619 15.9 12.0001 15.9Z" stroke="#6D76AB" stroke-width="0.2"/>
</g>
</g>
<path fill-rule="evenodd" clip-rule="evenodd" d="M12 4C5.79266 4 3 6.28363 3 11.9583L3.00233 12.2365C3.07988 16.827 5.09918 19.1504 9.33929 19.7509L9.44137 19.7642C9.49787 19.7716 9.5466 19.8075 9.57029 19.8593C10.0328 20.7992 11.7253 21.515 11.9807 21.515L12.1289 21.5097C12.5433 21.515 13.9321 20.7559 14.3739 19.8689C14.3987 19.8155 14.4493 19.7786 14.5077 19.7712L14.615 19.7576C18.6008 19.2062 20.6377 17.147 20.9557 13.131C20.9853 12.7572 21 12.3664 21 11.9583C21 6.28363 18.2073 4 12 4Z" stroke="#6D76AB" stroke-width="2"/>
<path d="M8.04443 10.5C8.87286 10.5 9.54443 11.1716 9.54443 12C9.54443 12.8284 8.87286 13.5 8.04443 13.5C7.21601 13.5 6.54443 12.8284 6.54443 12C6.54443 11.1716 7.21601 10.5 8.04443 10.5ZM12.0444 10.5C12.8729 10.5 13.5444 11.1716 13.5444 12C13.5444 12.8284 12.8729 13.5 12.0444 13.5C11.216 13.5 10.5444 12.8284 10.5444 12C10.5444 11.1716 11.216 10.5 12.0444 10.5ZM16.0444 10.5C16.8729 10.5 17.5444 11.1716 17.5444 12C17.5444 12.8284 16.8729 13.5 16.0444 13.5C15.216 13.5 14.5444 12.8284 14.5444 12C14.5444 11.1716 15.216 10.5 16.0444 10.5Z" fill="#6D76AB"/>
</g>
<defs>
<clipPath id="clip0">
<rect width="24" height="24" fill="white"/>
</clipPath>
</defs>
</svg>
