<?xml version="1.0" standalone="no"?>
<!DOCTYPE svg PUBLIC "-//W3C//DTD SVG 20010904//EN"
 "http://www.w3.org/TR/2001/REC-SVG-20010904/DTD/svg10.dtd">
<svg version="1.0" xmlns="http://www.w3.org/2000/svg"
 width="24.000000pt" height="24.000000pt" viewBox="0 0 24.000000 24.000000"
 preserveAspectRatio="xMidYMid meet">

<g transform="translate(0.000000,24.000000) scale(0.100000,-0.100000)"
fill="#000000" stroke="none">
<path d="M52 186 c-21 -22 -29 -41 -29 -66 0 -51 45 -97 97 -97 30 0 45 6 68
31 40 42 40 90 0 132 -41 44 -95 44 -136 0z m123 -12 c48 -47 13 -131 -55
-131 -67 0 -102 83 -56 132 28 29 82 28 111 -1z"/>
<path d="M135 130 c-11 -13 -25 -18 -37 -14 -22 7 -24 -9 -3 -26 13 -11 21 -8
45 15 17 16 30 32 30 37 0 14 -16 9 -35 -12z"/>
</g>
</svg>
