<svg xmlns="http://www.w3.org/2000/svg" xmlns:xlink="http://www.w3.org/1999/xlink" width="100%" height="100%" viewBox="0 0 465.945 150.106">
  <defs>
    <linearGradient id="linear-gradient" x1="-0.431" y1="0.29" x2="4.068" y2="1.565" gradientUnits="objectBoundingBox">
      <stop offset="0" stop-color="#ec6564"/>
      <stop offset="1" stop-color="#eb407c"/>
    </linearGradient>
    <linearGradient id="linear-gradient-2" x1="-1.542" y1="-0.179" x2="3.286" y2="1.415" xlink:href="#linear-gradient"/>
    <linearGradient id="linear-gradient-3" x1="-3.383" y1="-0.303" x2="3.205" y2="1.026" xlink:href="#linear-gradient"/>
    <linearGradient id="linear-gradient-4" x1="-4.304" y1="-0.489" x2="2.284" y2="0.84" xlink:href="#linear-gradient"/>
    <linearGradient id="linear-gradient-5" x1="-3.535" y1="-0.621" x2="0.881" y2="0.578" xlink:href="#linear-gradient"/>
  </defs>
  <g id="Group_11" data-name="Group 11" transform="translate(-327.892 -1475.201)">
    <path id="Path_2" data-name="Path 2" d="M432.783,1518.255c0,26.43-19.947,42.886-51.7,42.886H360.8v30.421H327.892V1475.2h53.193C412.836,1475.2,432.783,1491.658,432.783,1518.255Zm-33.246,0c0-10.806-6.816-17.122-20.446-17.122H360.8v34.077h18.286C392.721,1535.21,399.537,1528.893,399.537,1518.255Z" fill="url(#linear-gradient)"/>
    <path id="Path_3" data-name="Path 3" d="M538.675,1554.493H473.18c2.66,9.141,10.472,14.461,22.108,14.461,8.811,0,14.629-2.493,20.779-7.813l16.623,17.289c-8.644,9.642-21.278,14.628-38.4,14.628-32.083,0-52.861-19.782-52.861-46.711,0-27.1,21.111-46.378,49.536-46.378,26.6,0,48.207,16.955,48.207,46.71C539.173,1549.007,538.84,1552,538.675,1554.493Zm-65.994-16.623h36.9c-1.662-9.475-8.644-15.46-18.452-15.46S474.51,1528.4,472.681,1537.87Z" fill="url(#linear-gradient-2)"/>
    <path id="Path_4" data-name="Path 4" d="M615.971,1587.905c-5.485,3.49-13.631,5.153-21.942,5.153-23.106,0-36.571-11.3-36.571-34.41V1528.4H544.326v-23.6h13.132v-23.439h31.584v23.439h20.613v23.6H589.042v29.92c0,6.65,3.823,10.307,9.475,10.307a17.275,17.275,0,0,0,9.641-2.827Z" fill="url(#linear-gradient-3)"/>
    <path id="Path_5" data-name="Path 5" d="M688.448,1587.905c-5.485,3.49-13.631,5.153-21.942,5.153-23.1,0-36.571-11.3-36.571-34.41V1528.4H616.8v-23.6h13.131v-23.439h31.584v23.439h20.613v23.6H661.519v29.92c0,6.65,3.823,10.307,9.475,10.307a17.278,17.278,0,0,0,9.642-2.827Z" fill="url(#linear-gradient-4)"/>
    <path id="Path_6" data-name="Path 6" d="M793.837,1501.465l-38.9,93.754c-9.474,23.271-22.773,30.088-40.559,30.088-9.476,0-20.114-3.16-26.1-8.146l10.971-22.109a21.455,21.455,0,0,0,13.963,5.319c6.15,0,9.641-2.326,12.3-7.645l-38.565-91.261h32.414l22.109,55.022,22.275-55.022Z" fill="url(#linear-gradient-5)"/>
  </g>
</svg>
