<svg width="133" height="54" viewBox="0 0 133 54" fill="none" xmlns="http://www.w3.org/2000/svg">
<path d="M33.688 4.35199C37.0733 7.25381 38.766 11.128 38.766 15.974C38.766 19.4276 37.8368 22.5107 35.9783 25.2238C34.1199 27.937 31.7215 29.8743 28.7828 31.0348C25.844 32.1954 22.8475 32.4279 19.7933 31.7314C19.4475 36.4035 19.3468 40.3792 19.4906 43.6583C19.5194 44.2967 19.3395 44.7612 18.9502 45.0514C18.5614 45.3415 18.0787 45.4577 17.5025 45.3996C16.1195 45.2252 15.1546 44.8701 14.6068 44.3332C14.0591 43.7963 13.728 42.7589 13.613 41.221C13.4404 39.2768 13.5338 34.5829 13.8938 27.1395C14.2537 19.696 14.2899 13.6963 14.0018 9.14041C13.973 8.29908 14.1676 7.68926 14.5853 7.31243C15.0029 6.93511 15.5287 6.77551 16.1625 6.83364C18.9859 7.06564 20.4844 8.3572 20.657 10.7078C20.7436 11.5782 20.7939 12.5432 20.8081 13.6023C20.8223 14.6613 20.8223 15.5613 20.8081 16.3011C20.7939 17.041 20.7431 18.1439 20.657 19.6093C20.5704 21.0748 20.5127 22.0614 20.4844 22.5693C20.4555 23.0771 20.3689 24.2451 20.2252 26.0735C20.0809 27.902 19.9948 28.9753 19.9659 29.2945C23.3948 29.6719 26.3189 28.4601 28.7392 25.6598C31.1596 22.8594 32.3695 19.4714 32.3695 15.4957C32.3695 11.6654 31.253 8.63995 29.02 6.41986C26.7869 4.19978 23.6828 3.08999 19.7067 3.08999C15.5869 3.08999 12.1292 4.4106 9.33472 7.05135C6.53973 9.69211 5.14249 12.8698 5.14249 16.5844C5.14249 19.6024 6.30939 21.8949 8.64319 23.4618C8.9601 23.6362 9.03933 23.984 8.88087 24.5066C8.72242 25.0288 8.28324 25.5514 7.56285 26.0735C6.52555 26.7119 5.43054 26.8351 4.27831 26.4435C3.12608 26.0519 2.18953 25.3046 1.46914 24.2017C0.489551 22.8377 0 21.0098 0 18.7173C0 13.3486 1.99537 8.88723 5.98563 5.33224C9.97588 1.77725 14.91 1.25404e-07 20.7876 1.25404e-07C26.0024 -0.00049246 30.3028 1.45017 33.688 4.35199Z" fill="#ffffff"/>
<path d="M64.1991 22.6778C64.7033 22.5324 65.121 22.6561 65.4526 23.0477C65.7842 23.4393 65.8487 23.9836 65.6472 24.6801C64.4661 28.6848 62.5715 31.7462 59.9643 33.8648C57.3571 35.9834 54.3098 37.0425 50.8237 37.0425C48.8646 37.0425 47.1142 36.7307 45.5727 36.1066C44.0312 35.4825 42.8139 34.6412 41.9209 33.5821C41.0278 32.523 40.3505 31.3694 39.8898 30.1217C39.4286 28.874 39.1982 27.5681 39.1982 26.2042C39.1982 22.925 40.1778 20.1321 42.137 17.8248C44.0962 15.5176 46.8335 14.3644 50.3484 14.3644C52.9125 14.3644 54.9436 15.0245 56.4421 16.3451C57.9401 17.6657 58.6463 19.1671 58.5597 20.8503C58.4443 22.9974 57.2848 24.7604 55.0805 26.1391C52.8763 27.5179 50.1899 28.2065 47.0203 28.2065C46.5019 28.2065 46.0984 28.1922 45.8104 28.1632C46.2138 29.8173 46.9773 31.1739 48.1006 32.2329C49.2245 33.292 50.6795 33.8215 52.4655 33.8215C54.9431 33.8215 57.1185 32.9289 58.9916 31.1443C60.8642 29.3597 62.2619 26.9293 63.1838 23.8531C63.3565 23.2147 63.6949 22.8231 64.1991 22.6778ZM47.5387 17.7376C46.7895 18.6809 46.2637 19.8272 45.9615 21.1764C45.6588 22.5255 45.5076 23.9693 45.5076 25.5077V25.9431H46.1561C48.173 25.9431 49.8583 25.3988 51.2126 24.3107C52.5668 23.2226 53.3013 21.9236 53.4168 20.4148C53.5033 19.2252 53.2798 18.2455 52.7467 17.4766C52.2137 16.7076 51.371 16.3229 50.2183 16.3229C49.181 16.3229 48.288 16.7943 47.5387 17.7376Z" fill="#ffffff"/>
<path d="M99.5077 22.6776C100.012 22.5323 100.43 22.6559 100.761 23.0476C101.093 23.4392 101.157 23.9835 100.956 24.68C100.725 25.4346 100.552 25.9932 100.437 26.3558C100.322 26.7183 100.092 27.3857 99.7459 28.3581C99.4001 29.3305 99.0906 30.1068 98.8167 30.6871C98.5428 31.2673 98.1755 32.0294 97.7148 32.9722C97.2537 33.9155 96.8071 34.6918 96.3753 35.3011C95.943 35.9104 95.4172 36.5705 94.7981 37.2818C94.1784 37.9926 93.5593 38.5512 92.9396 38.9576C92.32 39.3639 91.6216 39.7122 90.8435 40.0023C90.0654 40.2925 89.259 40.4378 88.4232 40.4378C83.7556 40.4378 81.1049 36.8394 80.4711 29.6428C78.8576 36.7813 75.8035 40.3511 71.309 40.3511C65.3449 40.3511 62.6365 34.6632 63.1842 23.2879C63.2419 22.0402 63.4581 18.6739 63.8322 13.1894C61.7865 13.1313 59.8992 13.1752 58.1709 13.32C57.7097 13.3781 57.3713 13.3343 57.1551 13.1894C56.9389 13.0446 56.8597 12.754 56.9174 12.319C56.9463 11.9708 57.0182 11.6664 57.1336 11.4048C57.249 11.1437 57.4216 10.9334 57.652 10.7738C57.8823 10.6142 58.077 10.4837 58.2354 10.3822C58.3939 10.2807 58.6604 10.2152 59.035 10.1861C59.4097 10.1571 59.6835 10.1354 59.8562 10.1206C60.0288 10.1059 60.3457 10.1063 60.8069 10.1206C61.2681 10.1349 61.5703 10.1423 61.7146 10.1423H64.0914C64.178 8.69115 64.2787 6.68879 64.3942 4.13523C64.3942 3.11952 64.38 2.45206 64.3511 2.13287C64.3223 1.5526 64.5023 1.14622 64.8915 0.91421C65.2808 0.682203 65.7777 0.609304 66.3827 0.696492C68.6876 0.957562 69.9264 2.16193 70.0995 4.3096C70.215 5.81839 70.2291 7.67593 70.1426 9.88124V10.1861C71.2664 10.1861 73.0887 10.1935 75.6098 10.2078C78.1309 10.2221 80.0108 10.2295 81.2496 10.2295C81.3651 8.83646 81.48 6.80504 81.5954 4.13572C81.5954 3.12001 81.5812 2.45255 81.5524 2.13336C81.5235 1.55309 81.7035 1.14671 82.0928 0.914704C82.4821 0.682696 82.979 0.609791 83.5839 0.696979C85.8889 0.958049 87.1276 2.16243 87.3008 4.3101C87.4162 5.81889 87.4304 7.67642 87.3438 9.88173V10.1866C90.3403 10.1285 92.1699 10.0704 92.8325 10.0128C93.4664 9.95463 93.9055 9.96202 94.1506 10.0344C94.3956 10.1068 94.5037 10.3462 94.4748 10.7526C94.446 12.4067 93.2502 13.2919 90.8876 13.4077C90.4841 13.4367 89.2453 13.451 87.1707 13.451C87.113 14.1475 87.0411 15.1997 86.9545 16.607C86.868 18.0143 86.7961 19.0808 86.7384 19.8063C86.4792 24.0431 86.3926 27.2931 86.4792 29.5571C86.6807 34.5775 87.7326 37.0877 89.6341 37.0877C90.6137 37.0877 91.6221 36.5434 92.6594 35.4553C93.6967 34.3672 94.6113 33.0249 95.4035 31.4289C96.1958 29.8329 96.837 28.4108 97.3265 27.1631C97.8161 25.9154 98.2054 24.8125 98.4934 23.8549C98.6646 23.2145 99.0035 22.8229 99.5077 22.6776ZM74.0526 36.803C74.4126 36.6434 74.9026 36.1937 75.5218 35.4538C76.1414 34.7139 76.7248 33.7342 77.2721 32.5155C77.8194 31.2969 78.4102 29.4615 79.044 27.0089C79.6778 24.5568 80.2251 21.6767 80.6862 18.3685C80.7439 17.1498 80.8589 15.4957 81.032 13.4062L69.9685 13.2756C69.9108 14.0303 69.8315 15.1327 69.7308 16.5838C69.63 18.035 69.565 19.1083 69.5361 19.8049C69.4207 21.8072 69.3415 23.4539 69.2985 24.7455C69.2554 26.0371 69.2408 27.4153 69.2554 28.8807C69.2696 30.3462 69.3562 31.5215 69.5146 32.4067C69.6731 33.2919 69.8893 34.1189 70.1626 34.8878C70.4365 35.6568 70.8111 36.208 71.2865 36.5419C71.7619 36.8754 72.3311 37.0424 72.9938 37.0424C73.3396 37.0424 73.6922 36.9626 74.0526 36.803Z" fill="#ffffff"/>
<path d="M123.925 22.6343C124.43 22.489 124.847 22.6126 125.179 23.0043C125.51 23.3959 125.575 23.9402 125.373 24.6367C124.278 28.438 123.025 31.3039 121.613 33.2338C120.202 35.1638 118.099 36.7814 115.304 38.0873C113.719 48.2439 109.757 53.453 103.419 53.7141C101.258 53.8304 99.5295 53.4092 98.233 52.4516C96.9365 51.494 96.2307 50.2315 96.1153 48.6646C95.9138 45.7337 97.4118 43.2525 100.61 41.2211C100.984 40.9891 101.344 40.764 101.69 40.5463C102.036 40.3285 102.418 40.1256 102.836 39.9369C103.253 39.7483 103.599 39.5813 103.873 39.4365C104.147 39.2916 104.514 39.1316 104.975 38.9577C105.436 38.7838 105.76 38.6528 105.947 38.5661C106.134 38.4789 106.502 38.3483 107.049 38.1745C107.596 38.0006 107.92 37.8986 108.021 37.8695C108.122 37.8405 108.482 37.7242 109.101 37.5213C109.721 37.3183 110.045 37.2164 110.074 37.2164C110.131 36.578 110.203 35.6854 110.29 34.5392C110.376 33.3929 110.434 32.689 110.463 32.4279C109.051 34.9815 107.005 36.3164 104.326 36.4327C102.482 36.5199 101.042 35.9105 100.004 34.6047C99.4571 33.9082 99.0609 33.0811 98.8159 32.1235C98.5709 31.1659 98.434 30.3315 98.4051 29.6207C98.3762 28.9099 98.3836 27.7489 98.4266 26.1386C98.4697 24.5278 98.4917 23.3308 98.4917 22.5476C98.5205 20.6034 98.434 18.6882 98.2325 16.8016C98.1748 16.1923 98.3259 15.7494 98.6863 15.4741C99.0468 15.1987 99.6009 15.0603 100.35 15.0603C101.531 15.0894 102.432 15.4376 103.051 16.1051C103.671 16.7725 104.052 17.8025 104.197 19.1956C104.341 20.9369 104.283 24.0274 104.024 28.467C103.851 31.5432 104.701 32.9939 106.574 32.82C107.928 32.7038 108.951 31.6373 109.642 29.6207C110.334 27.604 110.651 24.9411 110.593 21.6329C110.593 21.1107 110.55 20.3344 110.463 19.3039C110.377 18.2739 110.334 17.541 110.334 17.1055C110.334 16.0607 111.011 15.611 112.365 15.7563C114.929 16.0465 116.269 17.3814 116.384 19.7611C116.557 22.8949 116.413 27.1174 115.952 32.4279C115.923 32.6599 115.851 33.5018 115.735 34.9524C117.666 33.9077 119.092 32.6018 120.014 31.0349C120.936 29.468 121.901 27.0592 122.91 23.8091C123.083 23.1712 123.421 22.7796 123.925 22.6343ZM107.373 48.0119C108.54 45.6904 109.325 43.1077 109.728 40.264C107.913 40.9024 106.451 41.5265 105.342 42.1358C104.233 42.7452 103.332 43.5141 102.641 44.4426C101.46 45.9514 100.941 47.5479 101.085 49.2311C101.114 49.9857 101.33 50.5803 101.734 51.0157C102.137 51.4512 102.641 51.6541 103.246 51.625C104.83 51.5379 106.206 50.3335 107.373 48.0119Z" fill="#ffffff"/>
<path d="M124.87 21.7851C124.302 21.1546 124.098 20.4349 124.336 19.6093C124.519 18.9719 124.874 18.4316 125.284 17.9232C125.978 17.0617 126.803 16.3371 127.639 15.6223C128.445 14.9332 129.247 14.2382 130.053 13.5491C130.884 12.8392 131.379 11.9319 131.605 10.8694C131.774 10.0734 131.794 9.27981 131.501 8.503C131.241 7.81535 130.769 7.3272 130.117 7.00652C129.039 6.47699 127.964 6.56468 126.895 7.02524C126.066 7.38188 125.372 7.92717 124.771 8.59807C124.746 8.62615 124.723 8.6557 124.697 8.68279C124.69 8.69018 124.679 8.69215 124.64 8.67885C124.793 8.43355 124.933 8.17888 125.101 7.9449C125.672 7.14642 126.371 6.48586 127.274 6.08933C128.602 5.5066 129.924 5.47803 131.179 6.28932C131.962 6.7952 132.463 7.54049 132.751 8.42616C133.087 9.46108 133.078 10.5014 132.754 11.5363C132.472 12.4363 131.996 13.2274 131.387 13.9407C130.69 14.7569 129.873 15.4391 129.041 16.1076C128.118 16.8484 127.193 17.5868 126.292 18.3532C125.813 18.7606 125.426 19.2591 125.139 19.829C124.837 20.4295 124.725 21.0566 124.864 21.7216C124.868 21.7427 124.868 21.7639 124.87 21.7851Z" fill="#0000FF"/>
<path d="M123.975 19.7694C123.96 19.4364 123.977 19.0951 123.922 18.766C123.833 18.2394 123.549 17.7986 123.212 17.3932C122.618 16.676 121.872 16.1317 121.148 15.5622C120.264 14.8667 119.362 14.1923 118.596 13.3589C117.827 12.5225 117.233 11.5861 117.059 10.4388C116.858 9.11624 117.135 7.91581 118.097 6.94542C118.779 6.25826 119.63 5.98339 120.585 6.06713C121.838 6.17698 122.807 6.8065 123.569 7.78478C123.767 8.03994 123.938 8.31727 124.122 8.58474C124.104 8.59952 124.086 8.6143 124.068 8.62907C123.867 8.4217 123.681 8.1956 123.462 8.0094C122.657 7.32569 121.756 6.85626 120.672 6.88828C119.26 6.93015 118.118 7.84488 118.085 9.44233C118.064 10.4507 118.346 11.3738 118.947 12.1732C119.214 12.5289 119.565 12.8264 119.901 13.1224C120.649 13.7805 121.425 14.4066 122.165 15.0741C122.639 15.5011 123.084 15.9637 123.513 16.4366C123.923 16.8883 124.252 17.4001 124.398 18.0064C124.56 18.6759 124.408 19.2699 123.975 19.7694Z" fill="#0000FF"/>
</svg>
