<svg width="297" height="23" viewBox="0 0 297 23" fill="none" xmlns="http://www.w3.org/2000/svg">
<path d="M12.4805 18H16.2422L10.3594 1.08984H6.19922L0.328125 18H3.96094L5.25 13.8984H11.1914L12.4805 18ZM8.17969 4.32422H8.26172L10.4297 11.25H6.01172L8.17969 4.32422ZM17.8242 18H21.2461V0.28125H17.8242V18ZM23.7539 18H27.1758V0.28125H23.7539V18ZM35.6602 2.22656V5.09766H33.9141V7.6875H35.6602V14.5195C35.6602 17.0391 36.832 18.0469 39.8203 18.0469C40.5117 18.0469 41.1211 17.9766 41.4727 17.9062V15.375C41.2617 15.4102 40.9219 15.4336 40.6172 15.4336C39.5742 15.4336 39.082 14.9531 39.082 13.957V7.6875H41.4727V5.09766H39.082V2.22656H35.6602ZM43.5352 18H46.957V10.6758C46.957 8.94141 47.9531 7.75781 49.6406 7.75781C51.2695 7.75781 52.1133 8.77734 52.1133 10.4648V18H55.5352V9.75C55.5352 6.76172 53.8828 4.91016 51.0234 4.91016C49.0547 4.91016 47.6953 5.77734 46.9688 7.40625H46.8984V0.28125H43.5352V18ZM62.7422 15.6562C61.5 15.6562 60.6914 15.0586 60.6914 14.1094C60.6914 13.1602 61.4531 12.5977 62.8828 12.5039L65.5898 12.3164V13.2656C65.5898 14.6719 64.3242 15.6562 62.7422 15.6562ZM61.6289 18.1523C63.2812 18.1523 64.875 17.3555 65.5781 16.0078H65.6484V18H68.9531V9.15234C68.9531 6.57422 66.7852 4.875 63.4688 4.875C60.2461 4.875 58.0195 6.57422 57.9258 9.03516H61.0547C61.2188 8.09766 62.0859 7.44141 63.3281 7.44141C64.7344 7.44141 65.5898 8.12109 65.5898 9.36328V10.2188L62.3672 10.418C59.0742 10.6172 57.2812 11.9414 57.2812 14.2852C57.2812 16.5938 59.1445 18.1523 61.6289 18.1523ZM72.1758 2.22656V5.09766H70.4297V7.6875H72.1758V14.5195C72.1758 17.0391 73.3477 18.0469 76.3359 18.0469C77.0273 18.0469 77.6367 17.9766 77.9883 17.9062V15.375C77.7773 15.4102 77.4375 15.4336 77.1328 15.4336C76.0898 15.4336 75.5977 14.9531 75.5977 13.957V7.6875H77.9883V5.09766H75.5977V2.22656H72.1758ZM204.469 1.08984V18H208.008V12.668H211.348C214.91 12.668 217.383 10.3477 217.383 6.87891C217.383 3.39844 214.992 1.08984 211.523 1.08984H204.469ZM208.008 3.89062H210.586C212.613 3.89062 213.785 4.96875 213.785 6.89062C213.785 8.82422 212.602 9.90234 210.574 9.90234H208.008V3.89062ZM223.336 15.6562C222.094 15.6562 221.285 15.0586 221.285 14.1094C221.285 13.1602 222.047 12.5977 223.477 12.5039L226.184 12.3164V13.2656C226.184 14.6719 224.918 15.6562 223.336 15.6562ZM222.223 18.1523C223.875 18.1523 225.469 17.3555 226.172 16.0078H226.242V18H229.547V9.15234C229.547 6.57422 227.379 4.875 224.062 4.875C220.84 4.875 218.613 6.57422 218.52 9.03516H221.648C221.812 8.09766 222.68 7.44141 223.922 7.44141C225.328 7.44141 226.184 8.12109 226.184 9.36328V10.2188L222.961 10.418C219.668 10.6172 217.875 11.9414 217.875 14.2852C217.875 16.5938 219.738 18.1523 222.223 18.1523ZM233.426 22.7109C236.648 22.7109 238.23 21.5508 239.332 18.2578L243.797 5.09766H240.188L237.387 15.2227H237.316L234.527 5.09766H230.777L235.301 18.082L235.184 18.5742C234.914 19.6055 234.176 20.0508 232.898 20.0508C232.758 20.0508 232.242 20.0391 232.125 20.0156V22.6641C232.254 22.6875 233.297 22.7109 233.426 22.7109ZM244.805 8.89453C244.805 10.7812 246.059 12.0352 248.484 12.5859L250.863 13.125C252.035 13.4062 252.48 13.7578 252.48 14.4258C252.48 15.2695 251.648 15.7969 250.289 15.7969C248.871 15.7969 247.992 15.1875 247.828 14.0977H244.488C244.664 16.582 246.797 18.2227 250.195 18.2227C253.57 18.2227 255.879 16.5703 255.879 14.0625C255.879 12.1406 254.848 11.1445 252.258 10.5586L249.832 10.0312C248.672 9.76172 248.109 9.32812 248.109 8.68359C248.109 7.85156 248.93 7.30078 250.16 7.30078C251.473 7.30078 252.328 7.94531 252.398 8.96484H255.562C255.516 6.50391 253.395 4.875 250.207 4.875C246.938 4.875 244.805 6.46875 244.805 8.89453ZM270.691 0.796875C265.676 0.796875 262.535 4.16016 262.535 9.55078C262.535 14.9297 265.676 18.293 270.691 18.293C275.695 18.293 278.848 14.9297 278.848 9.55078C278.848 4.16016 275.695 0.796875 270.691 0.796875ZM270.691 3.75C273.457 3.75 275.227 6 275.227 9.55078C275.227 13.0898 273.457 15.3281 270.691 15.3281C267.914 15.3281 266.145 13.0898 266.145 9.55078C266.145 6 267.926 3.75 270.691 3.75ZM281.801 18H285.223V7.6875H287.566V5.09766H285.152V4.14844C285.164 3.24609 285.586 2.85938 286.617 2.85938C286.992 2.85938 287.309 2.89453 287.555 2.94141V0.5625C287.086 0.492188 286.559 0.445312 285.973 0.445312C282.984 0.445312 281.801 1.46484 281.801 3.94922V5.09766H280.055V7.6875H281.801V18ZM290.402 18H293.824V7.6875H296.168V5.09766H293.754V4.14844C293.766 3.24609 294.188 2.85938 295.219 2.85938C295.594 2.85938 295.91 2.89453 296.156 2.94141V0.5625C295.688 0.492188 295.16 0.445312 294.574 0.445312C291.586 0.445312 290.402 1.46484 290.402 3.94922V5.09766H288.656V7.6875H290.402V18Z" fill="#1E2661"/>
<path d="M85.3594 1.08984V18H88.8984V12.668H92.2383C95.8008 12.668 98.2734 10.3477 98.2734 6.87891C98.2734 3.39844 95.8828 1.08984 92.4141 1.08984H85.3594ZM88.8984 3.89062H91.4766C93.5039 3.89062 94.6758 4.96875 94.6758 6.89062C94.6758 8.82422 93.4922 9.90234 91.4648 9.90234H88.8984V3.89062ZM105.445 7.42969C107.027 7.42969 108.129 8.53125 108.188 10.2188H102.621C102.738 8.56641 103.887 7.42969 105.445 7.42969ZM108.234 14.0625C107.906 15.0586 106.887 15.668 105.598 15.668C103.793 15.668 102.586 14.4141 102.586 12.5508V12.3398H111.492V11.2852C111.492 7.35938 109.125 4.875 105.41 4.875C101.625 4.875 99.2109 7.5 99.2109 11.6016C99.2109 15.7031 101.613 18.2227 105.539 18.2227C108.68 18.2227 111.012 16.5586 111.387 14.0625H108.234ZM114.246 2.22656V5.09766H112.5V7.6875H114.246V14.5195C114.246 17.0391 115.418 18.0469 118.406 18.0469C119.098 18.0469 119.707 17.9766 120.059 17.9062V15.375C119.848 15.4102 119.508 15.4336 119.203 15.4336C118.16 15.4336 117.668 14.9531 117.668 13.957V7.6875H120.059V5.09766H117.668V2.22656H114.246ZM122.941 2.22656V5.09766H121.195V7.6875H122.941V14.5195C122.941 17.0391 124.113 18.0469 127.102 18.0469C127.793 18.0469 128.402 17.9766 128.754 17.9062V15.375C128.543 15.4102 128.203 15.4336 127.898 15.4336C126.855 15.4336 126.363 14.9531 126.363 13.957V7.6875H128.754V5.09766H126.363V2.22656H122.941ZM132.363 22.7109C135.586 22.7109 137.168 21.5508 138.27 18.2578L142.734 5.09766H139.125L136.324 15.2227H136.254L133.465 5.09766H129.715L134.238 18.082L134.121 18.5742C133.852 19.6055 133.113 20.0508 131.836 20.0508C131.695 20.0508 131.18 20.0391 131.062 20.0156V22.6641C131.191 22.6875 132.234 22.7109 132.363 22.7109ZM148.805 13.1836C148.91 16.3594 151.5 18.293 155.566 18.293C159.762 18.293 162.422 16.2188 162.422 12.9375C162.422 10.3594 160.945 8.90625 157.559 8.17969L155.508 7.74609C153.562 7.30078 152.742 6.71484 152.742 5.67188C152.742 4.41797 153.914 3.58594 155.66 3.58594C157.43 3.58594 158.684 4.45312 158.801 5.88281H162.117C162.059 2.82422 159.586 0.796875 155.648 0.796875C151.875 0.796875 149.18 2.85938 149.18 5.97656C149.18 8.44922 150.715 10.0312 153.832 10.6992L156.035 11.1797C158.074 11.6367 158.883 12.2461 158.883 13.3477C158.883 14.5898 157.594 15.4922 155.707 15.4922C153.832 15.4922 152.379 14.5781 152.215 13.1836H148.805ZM164.449 18H167.871V10.6758C167.871 8.94141 168.867 7.75781 170.555 7.75781C172.184 7.75781 173.027 8.77734 173.027 10.4648V18H176.449V9.75C176.449 6.76172 174.797 4.91016 171.938 4.91016C169.969 4.91016 168.609 5.77734 167.883 7.40625H167.812V0.28125H164.449V18ZM186.809 8.23828L187.969 6.21094L184.805 4.91016L187.969 3.62109L186.809 1.58203L184.09 3.71484L184.559 0.28125H182.215L182.695 3.71484L179.965 1.58203L178.805 3.62109L181.98 4.91016L178.805 6.21094L179.965 8.23828L182.672 6.14062L182.215 9.52734H184.559L184.102 6.14062L186.809 8.23828ZM191.285 2.22656V5.09766H189.539V7.6875H191.285V14.5195C191.285 17.0391 192.457 18.0469 195.445 18.0469C196.137 18.0469 196.746 17.9766 197.098 17.9062V15.375C196.887 15.4102 196.547 15.4336 196.242 15.4336C195.199 15.4336 194.707 14.9531 194.707 13.957V7.6875H197.098V5.09766H194.707V2.22656H191.285Z" fill="url(#paint0_linear)"/>
<defs>
<linearGradient id="paint0_linear" x1="154.996" y1="24" x2="157.661" y2="-4.75314" gradientUnits="userSpaceOnUse">
<stop stop-color="#FF5F5D"/>
<stop offset="1" stop-color="#FF1C7E"/>
</linearGradient>
</defs>
</svg>
