<svg xmlns="http://www.w3.org/2000/svg" width="43.796" height="46.992" viewBox="0 0 43.796 46.992">
  <g id="Group_13" data-name="Group 13" transform="translate(-243.153 -1931.163)">
    <path id="Path_10" data-name="Path 10" d="M282.043,1963.87c-2.838-2.428-5.719-3.9-8.523-1.474l-1.675,1.465c-1.225,1.064-3.5,6.033-12.308-4.1s-3.565-11.692-2.339-12.747l1.684-1.467c2.789-2.43,1.737-5.489-.275-8.637l-1.214-1.907c-2.021-3.142-4.222-5.2-7.018-2.779l-1.511,1.321a14.183,14.183,0,0,0-5.529,9.387c-1.009,6.672,2.173,14.311,9.462,22.694s14.409,12.6,21.161,12.525a14.224,14.224,0,0,0,10.06-4.166l1.517-1.323c2.789-2.424,1.056-4.892-1.784-7.326Z" fill="#fff"/>
  </g>
</svg>
