<svg width="16" height="16" viewBox="0 0 16 16" fill="none" xmlns="http://www.w3.org/2000/svg">
<g clip-path="url(#clip0)">
<path d="M14.26 13.0536L12.9901 14.3235C12.9901 14.3235 9.69024 15.7378 4.97619 11.0237C0.262145 6.30966 1.67636 3.00983 1.67636 3.00983L2.94631 1.73987C3.52006 1.16613 4.46895 1.23357 4.95579 1.88268L6.16797 3.49893C6.56609 4.02975 6.5133 4.77255 6.04411 5.24174L4.97619 6.30966C4.97619 6.30966 4.97619 7.25247 6.86181 9.13809C8.74743 11.0237 9.69023 11.0237 9.69023 11.0237L10.7582 9.95578C11.2273 9.48659 11.9701 9.43381 12.501 9.83193L14.1172 11.0441C14.7663 11.5309 14.8338 12.4798 14.26 13.0536Z" fill="#1E2661"/>
</g>
<defs>
<clipPath id="clip0">
<rect width="16" height="16" fill="white"/>
</clipPath>
</defs>
</svg>
