<?xml version="1.0" encoding="utf-8"?>
<!-- Generator: Adobe Illustrator 24.0.1, SVG Export Plug-In . SVG Version: 6.00 Build 0)  -->
<svg version="1.1" id="Layer_1" xmlns="http://www.w3.org/2000/svg" xmlns:xlink="http://www.w3.org/1999/xlink" x="0px" y="0px"
	 viewBox="0 0 216 265.8" style="enable-background:new 0 0 216 265.8;" xml:space="preserve">

<text transform="matrix(1 0 0 1 22.116 253.823)"  fill="#474747" font-size="26.377" font-family="Montserrat-SemiBold, Montserrat" font-weight="600">Go Premium</text>
<path id="Rectangle_33" style="fill:#015272;" d="M44.9,0.6h125.4c25,0,45.3,20.3,45.3,45.3v125.4c0,25-20.3,45.3-45.3,45.3H44.9
	c-25,0-45.3-20.3-45.3-45.3V45.9C-0.4,20.9,19.8,0.6,44.9,0.6z"/>
<g>
	<path style="fill:none;stroke:#FFFFFF;stroke-width:8;stroke-linecap:round;stroke-linejoin:round;" d="M107.6,183c-53.1,0-61.2-5.5-61.2-21.9s8.2-21.9,61.2-21.9s61.2,5.5,61.2,21.9S160.6,183,107.6,183z"/>
	<path style="fill:none;stroke:#FFFFFF;stroke-width:8;stroke-linecap:round;stroke-linejoin:round;" d="M156,143.3c9.4-26.5,28.2-82.7,21.5-82.7c-8.7,0-43.7,26.2-43.7,26.2s-17.5-52.5-26.2-52.5
		S81.3,86.8,81.3,86.8s-35-26.2-43.7-26.2c-6.6,0,12.2,56.2,21.5,82.7"/>
	<path style="fill-rule:evenodd;clip-rule:evenodd;fill:none;stroke:#FFFFFF;stroke-width:8;stroke-miterlimit:10;" d="M116.3,104.3c0,4.8-3.9,8.7-8.7,8.7c-4.8,0-8.7-3.9-8.7-8.7s3.9-8.7,8.7-8.7
		C112.4,95.5,116.3,99.4,116.3,104.3z"/>
</g>
</svg>
