<svg xmlns="http://www.w3.org/2000/svg" width="114.69" height="79.282" viewBox="0 0 114.69 79.282">
  <g id="Group_41" data-name="Group 41" transform="translate(-162.646 -182.859)">
    <path id="Path_74" data-name="Path 74" d="M1694.1,221.6a34.746,34.746,0,0,1,34.746-34.746h24.093A34.746,34.746,0,0,1,1787.69,221.6v1.79a34.746,34.746,0,0,1-34.746,34.746h-24.093" transform="translate(-1514.354)" fill="none" stroke="#fff" stroke-miterlimit="10" stroke-width="8"/>
    <path id="Path_75" data-name="Path 75" d="M1709.46,222.125l-12.47.257c.007-.035.016-.066.023-.1h-4.655c-.018.1-.042.191-.06.293l-12.919.257c-2.571-.065-3.15,1.414-1.286,3.213l13.37,12.856a4.6,4.6,0,0,0,6.556-.129l12.855-13.369C1712.673,223.539,1712.031,222.125,1709.46,222.125Z" transform="translate(-1514.354)" fill="#fff"/>
  </g>
</svg>
