<svg xmlns="http://www.w3.org/2000/svg" width="104.54" height="104.54" viewBox="0 0 104.54 104.54">
  <g id="Group_4" data-name="Group 4" transform="translate(-2730.21 -173.125)">
    <path id="Path_17" data-name="Path 17" d="M2754.933,256.021a2.176,2.176,0,0,0,.17,3.233,43.54,43.54,0,0,0,61.237-61.237,2.176,2.176,0,0,0-3.233-.17Zm4.843,1.319,54.65-54.65a38.707,38.707,0,0,1,7.257,22.705,39.248,39.248,0,0,1-39.2,39.2A38.7,38.7,0,0,1,2759.776,257.34Z" fill="#fff"/>
    <path id="Path_18" data-name="Path 18" d="M2730.21,225.4a52.27,52.27,0,1,0,52.27-52.27A52.33,52.33,0,0,0,2730.21,225.4Zm4.356,0a47.914,47.914,0,1,1,47.914,47.914A47.969,47.969,0,0,1,2734.566,225.4Z" fill="#fff"/>
    <path id="Path_19" data-name="Path 19" d="M2738.922,225.4a43.647,43.647,0,0,0,9.7,27.377,2.183,2.183,0,0,0,1.578.806c.039,0,.077,0,.115,0a2.172,2.172,0,0,0,1.54-.638l58.174-58.174a2.175,2.175,0,0,0-.17-3.233,43.539,43.539,0,0,0-70.935,33.86Zm4.356,0a39.248,39.248,0,0,1,39.2-39.2,38.7,38.7,0,0,1,22.7,7.257l-54.649,54.65A38.7,38.7,0,0,1,2743.278,225.4Z" fill="#fff"/>
  </g>
</svg>
