<svg xmlns="http://www.w3.org/2000/svg" width="18.098" height="29" viewBox="0 0 18.098 29">
  <g id="_2LboNa.tif" data-name="2LboNa.tif" transform="translate(-1082.815 -643.225)" opacity="0.15">
    <g id="Group_1" data-name="Group 1">
      <path id="Path_1" data-name="Path 1" d="M1086.733,672.225c-.154-.01-.24-.12-.34-.2-1.1-.917-2.191-1.85-3.31-2.745-.367-.294-.33-.47-.023-.776q5-4.973,9.978-9.967c.654-.654.653-.7.011-1.358q-5-5.146-10.007-10.287c-.319-.326-.3-.5.048-.776,1.091-.876,2.165-1.775,3.227-2.687.3-.257.5-.282.787.019q5.57,5.778,11.157,11.54c.811.838,1.62,1.679,2.45,2.5.279.277.263.462-.008.735q-6.818,6.867-13.622,13.747C1086.978,672.07,1086.892,672.2,1086.733,672.225Z"/>
    </g>
  </g>
</svg>
