<svg width="32" height="32" viewBox="0 0 32 32" fill="none" xmlns="http://www.w3.org/2000/svg">
<g clip-path="url(#clip0)">
<rect width="32" height="32" fill="url(#paint0_linear)"/>
<path d="M16.0002 15.8246C15.4392 15.8246 14.9844 16.2794 14.9844 16.8404V30.9843C14.9844 31.5452 15.4392 32.0001 16.0002 32.0001C16.5611 32.0001 17.016 31.5452 17.016 30.9843V16.8404C17.016 16.2794 16.5611 15.8246 16.0002 15.8246Z" fill="white"/>
<path d="M16.0004 13.7929C17.4822 13.7929 18.7198 14.8563 18.9916 16.2599H23.5184C23.3759 8.90229 20.3391 3.17426 16.6334 0.221363C16.263 -0.0737875 15.7378 -0.0737875 15.3674 0.221363C11.6637 3.17261 8.62482 8.90438 8.48242 16.2599H13.0092C13.281 14.8563 14.5186 13.7929 16.0004 13.7929ZM14.3911 8.2565C15.2799 7.36769 16.721 7.36769 17.6098 8.2565C18.4986 9.14532 18.4986 10.5863 17.6098 11.4752C16.721 12.364 15.2799 12.364 14.3911 11.4752C13.5023 10.5864 13.5023 9.14532 14.3911 8.2565Z" fill="white"/>
<path d="M19.0474 18.2914V25.5119H21.2896C21.7268 25.5119 22.1149 25.2323 22.2532 24.8176C22.9435 22.7487 23.3547 20.5594 23.481 18.2914H19.0474V18.2914Z" fill="white"/>
<path d="M12.9527 18.2915H8.51904C8.64538 20.5596 9.05652 22.7488 9.74688 24.8178C9.88521 25.2324 10.2733 25.512 10.7104 25.512H12.9527V18.2915Z" fill="white"/>
<path d="M10.7104 27.5436C9.3971 27.5436 8.23542 26.7066 7.81971 25.4608C7.07412 23.2263 6.4244 17.5898 6.4244 17.5898C3.89299 19.5795 3.10626 23.0889 4.56951 25.977L6.8655 30.5086C7.1418 31.054 7.83514 31.2338 8.34163 30.8903C9.51214 30.0968 10.4721 28.956 11.0408 27.5436H10.7104Z" fill="white"/>
<path d="M25.5754 17.5898C25.5754 17.5898 24.9256 23.2263 24.18 25.4608C23.7643 26.7066 22.6027 27.5436 21.2894 27.5436H20.959C21.5103 28.9127 22.4483 30.0701 23.6582 30.8903C24.1637 31.2331 24.8574 31.0553 25.1343 30.5086L27.4303 25.977C28.8912 23.0933 28.1106 19.5824 25.5754 17.5898Z" fill="white"/>
</g>
<defs>
<linearGradient id="paint0_linear" x1="16.7" y1="32" x2="32.678" y2="15.1622" gradientUnits="userSpaceOnUse">
<stop stop-color="#FF5F5D"/>
<stop offset="1" stop-color="#FF1C7E"/>
</linearGradient>
<clipPath id="clip0">
<rect width="32" height="32" fill="white"/>
</clipPath>
</defs>
</svg>
