<svg width="317" height="129" viewBox="0 0 317 129" fill="none" xmlns="http://www.w3.org/2000/svg">
<path d="M80.3303 10.368C88.3952 17.2811 92.4277 26.5108 92.4277 38.0558C92.4277 46.2833 90.214 53.6283 85.7865 60.092C81.3591 66.5557 75.6454 71.1712 68.6442 73.936C61.643 76.7008 54.5043 77.2547 47.2281 75.5953C46.4044 86.7261 46.1644 96.1975 46.5069 104.01C46.5757 105.53 46.1469 106.637 45.2195 107.328C44.2932 108.019 43.1432 108.296 41.7707 108.158C38.4758 107.743 36.177 106.896 34.8721 105.617C33.5671 104.338 32.7783 101.867 32.5045 98.203C32.0933 93.5712 32.3158 82.3888 33.1733 64.6558C34.0308 46.9229 34.1171 32.6295 33.4308 21.7757C33.3621 19.7713 33.8258 18.3185 34.8208 17.4208C35.8158 16.5219 37.0683 16.1417 38.5783 16.2801C45.3045 16.8329 48.8744 19.9098 49.2857 25.5098C49.492 27.5834 49.612 29.8823 49.6458 32.4054C49.6795 34.9284 49.6795 37.0724 49.6458 38.835C49.612 40.5976 49.4908 43.2251 49.2857 46.7163C49.0795 50.2075 48.942 52.5581 48.8744 53.768C48.8057 54.9779 48.5995 57.7603 48.2569 62.1163C47.9132 66.4724 47.7082 69.0295 47.6394 69.7899C55.8081 70.6889 62.7743 67.802 68.5405 61.1306C74.3066 54.4592 77.1891 46.3878 77.1891 36.9163C77.1891 27.7911 74.5292 20.5834 69.2093 15.2944C63.8893 10.0054 56.4943 7.36144 47.0219 7.36144C37.207 7.36144 28.9696 10.5076 22.3121 16.7988C15.6534 23.09 12.3247 30.6603 12.3247 39.5098C12.3247 46.6999 15.1047 52.1614 20.6646 55.8944C21.4196 56.3098 21.6084 57.1383 21.2309 58.3834C20.8534 59.6273 19.8071 60.8724 18.0909 62.1163C15.6197 63.6372 13.011 63.9306 10.2659 62.9977C7.52092 62.0647 5.28972 60.2845 3.5735 57.657C1.23977 54.4075 0.0734863 50.0526 0.0734863 44.5911C0.0734863 31.801 4.82717 21.1725 14.3334 12.7033C23.8396 4.23403 35.5944 2.98756e-07 49.5968 2.98756e-07C62.0205 -0.00117321 72.2654 3.45482 80.3303 10.368Z" fill="white"/>
<path d="M153.019 54.0264C154.22 53.6802 155.215 53.9748 156.005 54.9077C156.795 55.8406 156.949 57.1374 156.469 58.7967C153.655 68.3373 149.141 75.6307 142.93 80.678C136.719 85.7252 129.459 88.2483 121.154 88.2483C116.486 88.2483 112.316 87.5055 108.644 86.0186C104.971 84.5318 102.071 82.5274 99.944 80.0044C97.8165 77.4813 96.2028 74.733 95.1052 71.7605C94.0065 68.788 93.4578 65.677 93.4578 62.4276C93.4578 54.6155 95.7915 47.9617 100.459 42.465C105.126 36.9683 111.648 34.2211 120.021 34.2211C126.13 34.2211 130.969 35.7936 134.539 38.9397C138.107 42.0859 139.79 45.6628 139.584 49.6727C139.309 54.788 136.546 58.988 131.295 62.2726C126.044 65.5573 119.644 67.1979 112.093 67.1979C110.858 67.1979 109.896 67.1638 109.21 67.0946C110.171 71.0352 111.99 74.2671 114.666 76.7901C117.344 79.3132 120.81 80.5747 125.065 80.5747C130.968 80.5747 136.15 78.4483 140.612 74.1967C145.074 69.9451 148.404 64.155 150.6 56.8264C151.011 55.3055 151.817 54.3726 153.019 54.0264ZM113.328 42.2573C111.543 44.5045 110.29 47.2353 109.57 50.4495C108.849 53.6638 108.489 57.1033 108.489 60.7682V61.8056H110.034C114.839 61.8056 118.854 60.5089 122.08 57.9166C125.306 55.3243 127.056 52.2297 127.331 48.6353C127.538 45.8013 127.005 43.4671 125.735 41.6353C124.465 39.8034 122.458 38.8869 119.711 38.8869C117.24 38.8869 115.113 40.01 113.328 42.2573Z" fill="white"/>
<path d="M237.136 54.026C238.337 53.6799 239.332 53.9744 240.122 54.9073C240.912 55.8403 241.066 57.137 240.586 58.7964C240.037 60.5942 239.625 61.9249 239.351 62.7886C239.076 63.6524 238.527 65.2425 237.703 67.559C236.88 69.8755 236.142 71.7249 235.49 73.1073C234.837 74.4897 233.962 76.3052 232.865 78.5513C231.766 80.7985 230.702 82.648 229.673 84.0996C228.644 85.5513 227.391 87.1238 225.916 88.8183C224.44 90.5117 222.965 91.8425 221.489 92.8106C220.012 93.7788 218.349 94.6084 216.495 95.2996C214.641 95.9908 212.72 96.337 210.729 96.337C199.609 96.337 193.294 87.7645 191.784 70.6195C187.94 87.626 180.664 96.1305 169.957 96.1305C155.748 96.1305 149.296 82.5799 150.601 55.48C150.738 52.5075 151.253 44.4877 152.144 31.4218C147.271 31.2834 142.775 31.3878 138.657 31.7328C137.558 31.8713 136.752 31.7669 136.237 31.4218C135.722 31.0768 135.533 30.3845 135.671 29.3482C135.74 28.5186 135.911 27.7933 136.186 27.1702C136.461 26.5482 136.872 26.0472 137.421 25.6669C137.97 25.2867 138.433 24.9757 138.811 24.734C139.188 24.4922 139.823 24.3362 140.716 24.2669C141.608 24.1977 142.261 24.1461 142.672 24.1109C143.083 24.0757 143.838 24.0768 144.937 24.1109C146.036 24.1449 146.756 24.1625 147.1 24.1625H152.762C152.968 20.7053 153.208 15.935 153.483 9.85151C153.483 7.43173 153.449 5.84162 153.381 5.08118C153.312 3.69879 153.741 2.73064 154.668 2.17792C155.596 1.62519 156.779 1.45152 158.221 1.65923C163.712 2.28119 166.663 5.15043 167.075 10.2669C167.35 13.8614 167.384 18.2867 167.178 23.5405V24.2669C169.855 24.2669 174.197 24.2845 180.203 24.3186C186.209 24.3526 190.688 24.3702 193.639 24.3702C193.914 21.0515 194.188 16.212 194.463 9.85269C194.463 7.43291 194.429 5.84279 194.36 5.08236C194.291 3.69996 194.72 2.73181 195.647 2.17909C196.575 1.62637 197.759 1.45268 199.2 1.66039C204.691 2.28235 207.642 5.1516 208.055 10.2681C208.33 13.8626 208.364 18.2879 208.157 23.5417V24.2681C215.296 24.1296 219.655 23.9912 221.233 23.8539C222.743 23.7154 223.79 23.733 224.373 23.9055C224.957 24.078 225.215 24.6483 225.146 25.6165C225.077 29.5571 222.228 31.6659 216.6 31.9417C215.639 32.0109 212.687 32.045 207.745 32.045C207.607 33.7043 207.436 36.2109 207.23 39.5637C207.024 42.9164 206.852 45.457 206.715 47.1856C206.097 57.279 205.891 65.0218 206.097 70.4153C206.577 82.3757 209.084 88.356 213.614 88.356C215.947 88.356 218.35 87.0592 220.821 84.4669C223.292 81.8746 225.471 78.6768 227.358 74.8746C229.246 71.0725 230.773 67.6845 231.94 64.712C233.106 61.7395 234.033 59.112 234.72 56.8307C235.127 55.3052 235.935 54.3722 237.136 54.026ZM176.493 87.6777C177.351 87.2975 178.518 86.226 179.993 84.4634C181.469 82.7008 182.859 80.3667 184.163 77.4634C185.467 74.5602 186.874 70.1876 188.384 64.3447C189.894 58.503 191.198 51.6414 192.297 43.7601C192.434 40.8569 192.708 36.9162 193.12 31.9382L166.763 31.6272C166.626 33.425 166.437 36.0513 166.197 39.5085C165.957 42.9657 165.802 45.5228 165.733 47.1821C165.458 51.9524 165.269 55.8755 165.167 58.9524C165.064 62.0294 165.029 65.3129 165.064 68.8041C165.098 72.2953 165.304 75.0953 165.682 77.2041C166.059 79.3129 166.574 81.2832 167.226 83.1151C167.878 84.9469 168.771 86.2601 169.903 87.0557C171.036 87.8502 172.392 88.248 173.971 88.248C174.794 88.248 175.634 88.0579 176.493 87.6777Z" fill="white"/>
<path d="M295.308 53.9229C296.509 53.5767 297.504 53.8713 298.294 54.8042C299.083 55.7372 299.238 57.0339 298.758 58.6932C296.149 67.7493 293.164 74.5768 289.8 79.1746C286.437 83.7725 281.427 87.6263 274.768 90.7373C270.993 114.934 261.554 127.344 246.454 127.966C241.307 128.243 237.188 127.24 234.1 124.958C231.011 122.677 229.33 119.669 229.055 115.936C228.575 108.954 232.143 103.043 239.762 98.2032C240.655 97.6505 241.512 97.1142 242.336 96.5955C243.16 96.0768 244.069 95.5933 245.064 95.1438C246.06 94.6944 246.883 94.2966 247.536 93.9515C248.188 93.6065 249.063 93.2251 250.161 92.8109C251.259 92.3966 252.031 92.0845 252.477 91.8779C252.923 91.6702 253.798 91.3592 255.102 90.945C256.406 90.5307 257.178 90.2878 257.418 90.2186C257.658 90.1493 258.517 89.8724 259.992 89.3889C261.468 88.9054 262.239 88.6625 262.308 88.6625C262.446 87.1416 262.617 85.0152 262.823 82.2844C263.029 79.5537 263.167 77.8767 263.236 77.2547C259.872 83.3383 254.998 86.5185 248.616 86.7954C244.223 87.0032 240.791 85.5515 238.32 82.4405C237.016 80.7812 236.072 78.8108 235.488 76.5295C234.905 74.2482 234.578 72.2603 234.51 70.5669C234.441 68.8735 234.458 66.1075 234.561 62.2713C234.664 58.4339 234.716 55.5822 234.716 53.7164C234.785 49.0845 234.578 44.5219 234.098 40.0273C233.961 38.5756 234.321 37.5207 235.18 36.8647C236.038 36.2087 237.358 35.8789 239.143 35.8789C241.957 35.9481 244.102 36.7778 245.578 38.3679C247.055 39.958 247.963 42.4119 248.307 45.7306C248.651 49.879 248.513 57.2416 247.896 67.8185C247.483 75.1471 249.508 78.6031 253.971 78.1889C257.197 77.9119 259.633 75.3713 261.281 70.5669C262.928 65.7625 263.683 59.4185 263.546 51.5371C263.546 50.2932 263.443 48.4437 263.237 45.9888C263.031 43.5349 262.928 41.7887 262.928 40.7513C262.928 38.2623 264.541 37.1909 267.767 37.5371C273.875 38.2283 277.068 41.4085 277.342 47.0778C277.753 54.5437 277.41 64.6031 276.312 77.2547C276.243 77.8075 276.072 79.813 275.797 83.269C280.395 80.78 283.793 77.669 285.989 73.936C288.185 70.2031 290.485 64.4646 292.888 56.7217C293.3 55.202 294.107 54.2691 295.308 53.9229ZM255.874 114.381C258.654 108.851 260.524 102.698 261.486 95.923C257.162 97.4439 253.678 98.9308 251.036 100.382C248.393 101.834 246.248 103.666 244.601 105.878C241.787 109.472 240.551 113.276 240.895 117.286C240.963 119.084 241.478 120.5 242.439 121.537C243.401 122.575 244.602 123.058 246.043 122.989C249.817 122.781 253.094 119.912 255.874 114.381Z" fill="white"/>
<path d="M297.559 51.8998C296.205 50.3977 295.72 48.6832 296.286 46.7163C296.723 45.1978 297.569 43.9105 298.544 42.6994C300.198 40.6469 302.164 38.9207 304.156 37.2179C306.077 35.5762 307.986 33.9203 309.908 32.2786C311.887 30.5876 313.065 28.4259 313.603 25.8947C314.007 23.9983 314.054 22.1077 313.355 20.2571C312.737 18.6189 311.613 17.4559 310.058 16.692C307.49 15.4305 304.93 15.6393 302.382 16.7366C300.409 17.5862 298.755 18.8853 297.323 20.4836C297.264 20.5505 297.208 20.6209 297.147 20.6854C297.131 20.703 297.103 20.7077 297.011 20.6761C297.375 20.0916 297.709 19.4849 298.109 18.9275C299.471 17.0252 301.136 15.4516 303.286 14.5069C306.45 13.1186 309.6 13.0506 312.59 14.9833C314.454 16.1885 315.647 17.9641 316.333 20.074C317.135 22.5396 317.113 25.0181 316.342 27.4836C315.67 29.6276 314.537 31.5123 313.085 33.2115C311.425 35.1561 309.477 36.7814 307.495 38.3738C305.297 40.1388 303.093 41.8979 300.946 43.7239C299.805 44.6944 298.883 45.882 298.201 47.2397C297.481 48.6702 297.214 50.1641 297.545 51.7484C297.555 51.7988 297.554 51.8493 297.559 51.8998Z" fill="#ED6C9E"/>
<path d="M295.426 47.0977C295.39 46.3044 295.432 45.4912 295.299 44.7073C295.087 43.4528 294.411 42.4025 293.61 41.4367C292.193 39.728 290.416 38.4313 288.692 37.0747C286.586 35.4177 284.436 33.8112 282.611 31.8256C280.781 29.833 279.364 27.6021 278.949 24.869C278.47 21.7181 279.131 18.8583 281.424 16.5464C283.048 14.9094 285.075 14.2546 287.351 14.454C290.335 14.7157 292.643 16.2155 294.458 18.5461C294.931 19.154 295.338 19.8147 295.776 20.4519C295.734 20.4871 295.691 20.5223 295.649 20.5575C295.17 20.0634 294.726 19.5248 294.204 19.0812C292.286 17.4524 290.139 16.334 287.557 16.4103C284.194 16.5101 281.473 18.6893 281.395 22.495C281.345 24.8972 282.016 27.0963 283.448 29.0009C284.085 29.8482 284.919 30.557 285.721 31.2623C287.503 32.8301 289.352 34.3216 291.115 35.9118C292.244 36.9292 293.305 38.0311 294.326 39.1577C295.303 40.2338 296.086 41.4531 296.435 42.8977C296.82 44.4925 296.457 45.9078 295.426 47.0977Z" fill="#ED6C9E"/>
</svg>
