<svg width="32" height="32" viewBox="0 0 32 32" fill="none" xmlns="http://www.w3.org/2000/svg">
<g clip-path="url(#clip0)">
<path d="M28.8314 2.13873C28.5933 2.07511 28.4232 1.86535 28.4102 1.61946L28.3835 1.10714C28.3693 0.861815 28.199 0.653163 27.9612 0.590095C27.7236 0.527027 27.4722 0.62399 27.3383 0.830142L27.0599 1.25911C26.9254 1.46638 26.6726 1.56334 26.4342 1.49861L25.9408 1.36608C25.7016 1.30079 25.4476 1.39775 25.3132 1.60585C25.1784 1.81395 25.1937 2.08511 25.3512 2.27654L25.6727 2.67495C25.793 2.8247 25.8288 3.0253 25.7677 3.20755L29.042 2.19569L28.8314 2.13873Z" fill="white"/>
<path d="M29.3249 2.2705L29.0404 2.19409L25.7676 3.20123C25.7548 3.24874 25.7356 3.29431 25.7109 3.33682L25.4325 3.76523C25.2977 3.97222 25.3119 4.24255 25.4675 4.43453C25.6234 4.62623 25.8851 4.69569 26.1154 4.60623L26.5922 4.42286C26.8219 4.33396 27.0828 4.40286 27.2384 4.59373L27.5601 4.99186C27.7152 5.18357 27.9758 5.25358 28.2061 5.16523C28.4361 5.07688 28.5834 4.85045 28.5706 4.60429L28.5439 4.09224C28.5309 3.84608 28.6779 3.61965 28.9079 3.5313L29.3849 3.34793C29.6122 3.25763 29.7567 3.03203 29.7431 2.78782C29.7294 2.54333 29.5611 2.33495 29.3249 2.2705Z" fill="white"/>
<path d="M10.3877 2.86137C10.5453 2.67022 10.5608 2.39878 10.4261 2.19068C10.2913 1.98259 10.0374 1.88562 9.79818 1.95119L7.36631 2.60493C7.29186 2.62327 7.21434 2.62604 7.13877 2.61271L3.89758 8.68223L3.86702 9.27818C3.85396 9.52434 4.00093 9.75106 4.23125 9.83941C4.4613 9.92776 4.72246 9.85802 4.87749 9.66604L6.46169 7.70927C6.61728 7.51867 6.87844 7.44977 7.10793 7.53868L9.45867 8.44052C9.68899 8.52998 9.95071 8.46052 10.1063 8.26882C10.2622 8.07712 10.2763 7.80651 10.1413 7.59952L8.76603 5.48577C8.63184 5.27907 8.64573 5.00929 8.80076 4.81759L10.3877 2.86137Z" fill="white"/>
<path d="M6.74152 2.36658L5.37041 0.255049C5.23539 0.0508425 4.98478 -0.0438984 4.74862 0.0194475C4.51219 0.0827932 4.34271 0.290056 4.32799 0.534271L4.19351 3.04921C4.18073 3.29565 4.0107 3.50569 3.7726 3.56931L1.34073 4.21972C1.10235 4.28334 0.93204 4.49338 0.91926 4.73954C0.906202 4.98598 1.05345 5.21269 1.28378 5.30076L3.63424 6.20261C3.86428 6.29096 4.01153 6.51767 3.99848 6.76383L3.89762 8.68226L7.13659 2.61273C6.97573 2.59134 6.83181 2.5016 6.74152 2.36658Z" fill="white"/>
<path d="M21.0642 12.2255L16.8642 5.75898C16.5958 5.34529 16.0916 5.15164 15.6151 5.27916C15.1386 5.40697 14.7988 5.82677 14.7732 6.31937L14.3698 14.0198C14.344 14.5118 14.0042 14.9316 13.5283 15.0591L6.08015 17.0548C5.60339 17.1821 5.26276 17.6019 5.23692 18.0945C5.21109 18.5871 5.50559 19.0405 5.96623 19.2169L13.1651 21.9799C13.6255 22.1566 13.92 22.6095 13.8942 23.1021L13.5344 29.9573L21.5601 12.6392C21.3579 12.5531 21.1853 12.4092 21.0642 12.2255Z" fill="white"/>
<path d="M30.9401 12.525C31.2496 12.1418 31.2777 11.6031 31.0096 11.19C30.7415 10.7768 30.238 10.5829 29.7621 10.7099L22.3129 12.7053C22.0617 12.7706 21.7958 12.7472 21.5599 12.6392L13.5342 29.9573L13.4889 30.8022C13.4628 31.2948 13.757 31.7479 14.2174 31.9246C14.678 32.101 15.1998 31.9613 15.5099 31.5779L20.3622 25.5856C20.6725 25.2025 21.1943 25.0627 21.6544 25.2391L28.8536 28.0027C29.3137 28.1803 29.836 28.0411 30.1466 27.6579C30.4572 27.2748 30.4858 26.7353 30.2175 26.3213L26.0169 19.8536C25.7485 19.4402 25.7769 18.9007 26.0869 18.5175L30.9401 12.525Z" fill="white"/>
</g>
<defs>
<clipPath id="clip0">
<rect width="32" height="32" fill="white"/>
</clipPath>
</defs>
</svg>
