<svg xmlns="http://www.w3.org/2000/svg" width="101.372" height="97.371" viewBox="0 0 101.372 97.371">
  <path id="Path_46" data-name="Path 46" d="M2307.85,206.517a9.78,9.78,0,0,0-5.064-2.332l-23.146-3.363-10.351-20.974a9.8,9.8,0,0,0-17.584,0l-10.351,20.974-23.145,3.363a9.8,9.8,0,0,0-5.434,16.723l16.748,16.326-3.953,23.052a9.8,9.8,0,0,0,14.225,10.335l20.7-10.883,20.7,10.883a9.8,9.8,0,0,0,14.225-10.335l-3.953-23.052,16.748-16.326a9.816,9.816,0,0,0-.37-14.391Zm-4.673,9.218-18.5,18.03a2.583,2.583,0,0,0-.742,2.284l4.367,25.458a2.574,2.574,0,0,1-3.744,2.72l-22.863-12.02a2.582,2.582,0,0,0-2.4,0l-22.863,12.02a2.574,2.574,0,0,1-3.744-2.72l4.367-25.458a2.582,2.582,0,0,0-.742-2.284l-18.5-18.03a2.58,2.58,0,0,1,1.429-4.4l25.562-3.714a2.579,2.579,0,0,0,1.943-1.412l11.432-23.163a2.58,2.58,0,0,1,4.627,0l11.432,23.163a2.579,2.579,0,0,0,1.942,1.412l25.562,3.714A2.58,2.58,0,0,1,2303.177,215.735Z" transform="translate(-2209.812 -174.383)" fill="#fff"/>
</svg>
