<svg xmlns="http://www.w3.org/2000/svg" width="34.982" height="33.602" viewBox="0 0 34.982 33.602">
  <g id="Group_24" data-name="Group 24" transform="translate(-1266.831 -181.516)">
    <path id="Path_70" data-name="Path 70" d="M1300.663,192.606a3.372,3.372,0,0,0-1.748-.805l-7.987-1.161-3.572-7.238a3.381,3.381,0,0,0-6.068,0l-3.572,7.238-7.987,1.161a3.381,3.381,0,0,0-1.875,5.771l5.779,5.634-1.364,7.955a3.38,3.38,0,0,0,4.909,3.566l7.144-3.756,7.144,3.756a3.382,3.382,0,0,0,4.909-3.566l-1.364-7.955,5.78-5.634a3.386,3.386,0,0,0-.128-4.966Zm-1.613,3.181-6.383,6.222a.893.893,0,0,0-.256.788l1.507,8.785a.888.888,0,0,1-1.292.939l-7.89-4.148a.884.884,0,0,0-.828,0l-7.89,4.148a.888.888,0,0,1-1.292-.939l1.507-8.785a.891.891,0,0,0-.256-.788l-6.383-6.222a.89.89,0,0,1,.493-1.519l8.821-1.282a.891.891,0,0,0,.671-.487l3.945-7.993a.889.889,0,0,1,1.6,0l3.945,7.993a.891.891,0,0,0,.671.487l8.821,1.282A.89.89,0,0,1,1299.05,195.787Z" fill="#fff"/>
  </g>
</svg>
