<svg xmlns="http://www.w3.org/2000/svg" xmlns:xlink="http://www.w3.org/1999/xlink" width="852.585" height="112.966" viewBox="0 0 852.585 112.966">
  <defs>
    <linearGradient id="linear-gradient" y1="0.5" x2="1" y2="0.5" gradientUnits="objectBoundingBox">
      <stop offset="0.001" stop-color="#ed6963"/>
      <stop offset="1" stop-color="#eb3d7e"/>
    </linearGradient>
  </defs>
  <g id="Group_20" data-name="Group 20" transform="translate(-137.975 -212.394)">
    <g id="Group_18" data-name="Group 18">
      <path id="Path_7" data-name="Path 7" d="M137.975,250.306l2.807-6.225a21.006,21.006,0,0,0,11.786,3.725c4.9,0,6.888-1.633,6.888-3.827,0-6.685-20.767-2.092-20.767-15.359,0-6.072,4.9-11.123,15.052-11.123a23.962,23.962,0,0,1,12.4,3.163l-2.551,6.277a20.166,20.166,0,0,0-9.9-2.807c-4.9,0-6.786,1.837-6.786,4.082,0,6.582,20.767,2.041,20.767,15.154,0,5.97-4.95,11.073-15.155,11.073C146.853,254.439,141.138,252.755,137.975,250.306Z"/>
      <path id="Path_8" data-name="Path 8" d="M171.8,218.109c0-2.5,1.99-4.439,4.949-4.439s4.949,1.837,4.949,4.286c0,2.653-1.989,4.592-4.949,4.592S171.8,220.609,171.8,218.109Zm.969,8.266h7.96v27.452h-7.96Z"/>
      <path id="Path_9" data-name="Path 9" d="M234.511,238.111v15.716h-7.96V239.335c0-4.439-1.99-6.48-5.205-6.48-3.571,0-6.072,2.3-6.072,7.2v13.777h-7.96V239.335c0-4.439-1.888-6.48-5.2-6.48-3.521,0-6.021,2.3-6.021,7.2v13.777h-7.96V226.375h7.6v3.164a11.114,11.114,0,0,1,8.623-3.572c3.827,0,7.093,1.479,9.031,4.49a12.342,12.342,0,0,1,9.9-4.49C229.817,225.967,234.511,229.743,234.511,238.111Z"/>
      <path id="Path_10" data-name="Path 10" d="M271.552,240.1c0,8.623-5.97,14.134-13.675,14.134a10.657,10.657,0,0,1-8.266-3.317v12.808h-7.96V226.375h7.6v3.164c1.99-2.4,4.949-3.572,8.623-3.572C265.582,225.967,271.552,231.478,271.552,240.1Zm-8.062,0c0-4.746-3.01-7.6-6.991-7.6s-6.99,2.857-6.99,7.6,3.011,7.6,6.99,7.6S263.49,244.846,263.49,240.1Z"/>
      <path id="Path_11" data-name="Path 11" d="M276.856,215.966h7.96v37.861h-7.96Z"/>
      <path id="Path_12" data-name="Path 12" d="M319.461,226.375l-12.4,29.136c-2.654,6.633-6.43,8.623-11.379,8.623a12.194,12.194,0,0,1-7.654-2.5l2.909-5.664a7.058,7.058,0,0,0,4.49,1.735c2.194,0,3.418-.97,4.49-3.419l.1-.255-11.889-27.656h8.215l7.7,18.624,7.756-18.624Z"/>
      <path id="Path_13" data-name="Path 13" d="M334.918,250.306l2.806-6.225a21.012,21.012,0,0,0,11.787,3.725c4.9,0,6.889-1.633,6.889-3.827,0-6.685-20.768-2.092-20.768-15.359,0-6.072,4.9-11.123,15.053-11.123a23.961,23.961,0,0,1,12.4,3.163l-2.552,6.277a20.16,20.16,0,0,0-9.9-2.807c-4.9,0-6.787,1.837-6.787,4.082,0,6.582,20.768,2.041,20.768,15.154,0,5.97-4.95,11.073-15.155,11.073C343.8,254.439,338.081,252.755,334.918,250.306Z"/>
      <path id="Path_14" data-name="Path 14" d="M396.451,242.346H375.684c.765,3.419,3.674,5.51,7.858,5.51a9.305,9.305,0,0,0,6.888-2.653l4.235,4.593c-2.55,2.908-6.378,4.439-11.327,4.439-9.491,0-15.665-5.97-15.665-14.134,0-8.215,6.276-14.134,14.645-14.134,8.061,0,14.287,5.408,14.287,14.236C396.605,240.815,396.5,241.683,396.451,242.346ZM375.582,237.7H389.1a6.857,6.857,0,0,0-13.522,0Z"/>
      <path id="Path_15" data-name="Path 15" d="M401.909,215.966h7.96v37.861h-7.96Z"/>
      <path id="Path_16" data-name="Path 16" d="M444,242.346H423.237c.765,3.419,3.673,5.51,7.857,5.51a9.306,9.306,0,0,0,6.889-2.653l4.235,4.593c-2.552,2.908-6.378,4.439-11.328,4.439-9.49,0-15.665-5.97-15.665-14.134,0-8.215,6.276-14.134,14.644-14.134,8.063,0,14.288,5.408,14.288,14.236C444.157,240.815,444.055,241.683,444,242.346Zm-20.87-4.643h13.522a6.857,6.857,0,0,0-13.522,0Z"/>
      <path id="Path_17" data-name="Path 17" d="M447.42,240.1c0-8.266,6.378-14.134,15.308-14.134,5.765,0,10.307,2.5,12.3,6.99l-6.174,3.317a6.846,6.846,0,0,0-6.174-3.776c-4.031,0-7.2,2.807-7.2,7.6s3.164,7.6,7.2,7.6a6.755,6.755,0,0,0,6.174-3.776l6.174,3.367c-1.99,4.389-6.532,6.94-12.3,6.94C453.8,254.235,447.42,248.367,447.42,240.1Z"/>
      <path id="Path_18" data-name="Path 18" d="M497.729,252.5a11.374,11.374,0,0,1-6.481,1.735c-6.48,0-10.256-3.317-10.256-9.848V233.11h-4.235v-6.123h4.235V220.3h7.96v6.684h6.837v6.123h-6.837v11.175c0,2.347,1.276,3.623,3.419,3.623a5.359,5.359,0,0,0,3.214-1.021Z"/>
      <path id="Path_19" data-name="Path 19" d="M539.873,251.224a11.374,11.374,0,0,1-6.481,1.735c-6.481,0-10.256-3.317-10.256-9.848V231.834H518.9v-6.123h4.235v-6.684h7.96v6.684h6.837v6.123H531.1v11.175c0,2.347,1.276,3.623,3.418,3.623a5.36,5.36,0,0,0,3.215-1.021Z" fill="url(#linear-gradient)"/>
      <path id="Path_20" data-name="Path 20" d="M572.426,236.835v15.716h-7.96V238.06c0-4.439-2.041-6.48-5.562-6.48-3.827,0-6.582,2.346-6.582,7.4v13.573h-7.961V214.69h7.961v13.267a12.061,12.061,0,0,1,8.725-3.266C567.527,224.691,572.426,228.467,572.426,236.835Z" fill="url(#linear-gradient)"/>
      <path id="Path_21" data-name="Path 21" d="M606.661,241.07H585.893c.766,3.419,3.674,5.511,7.859,5.511a9.306,9.306,0,0,0,6.888-2.654l4.235,4.593c-2.551,2.908-6.378,4.439-11.327,4.439-9.492,0-15.665-5.97-15.665-14.134,0-8.215,6.276-14.134,14.644-14.134,8.062,0,14.287,5.409,14.287,14.236C606.814,239.54,606.712,240.407,606.661,241.07Zm-20.869-4.643h13.521a6.856,6.856,0,0,0-13.521,0Z" fill="url(#linear-gradient)"/>
      <path id="Path_22" data-name="Path 22" d="M634.517,223.568H623.088v-6.735h31.125v6.735h-11.43v28.983h-8.266Z" fill="url(#linear-gradient)"/>
      <path id="Path_23" data-name="Path 23" d="M686.152,236.835v15.716h-7.959V238.06c0-4.439-2.041-6.48-5.562-6.48-3.827,0-6.582,2.346-6.582,7.4v13.573h-7.96V214.69h7.96v13.267a12.061,12.061,0,0,1,8.725-3.266C681.254,224.691,686.152,228.467,686.152,236.835Z" fill="url(#linear-gradient)"/>
      <path id="Path_24" data-name="Path 24" d="M692.375,216.833c0-2.5,1.99-4.439,4.949-4.439s4.95,1.837,4.95,4.286c0,2.653-1.99,4.592-4.95,4.592S692.375,219.333,692.375,216.833Zm.969,8.266h7.96v27.452h-7.96Z" fill="url(#linear-gradient)"/>
      <path id="Path_25" data-name="Path 25" d="M736.765,236.835v15.716h-7.959V238.06c0-4.439-2.041-6.48-5.562-6.48-3.826,0-6.582,2.346-6.582,7.4v13.573H708.7V225.1h7.6v3.215a12.018,12.018,0,0,1,9.083-3.623C731.867,224.691,736.765,228.467,736.765,236.835Z" fill="url(#linear-gradient)"/>
      <path id="Path_26" data-name="Path 26" d="M772.584,225.1v22.859c0,10.206-5.511,14.9-15.41,14.9-5.205,0-10.256-1.275-13.471-3.776l3.164-5.715a16.406,16.406,0,0,0,9.694,3.113c5.614,0,8.063-2.552,8.063-7.5V247.8a11.3,11.3,0,0,1-8.675,3.419c-7.6,0-13.726-5.256-13.726-13.266s6.123-13.267,13.726-13.267c3.827,0,6.99,1.275,9.083,3.929V225.1Zm-7.859,12.859c0-4.032-3.01-6.736-7.194-6.736s-7.246,2.7-7.246,6.736,3.062,6.735,7.246,6.735S764.725,241.989,764.725,237.958Z" fill="url(#linear-gradient)"/>
      <path id="Path_27" data-name="Path 27" d="M777.326,250l2.653-5.715a18.779,18.779,0,0,0,9.542,2.653c3.674,0,5.051-.97,5.051-2.5,0-4.49-16.583.1-16.583-10.869,0-5.2,4.694-8.878,12.706-8.878,3.775,0,7.959.867,10.562,2.4l-2.654,5.664a15.759,15.759,0,0,0-7.908-2.041c-3.572,0-5.1,1.122-5.1,2.551,0,4.695,16.584.154,16.584,10.971,0,5.1-4.747,8.725-12.961,8.725C784.572,252.959,779.877,251.683,777.326,250Z" fill="url(#linear-gradient)"/>
      <path id="Path_28" data-name="Path 28" d="M860.555,244.081c0,6.174-4.9,9.746-14.287,9.746H827.8V218.109h17.45c8.93,0,13.522,3.725,13.522,9.287a8.586,8.586,0,0,1-4.746,7.857A8.82,8.82,0,0,1,860.555,244.081Zm-24.543-19.747v8.419h8.215c4.032,0,6.226-1.429,6.226-4.235s-2.194-4.184-6.226-4.184Zm16.227,18.879c0-3.01-2.3-4.439-6.583-4.439h-9.644V247.6h9.644C849.942,247.6,852.239,246.275,852.239,243.213Z"/>
      <path id="Path_29" data-name="Path 29" d="M893.006,242.346H872.238c.766,3.419,3.674,5.51,7.858,5.51a9.307,9.307,0,0,0,6.889-2.653l4.234,4.593c-2.55,2.908-6.377,4.439-11.327,4.439-9.491,0-15.665-5.97-15.665-14.134,0-8.215,6.277-14.134,14.645-14.134,8.061,0,14.287,5.408,14.287,14.236C893.159,240.815,893.056,241.683,893.006,242.346Zm-20.87-4.643h13.522a6.857,6.857,0,0,0-13.522,0Z"/>
      <path id="Path_30" data-name="Path 30" d="M898.463,215.966h7.96v37.861h-7.96Z"/>
      <path id="Path_31" data-name="Path 31" d="M911.779,240.1c0-8.266,6.378-14.134,15.1-14.134s15.052,5.868,15.052,14.134-6.327,14.134-15.052,14.134S911.779,248.367,911.779,240.1Zm22.094,0c0-4.746-3.011-7.6-6.99-7.6s-7.042,2.857-7.042,7.6,3.062,7.6,7.042,7.6S933.873,244.846,933.873,240.1Z"/>
      <path id="Path_32" data-name="Path 32" d="M990.56,226.375l-9.95,27.452h-7.653l-6.175-17.043L960.4,253.827h-7.653l-9.9-27.452h7.5l6.481,18.573,6.735-18.573H970.3l6.532,18.573,6.683-18.573Z"/>
    </g>
    <g id="Group_19" data-name="Group 19">
      <path id="Path_33" data-name="Path 33" d="M236.886,286.071h-11.43v-6.736h31.126v6.736h-11.43v28.982h-8.266Z"/>
      <path id="Path_34" data-name="Path 34" d="M288.521,299.337v15.716h-7.959V300.562c0-4.439-2.041-6.48-5.562-6.48-3.827,0-6.583,2.347-6.583,7.4v13.573h-7.959V277.192h7.959v13.267a12.069,12.069,0,0,1,8.726-3.266C283.623,287.193,288.521,290.969,288.521,299.337Z"/>
      <path id="Path_35" data-name="Path 35" d="M320,299.389v15.664h-7.449v-3.418c-1.48,2.5-4.338,3.826-8.368,3.826-6.43,0-10.257-3.571-10.257-8.316,0-4.848,3.419-8.216,11.787-8.216h6.328c0-3.418-2.041-5.408-6.328-5.408a13.2,13.2,0,0,0-7.909,2.551l-2.857-5.562a21.105,21.105,0,0,1,11.838-3.317C315.154,287.193,320,291.071,320,299.389Zm-7.959,6.99v-2.807h-5.46c-3.725,0-4.9,1.378-4.9,3.215,0,1.99,1.684,3.317,4.49,3.317A5.867,5.867,0,0,0,312.042,306.379Z"/>
      <path id="Path_36" data-name="Path 36" d="M344.9,313.727a11.38,11.38,0,0,1-6.48,1.734c-6.48,0-10.256-3.316-10.256-9.848V294.337h-4.235v-6.123h4.235v-6.685h7.96v6.685h6.837v6.123h-6.837v11.175c0,2.346,1.275,3.622,3.419,3.622a5.365,5.365,0,0,0,3.214-1.02Z"/>
      <path id="Path_37" data-name="Path 37" d="M381.533,302.4v12.654h-8.267V302.3l-13.828-22.962h8.777l9.541,15.869,9.542-15.869h8.114Z"/>
      <path id="Path_38" data-name="Path 38" d="M393.215,301.327c0-8.265,6.378-14.134,15.1-14.134s15.053,5.869,15.053,14.134-6.328,14.134-15.053,14.134S393.215,309.594,393.215,301.327Zm22.094,0c0-4.745-3.01-7.6-6.99-7.6s-7.042,2.857-7.042,7.6,3.062,7.6,7.042,7.6S415.309,306.073,415.309,301.327Z"/>
      <path id="Path_39" data-name="Path 39" d="M456.332,287.6v27.451H448.78v-3.265a11.108,11.108,0,0,1-8.522,3.673c-6.888,0-11.735-3.878-11.735-12.348V287.6h7.96v14.337c0,4.593,2.041,6.634,5.561,6.634,3.674,0,6.328-2.347,6.328-7.4V287.6Z"/>
      <path id="Path_40" data-name="Path 40" d="M502.251,307.4H485.667l-3.164,7.654h-8.469l15.92-35.718h8.164l15.97,35.718h-8.674Zm-2.6-6.276-5.664-13.675-5.663,13.675Z"/>
      <path id="Path_41" data-name="Path 41" d="M534.292,287.193v7.348c-.664-.051-1.174-.1-1.787-.1-4.387,0-7.3,2.4-7.3,7.654v12.96h-7.96V287.6h7.6v3.623C526.791,288.571,530.056,287.193,534.292,287.193Z"/>
      <path id="Path_42" data-name="Path 42" d="M565.519,303.572H544.751c.766,3.419,3.674,5.511,7.858,5.511a9.306,9.306,0,0,0,6.889-2.653l4.235,4.592c-2.552,2.909-6.378,4.439-11.328,4.439-9.49,0-15.665-5.97-15.665-14.134,0-8.215,6.276-14.134,14.644-14.134,8.063,0,14.288,5.409,14.288,14.237C565.672,302.042,565.57,302.909,565.519,303.572Zm-20.87-4.643h13.522a6.857,6.857,0,0,0-13.522,0Z"/>
      <path id="Path_43" data-name="Path 43" d="M616.949,292.3c0,7.96-5.97,12.909-15.511,12.909h-7.2v9.848h-8.265V279.335h15.461C610.979,279.335,616.949,284.285,616.949,292.3Zm-8.369,0c0-3.929-2.551-6.225-7.6-6.225h-6.736v12.4h6.736C606.029,298.47,608.58,296.174,608.58,292.3Z" fill="url(#linear-gradient)"/>
      <path id="Path_44" data-name="Path 44" d="M648.94,303.572H628.173c.765,3.419,3.674,5.511,7.858,5.511a9.309,9.309,0,0,0,6.889-2.653l4.234,4.592c-2.55,2.909-6.378,4.439-11.327,4.439-9.491,0-15.665-5.97-15.665-14.134,0-8.215,6.276-14.134,14.645-14.134,8.061,0,14.287,5.409,14.287,14.237C649.094,302.042,648.991,302.909,648.94,303.572Zm-20.869-4.643h13.522a6.857,6.857,0,0,0-13.522,0Z" fill="url(#linear-gradient)"/>
      <path id="Path_45" data-name="Path 45" d="M672.1,313.727a11.383,11.383,0,0,1-6.481,1.734c-6.48,0-10.256-3.316-10.256-9.848V294.337h-4.235v-6.123h4.235v-6.685h7.96v6.685h6.837v6.123h-6.837v11.175c0,2.346,1.276,3.622,3.419,3.622a5.365,5.365,0,0,0,3.214-1.02Z" fill="url(#linear-gradient)"/>
      <path id="Path_46" data-name="Path 46" d="M693.687,313.727a11.383,11.383,0,0,1-6.481,1.734c-6.48,0-10.256-3.316-10.256-9.848V294.337h-4.235v-6.123h4.235v-6.685h7.96v6.685h6.837v6.123H684.91v11.175c0,2.346,1.276,3.622,3.418,3.622a5.366,5.366,0,0,0,3.215-1.02Z" fill="url(#linear-gradient)"/>
      <path id="Path_47" data-name="Path 47" d="M724.912,287.6l-12.4,29.135c-2.654,6.633-6.43,8.623-11.379,8.623a12.193,12.193,0,0,1-7.655-2.5l2.91-5.664a7.052,7.052,0,0,0,4.49,1.735c2.194,0,3.419-.969,4.49-3.418l.1-.256L693.583,287.6H701.8l7.705,18.624,7.756-18.624Z" fill="url(#linear-gradient)"/>
      <path id="Path_48" data-name="Path 48" d="M766.7,307.4H750.115l-3.164,7.654h-8.47l15.92-35.718h8.164l15.971,35.718h-8.675Zm-2.6-6.276-5.664-13.675-5.663,13.675Z"/>
      <path id="Path_49" data-name="Path 49" d="M811.6,301.327c0,8.624-5.97,14.134-13.674,14.134-3.674,0-6.634-1.173-8.624-3.571v3.163h-7.6V277.192h7.96V290.51a10.66,10.66,0,0,1,8.267-3.317C805.628,287.193,811.6,292.7,811.6,301.327Zm-8.062,0c0-4.745-3.011-7.6-6.99-7.6s-6.991,2.857-6.991,7.6,3.01,7.6,6.991,7.6S803.536,306.073,803.536,301.327Z"/>
      <path id="Path_50" data-name="Path 50" d="M814.86,301.327c0-8.265,6.378-14.134,15.1-14.134s15.053,5.869,15.053,14.134-6.328,14.134-15.053,14.134S814.86,309.594,814.86,301.327Zm22.094,0c0-4.745-3.011-7.6-6.99-7.6s-7.042,2.857-7.042,7.6,3.062,7.6,7.042,7.6S836.954,306.073,836.954,301.327Z"/>
      <path id="Path_51" data-name="Path 51" d="M877.977,287.6v27.451h-7.551v-3.265a11.111,11.111,0,0,1-8.522,3.673c-6.888,0-11.736-3.878-11.736-12.348V287.6h7.96v14.337c0,4.593,2.041,6.634,5.561,6.634,3.674,0,6.329-2.347,6.329-7.4V287.6Z"/>
      <path id="Path_52" data-name="Path 52" d="M903.079,313.727a11.38,11.38,0,0,1-6.48,1.734c-6.481,0-10.256-3.316-10.256-9.848V294.337h-4.236v-6.123h4.236v-6.685h7.96v6.685h6.837v6.123H894.3v11.175c0,2.346,1.275,3.622,3.418,3.622a5.368,5.368,0,0,0,3.215-1.02Z"/>
    </g>
  </g>
</svg>
