<svg xmlns="http://www.w3.org/2000/svg" width="84.845" height="109.787" viewBox="0 0 84.845 109.787">
  <g id="Group_26" data-name="Group 26" transform="translate(-684.753 -172.25)">
    <path id="Path_120" data-name="Path 120" d="M750.162,173.25c-6.5,11.25-13,22.562-19.625,34h36.875q-31.875,36.843-63.375,73.313c-.062-.063-.125-.063-.187-.125,4.625-17.063,9.187-34.063,13.812-51.25h-31.5q9.844-28.125,19.563-55.938Zm-30.437,40.313c6.562-11.375,13.062-22.625,19.562-33.938-.375,0-.562-.062-.75-.062H711.1a1.041,1.041,0,0,0-1.125.875Q702.755,201.251,695.412,222a7.682,7.682,0,0,0-.25,1h30.75q-4.406,16.407-8.75,32.5c.063.062.188.062.25.125,12.063-13.938,24.125-27.938,36.438-42.125H719.725Z" fill="#fff"/>
    <path id="Path_121" data-name="Path 121" d="M750.162,173.25c-6.5,11.25-13,22.562-19.625,34h36.875q-31.875,36.843-63.375,73.313c-.062-.063-.125-.063-.187-.125,4.625-17.063,9.187-34.063,13.812-51.25h-31.5q9.844-28.125,19.563-55.938Zm-30.437,40.313c6.562-11.375,13.062-22.625,19.562-33.938-.375,0-.562-.062-.75-.062H711.1a1.041,1.041,0,0,0-1.125.875Q702.755,201.251,695.412,222a7.682,7.682,0,0,0-.25,1h30.75q-4.406,16.407-8.75,32.5c.063.062.188.062.25.125,12.063-13.938,24.125-27.938,36.438-42.125H719.725Z" fill="none" stroke="#f9fcfd" stroke-miterlimit="10" stroke-width="2"/>
  </g>
</svg>
