<svg xmlns="http://www.w3.org/2000/svg" xmlns:xlink="http://www.w3.org/1999/xlink" width="216" height="216" viewBox="0 0 216 216">
  <defs>
    <filter id="Rectangle_34" x="0" y="0" width="216" height="216" filterUnits="userSpaceOnUse">
      <feOffset input="SourceAlpha"/>
      <feGaussianBlur result="blur"/>
      <feFlood/>
      <feComposite operator="in" in2="blur"/>
      <feComposite in="SourceGraphic"/>
    </filter>
  </defs>
  <g id="Group_28" data-name="Group 28" transform="translate(-787.879 -122.27)">
    <g id="Group_27" data-name="Group 27">
      <g transform="matrix(1, 0, 0, 1, 787.88, 122.27)" filter="url(#Rectangle_34)">
        <rect id="Rectangle_34-2" data-name="Rectangle 34" width="216" height="216" rx="45.303" fill="#015272"/>
      </g>
    </g>
    <path id="Path_6" data-name="Path 6" d="M860.912,318.335c-.029-5.194-.088-10.388-.063-15.581a3.481,3.481,0,0,0-1.312-2.872c-10.525-9.442-16.848-21.157-18.487-35.227-.945-8.116-.234-16.295-.373-24.444a28.429,28.429,0,0,1,.189-6.186c1.32-6.495,6.468-10.6,13.619-10.9a40.576,40.576,0,0,1,4.356-.01c1.528.1,2-.457,2.027-2a15.249,15.249,0,0,1,12.618-15,12.712,12.712,0,0,1,5.816.106c1.367.372,1.75-.039,1.744-1.416q-.062-14.916-.007-29.832c.024-4.8-.254-9.607.187-14.4.687-7.464,6.484-13.45,13.524-13.984,7.961-.605,14.555,3.947,16.543,11.449a21.931,21.931,0,0,1,.584,5.648q.008,20.278,0,40.558c0,2.279,0,2.279,2.146,1.856a15.16,15.16,0,0,1,15.929,7.462c.572,1,1.016,1.29,2.2.916a15.149,15.149,0,0,1,20.067,14.666c.052,10.167.131,20.337-.037,30.5-.214,12.932-4.762,24.309-12.968,34.253a44.035,44.035,0,0,1-6.226,6.315,2.709,2.709,0,0,0-.927,2.372c-.008,5.25-.047,10.5-.075,15.749ZM891.524,198.82v10.559c0,8.716-.043,17.432.036,26.147.015,1.726-.544,2.266-2.213,2.152-1.835-.125-3.685-.027-5.529-.028-2.79,0-2.791,0-2.793-2.882,0-4.525.024-9.051-.025-13.576a4.611,4.611,0,0,0-3.707-4.722c-3.261-.7-5.921,1.49-5.932,5.005q-.048,14.665.009,29.332c.008,1.573-.49,2.238-2.111,2.169-2.12-.089-4.249-.1-6.368,0-1.626.077-2.117-.557-2.093-2.146.079-5.195,0-10.392.048-15.588.011-1.226-.391-1.729-1.643-1.656-1.336.077-2.681.013-4.022.021-3.172.019-4.206,1.044-4.211,4.218-.009,6.76-.067,13.521.023,20.28a47.1,47.1,0,0,0,1.535,11.589,44.936,44.936,0,0,0,16.82,24.743,4.266,4.266,0,0,1,2.037,4.026c-.155,2.672,0,5.362-.055,8.042-.025,1.21.379,1.673,1.64,1.67q23.465-.047,46.931,0c1.224,0,1.7-.389,1.674-1.635-.06-2.681.094-5.37-.055-8.043a4.288,4.288,0,0,1,2.011-4.038c10.369-7.9,16.741-18.3,17.99-31.317,1.084-11.294.306-22.666.38-34a4.779,4.779,0,0,0-5.157-4.968c-2.712.06-4.615,2.118-4.658,5.084-.03,2.067-.094,4.139.017,6.2.089,1.636-.389,2.344-2.148,2.225a48.188,48.188,0,0,0-6.2,0c-1.678.1-2.265-.452-2.231-2.164.093-4.691.016-9.386.035-14.079a4.8,4.8,0,0,0-1.6-3.89,4.679,4.679,0,0,0-5.167-.812,4.434,4.434,0,0,0-2.893,4.319c-.011,4.917-.039,9.833,0,14.75.009,1.328-.4,1.933-1.833,1.869-2.063-.094-4.133-.021-6.2-.024-2.474,0-2.48-.005-2.48-2.487q0-35.87,0-71.738a19.5,19.5,0,0,0-.034-2.01,4.914,4.914,0,0,0-6.927-4.021,5.1,5.1,0,0,0-2.905,5.055Q891.551,180.634,891.524,198.82Z" fill="#fff"/>
  </g>
</svg>
