<svg xmlns="http://www.w3.org/2000/svg" xmlns:xlink="http://www.w3.org/1999/xlink" width="803.303" height="274.813" viewBox="0 0 803.303 274.813">
  <defs>
    <linearGradient id="linear-gradient" x1="0.006" y1="0.499" x2="1.001" y2="0.499" gradientUnits="objectBoundingBox">
      <stop offset="0.001" stop-color="#ec6963"/>
      <stop offset="1" stop-color="#e73d7d"/>
    </linearGradient>
    <linearGradient id="linear-gradient-2" x1="0" y1="0.5" x2="1" y2="0.5" xlink:href="#linear-gradient"/>
  </defs>
  <g id="Group_3" data-name="Group 3" transform="translate(-159.097 -1376.803)">
    <path id="Path_1" data-name="Path 1" d="M302.524,1382.186l-29.352,89.722h-22.3l-19.739-60.755-20.38,60.755H188.577l-29.48-89.722h21.534l20.251,63.062,21.148-63.062h19.227l20.508,63.574,20.892-63.574Z" fill="#303151"/>
    <path id="Path_2" data-name="Path 2" d="M374.693,1443.069H322.526c1.923,8.588,9.229,13.843,19.74,13.843,7.305,0,12.56-2.179,17.3-6.665l10.638,11.535c-6.408,7.307-16.021,11.151-28.454,11.151-23.841,0-39.35-15-39.35-35.5,0-20.635,15.766-35.5,36.787-35.5,20.251,0,35.888,13.586,35.888,35.76C375.078,1439.223,374.821,1441.4,374.693,1443.069Zm-52.422-11.664h33.965c-1.41-8.716-7.946-14.355-16.918-14.355C330.217,1417.05,323.68,1422.561,322.271,1431.405Z" fill="#303151"/>
    <path id="Path_3" data-name="Path 3" d="M388.412,1376.8h20v95.1h-20Z" fill="#303151"/>
    <path id="Path_4" data-name="Path 4" d="M421.867,1437.429c0-20.764,16.022-35.5,38.452-35.5,14.484,0,25.892,6.281,30.89,17.56l-15.509,8.331c-3.716-6.537-9.228-9.485-15.508-9.485-10.126,0-18.073,7.05-18.073,19.1s7.947,19.1,18.073,19.1c6.28,0,11.792-2.819,15.508-9.485l15.509,8.46c-5,11.022-16.406,17.431-30.89,17.431C437.889,1472.933,421.867,1458.193,421.867,1437.429Z" fill="#303151"/>
    <path id="Path_5" data-name="Path 5" d="M496.725,1437.429c0-20.764,16.021-35.5,37.939-35.5s37.812,14.74,37.812,35.5-15.894,35.5-37.812,35.5S496.725,1458.193,496.725,1437.429Zm55.5,0c0-11.92-7.562-19.1-17.56-19.1s-17.688,7.178-17.688,19.1,7.691,19.1,17.688,19.1S552.224,1449.349,552.224,1437.429Z" fill="#303151"/>
    <path id="Path_6" data-name="Path 6" d="M702.32,1432.43v39.478H682.325v-36.4c0-11.152-5-16.279-13.074-16.279-8.972,0-15.252,5.769-15.252,18.073v34.607H634v-36.4c0-11.152-4.742-16.279-13.073-16.279-8.844,0-15.125,5.769-15.125,18.073v34.607H585.81V1402.95h19.1v7.947c5.127-5.9,12.818-8.972,21.661-8.972,9.614,0,17.817,3.717,22.687,11.279,5.512-7.049,14.483-11.279,24.866-11.279C690.528,1401.925,702.32,1411.41,702.32,1432.43Z" fill="#303151"/>
    <path id="Path_7" data-name="Path 7" d="M788.2,1443.069H736.036c1.923,8.588,9.229,13.843,19.74,13.843,7.3,0,12.56-2.179,17.3-6.665l10.638,11.535c-6.408,7.307-16.022,11.151-28.454,11.151-23.841,0-39.35-15-39.35-35.5,0-20.635,15.766-35.5,36.786-35.5,20.251,0,35.889,13.586,35.889,35.76C788.588,1439.223,788.331,1441.4,788.2,1443.069Zm-52.423-11.664h33.966c-1.41-8.716-7.946-14.355-16.919-14.355C743.727,1417.05,737.191,1422.561,735.78,1431.405Z" fill="#303151"/>
    <path id="Path_8" data-name="Path 8" d="M882.672,1468.575c-4.1,2.948-10.126,4.358-16.278,4.358-16.279,0-25.763-8.331-25.763-24.737V1419.87H829.992v-15.381h10.639V1387.7h19.995v16.791H877.8v15.381H860.626v28.069c0,5.9,3.2,9.1,8.588,9.1a13.475,13.475,0,0,0,8.074-2.564Z" fill="#303151"/>
    <path id="Path_9" data-name="Path 9" d="M886.649,1437.429c0-20.764,16.021-35.5,37.939-35.5s37.812,14.74,37.812,35.5-15.894,35.5-37.812,35.5S886.649,1458.193,886.649,1437.429Zm55.5,0c0-11.92-7.563-19.1-17.56-19.1s-17.688,7.178-17.688,19.1,7.691,19.1,17.688,19.1S942.148,1449.349,942.148,1437.429Z" fill="#303151"/>
    <path id="Path_10" data-name="Path 10" d="M244.8,1568.839c-.144,19.995-15.229,32.32-39.2,32.148l-18.072-.13-.177,24.737-20.764-.149.644-89.719,38.835.278C230.042,1536.176,244.949,1548.716,244.8,1568.839Zm-21.02-.151c.07-9.869-6.3-15.682-18.986-15.773l-16.918-.122-.224,31.146,16.919.121C217.265,1584.151,223.715,1578.43,223.785,1568.688Z" opacity="0.95" fill="url(#linear-gradient)"/>
    <path id="Path_11" data-name="Path 11" d="M325.089,1596.886H272.922c1.922,8.587,9.229,13.843,19.738,13.843,7.306,0,12.562-2.179,17.3-6.665L320.6,1615.6c-6.41,7.306-16.022,11.152-28.455,11.152-23.84,0-39.35-15-39.35-35.5,0-20.637,15.766-35.5,36.786-35.5,20.252,0,35.889,13.586,35.889,35.76C325.473,1593.041,325.217,1595.219,325.089,1596.886Zm-52.424-11.664h33.966c-1.409-8.715-7.946-14.355-16.918-14.355C280.612,1570.867,274.075,1576.379,272.665,1585.222Z" opacity="0.95" fill="url(#linear-gradient-2)"/>
    <path id="Path_12" data-name="Path 12" d="M383.283,1622.393c-4.1,2.948-10.125,4.358-16.277,4.358-16.278,0-25.764-8.331-25.764-24.738v-28.327H330.6v-15.381h10.638v-16.79h19.995v16.79h17.176v15.381H361.237v28.071c0,5.9,3.2,9.1,8.588,9.1a13.481,13.481,0,0,0,8.076-2.563Z" opacity="0.95" fill="url(#linear-gradient-2)"/>
    <path id="Path_13" data-name="Path 13" d="M437.505,1622.393c-4.1,2.948-10.126,4.358-16.278,4.358-16.279,0-25.763-8.331-25.763-24.738v-28.327H384.825v-15.381h10.639v-16.79h20v16.79h17.175v15.381H415.459v28.071c0,5.9,3.2,9.1,8.588,9.1a13.475,13.475,0,0,0,8.074-2.563Z" opacity="0.95" fill="url(#linear-gradient-2)"/>
    <path id="Path_14" data-name="Path 14" d="M515.95,1556.768,484.8,1629.955c-6.665,16.663-16.15,21.661-28.583,21.661-7.049,0-14.739-2.307-19.226-6.28l7.306-14.228a17.721,17.721,0,0,0,11.279,4.359c5.512,0,8.588-2.436,11.28-8.588l.256-.641-29.864-69.47h20.636l19.354,46.783,19.482-46.783Z" opacity="0.95" fill="url(#linear-gradient-2)"/>
  </g>
</svg>
