<svg xmlns="http://www.w3.org/2000/svg" width="1125" height="545.925" viewBox="0 0 1125 545.925">
  <g id="Group_93" data-name="Group 93" transform="translate(0 -106.16)">
    <path id="Path_2" data-name="Path 2" d="M614.9,403.479s-12.967-119.584,23.052-113.34-5.282,113.82-5.282,113.82c37.409-28.876,62.8,1.68,63.3,2.28l.518.654c86.986-86.986,218.163-12.135,218.163-12.135-.961-16.809,18.249-91.729,37.459-87.887s-17.769,97.972-17.769,97.972,48.025-116.7,73.959-100.373-59.071,112.86-59.071,112.86,111.9-114.3,140.234-66.756-113.34,95.571-113.34,95.571c8.164-.48,11.526,11.526,11.526,11.526,116.222,0,137.353,93.409,137.353,93.409H0l.171-.612s21.084-93.239,137.306-93.239c0,0,3.361-12.006,11.526-11.526,0,0-141.675-48.026-113.34-95.571S175.9,416.888,175.9,416.888s-85.005-96.532-59.071-112.86S190.785,404.4,190.785,404.4s-36.98-94.13-17.77-97.972,38.421,71.078,37.46,87.887c0,0,131.65-74.38,218.636,12.606,0,0,25.934-31.336,63.394-2.521,0,0-41.3-107.577-5.283-113.82s23.052,113.34,23.052,113.34,20.719-27.382,53.616-4.81C563.89,399.111,588.655,377.862,614.9,403.479Z" fill="#eceafd"/>
    <g id="Group_50" data-name="Group 50">
      <g id="Group_20" data-name="Group 20">
        <path id="Path_19" data-name="Path 19" d="M748.995,501.657a2.958,2.958,0,0,1-2.759-4.011c3.476-9.091,5.238-17.592,5.238-25.269a38.754,38.754,0,0,0-4.245-18.331,2.955,2.955,0,0,1,5.223-2.765,44.6,44.6,0,0,1,4.931,21.1c0,8.4-1.893,17.613-5.627,27.379A2.957,2.957,0,0,1,748.995,501.657Z" fill="#fff"/>
      </g>
      <g id="Group_49" data-name="Group 49">
        <g id="Group_21" data-name="Group 21">
          <path id="Path_20" data-name="Path 20" d="M783.234,536.76c-.164,0-.329-.007-.5-.021a5.816,5.816,0,0,1-5.306-6.284,47.4,47.4,0,0,0-10.414-34.082,43.245,43.245,0,0,0-30.03-16.17,44.493,44.493,0,0,0-14.012,1.089,5.816,5.816,0,0,1-2.681-11.318,56.121,56.121,0,0,1,17.671-1.361,53.631,53.631,0,0,1,21.338,6.436,56.342,56.342,0,0,1,16.737,13.985,58.969,58.969,0,0,1,12.981,42.4A5.817,5.817,0,0,1,783.234,536.76Z"/>
        </g>
        <g id="Group_28" data-name="Group 28">
          <g id="Group_23" data-name="Group 23">
            <path id="Path_21" data-name="Path 21" d="M433.725,510.655l-63.373,14.6a30.29,30.29,0,0,1-36.315-22.719L261.228,186.4a30.289,30.289,0,0,1,22.719-36.315l166.745-38.4A30.292,30.292,0,0,1,487.008,134.4l72.809,316.135A30.292,30.292,0,0,1,537.1,486.848L433.725,510.655Z" fill="#fff"/>
            <g id="Group_22" data-name="Group 22">
              <path id="Path_22" data-name="Path 22" d="M363.487,530.778a35.065,35.065,0,0,1-34.07-27.182L256.608,187.461a35.031,35.031,0,0,1,26.275-42l166.745-38.4a35.072,35.072,0,0,1,42,26.275l72.809,316.135a35.031,35.031,0,0,1-26.275,42l-166.746,38.4A35.286,35.286,0,0,1,363.487,530.778Zm94.006-415.134a25.577,25.577,0,0,0-5.737.654L285.011,154.7a25.547,25.547,0,0,0-19.163,30.631l72.809,316.135a25.549,25.549,0,0,0,30.631,19.163l63.373-14.6,1.064,4.62-1.064-4.62,103.372-23.807A25.548,25.548,0,0,0,555.2,451.6L482.387,135.461A25.594,25.594,0,0,0,457.493,115.644Z"/>
            </g>
          </g>
          <g id="Group_24" data-name="Group 24">
            <path id="Path_23" data-name="Path 23" d="M430.96,141.562a5.467,5.467,0,0,1-1.222-10.794l19.572-4.508a5.466,5.466,0,1,1,2.454,10.654l-19.572,4.507A5.494,5.494,0,0,1,430.96,141.562Z"/>
          </g>
          <g id="Group_27" data-name="Group 27">
            <path id="Path_24" data-name="Path 24" d="M470.655,148.767,495.971,258.69a5.477,5.477,0,0,1-4.1,6.553L314.084,306.189a5.478,5.478,0,0,1-6.554-4.1L282.214,192.167a5.467,5.467,0,0,1,4.1-6.554L464.1,144.667A5.466,5.466,0,0,1,470.655,148.767Z" fill="#e1e5e8"/>
            <path id="Path_25" data-name="Path 25" d="M492.541,289.351,321.714,328.694a5.466,5.466,0,0,1-2.454-10.654L490.087,278.7a5.466,5.466,0,0,1,2.454,10.654Z" fill="#e1e5e8"/>
            <path id="Path_26" data-name="Path 26" d="M371.3,340.373l-43.87,10.1a5.466,5.466,0,0,1-2.454-10.654l43.87-10.1a5.466,5.466,0,1,1,2.454,10.654Z" fill="#e1e5e8"/>
            <rect id="Rectangle_6" data-name="Rectangle 6" width="193.374" height="123.732" rx="12.808" transform="translate(354.522 179.98) rotate(-12.97)" fill="#1c8bed"/>
            <g id="Group_25" data-name="Group 25">
              <path id="Path_27" data-name="Path 27" d="M379.808,320.526a14.47,14.47,0,0,1-14.074-11.2l-22.02-95.613a14.442,14.442,0,0,1,10.833-17.316l163.478-37.651a14.461,14.461,0,0,1,17.317,10.833l22.02,95.614a14.479,14.479,0,0,1-10.833,17.315L383.051,320.156A14.447,14.447,0,0,1,379.808,320.526Zm141.46-158.883a11.2,11.2,0,0,0-2.509.286L355.281,199.58a11.173,11.173,0,0,0-8.381,13.4l22.021,95.613a11.184,11.184,0,0,0,13.4,8.38L545.8,279.319a11.211,11.211,0,0,0,8.38-13.395L532.155,170.31A11.194,11.194,0,0,0,521.268,161.643Z"/>
            </g>
            <path id="Rectangle_7" data-name="Rectangle 7" d="M11.806,0H157.619a11.805,11.805,0,0,1,11.805,11.805V96.6a11.805,11.805,0,0,1-11.805,11.805H11.806A11.806,11.806,0,0,1,0,96.6v-84.8A11.806,11.806,0,0,1,11.806,0Z" transform="translate(250.263 389.488) rotate(-12.97)" fill="#ffcf0d"/>
            <g id="Group_26" data-name="Group 26">
              <path id="Path_28" data-name="Path 28" d="M295.537,478.715a13.26,13.26,0,0,1-12.9-10.268l-19.032-82.633a13.255,13.255,0,0,1,9.93-15.872l142.093-32.725a13.236,13.236,0,0,1,15.871,9.929l19.032,82.633A13.253,13.253,0,0,1,440.6,445.65L298.509,478.376A13.255,13.255,0,0,1,295.537,478.715ZM418.619,339.74a10.429,10.429,0,0,0-2.347.269L274.179,372.734a10.386,10.386,0,0,0-7.781,12.437L285.43,467.8a10.366,10.366,0,0,0,12.436,7.78L439.96,442.859a10.386,10.386,0,0,0,7.78-12.437l-19.031-82.633a10.386,10.386,0,0,0-10.09-8.049Z"/>
            </g>
          </g>
        </g>
        <g id="Group_29" data-name="Group 29">
          <path id="Path_29" data-name="Path 29" d="M746.535,602.591a5.816,5.816,0,0,1-5.816-5.815,16.477,16.477,0,0,0-.724-3.679l-.014-.053A48.505,48.505,0,0,1,722,596.338a58.873,58.873,0,0,1-41.812-16.989c-10.474-10.187-17.844-24.13-21.313-40.319a5.816,5.816,0,1,1,11.373-2.437c6.263,29.228,26.577,48.114,51.752,48.114a35.139,35.139,0,0,0,19.873-5.714,5.816,5.816,0,0,1,8.743,6.678,2.333,2.333,0,0,0-.1.75,16.477,16.477,0,0,0,.724,3.679,25.406,25.406,0,0,1,1.116,6.676A5.815,5.815,0,0,1,746.535,602.591Z"/>
        </g>
        <g id="Group_30" data-name="Group 30">
          <path id="Path_30" data-name="Path 30" d="M566.614,652.085a58.833,58.833,0,0,1-6.1-.448,60.4,60.4,0,0,0-6.045-.448,12.568,12.568,0,0,0-2.383.187,5.815,5.815,0,1,1-2.281-11.4,23.664,23.664,0,0,1,4.664-.413,69.74,69.74,0,0,1,7.279.514c1.534.164,3,.32,4.188.367,1.234-5.963,2.356-12.044,3.445-17.948,5.411-29.345,11.007-59.689,31.783-84.132a5.816,5.816,0,1,1,8.862,7.533c-18.764,22.075-23.836,49.584-29.207,78.708-1.261,6.839-2.565,13.911-4.053,20.854a8.015,8.015,0,0,1-4.97,5.783A13.585,13.585,0,0,1,566.614,652.085Z"/>
        </g>
        <g id="Group_31" data-name="Group 31">
          <path id="Path_31" data-name="Path 31" d="M508.639,546.964a69,69,0,0,1-24.572-4.436c-15.412-5.837-28.967-17.5-38.168-32.833a5.816,5.816,0,0,1,9.974-5.984c7.118,11.864,34.5,48.561,88.03,22.661a5.815,5.815,0,0,1,5.065,10.469c-12.078,5.845-23.96,9.194-35.314,9.954Q511.132,546.965,508.639,546.964Z"/>
        </g>
        <path id="Path_32" data-name="Path 32" d="M622.45,585.922a13.3,13.3,0,0,1-16.809-.464C563.3,548.907,495.609,487.875,491.778,437.321c-3.488-46.016,27.476-68.93,52.1-70.8s47.045,15.8,60.215,37.813a9.258,9.258,0,0,0,15.907.018c12.9-21.849,35.653-37.9,60.318-39.769,31.318-2.374,65.265,19.2,68.4,60.531,1.286,16.967-1.829,35.546-11.517,50.454C706.179,523.3,655.58,560.381,622.45,585.922Z" fill="#ed1c24"/>
        <g id="Group_32" data-name="Group 32">
          <path id="Path_33" data-name="Path 33" d="M762.043,441.756c-.061,0-.123,0-.185-.008a2.114,2.114,0,0,1-1.924-2.29c.4-4.592.586-8.407.586-12.005,0-11.466-2.062-20.647-6.3-28.066a2.115,2.115,0,1,1,3.672-2.1c4.615,8.076,6.858,17.943,6.858,30.165,0,3.723-.191,7.654-.6,12.372A2.115,2.115,0,0,1,762.043,441.756Z"/>
        </g>
        <g id="Group_33" data-name="Group 33">
          <path id="Path_34" data-name="Path 34" d="M773.989,427.864a2.114,2.114,0,0,1-2.114-2.115,43.038,43.038,0,0,0-.508-5.774,46.9,46.9,0,0,1-.545-6.333,2.115,2.115,0,1,1,4.229,0,43.028,43.028,0,0,0,.508,5.774,46.91,46.91,0,0,1,.545,6.333A2.115,2.115,0,0,1,773.989,427.864Z"/>
        </g>
        <g id="Group_34" data-name="Group 34">
          <path id="Path_35" data-name="Path 35" d="M703.451,354.7a2.114,2.114,0,0,1-2.111-2.025L699.761,315.3a2.114,2.114,0,0,1,4.225-.179l1.579,37.374a2.113,2.113,0,0,1-2.023,2.2C703.512,354.7,703.481,354.7,703.451,354.7Z"/>
        </g>
        <g id="Group_35" data-name="Group 35">
          <path id="Path_36" data-name="Path 36" d="M717.138,355.749a2.116,2.116,0,0,1-1.937-2.963l7.37-16.845a2.115,2.115,0,1,1,3.875,1.695l-7.37,16.845A2.115,2.115,0,0,1,717.138,355.749Z"/>
        </g>
        <g id="Group_36" data-name="Group 36">
          <path id="Path_37" data-name="Path 37" d="M726.616,364.7a2.115,2.115,0,0,1-.979-3.991L750.9,347.547a2.115,2.115,0,0,1,1.954,3.751l-25.267,13.16A2.111,2.111,0,0,1,726.616,364.7Z"/>
        </g>
        <g id="Group_37" data-name="Group 37">
          <path id="Path_38" data-name="Path 38" d="M479.206,453.131a2.116,2.116,0,0,1-2.076-1.725,121.719,121.719,0,0,1-2.229-22.258c0-10.463,1.478-17.246,4.392-20.16a2.115,2.115,0,0,1,2.99,2.991c-1.974,1.974-3.152,8.392-3.152,17.169a117.48,117.48,0,0,0,2.156,21.478A2.115,2.115,0,0,1,479.6,453.1,2.194,2.194,0,0,1,479.206,453.131Z"/>
        </g>
        <g id="Group_45" data-name="Group 45">
          <g id="Group_41" data-name="Group 41">
            <g id="Group_38" data-name="Group 38">
              <path id="Path_39" data-name="Path 39" d="M540.075,403.018a1.94,1.94,0,0,1-1.381-3.3,14.479,14.479,0,0,1,11.2-3.821,12.265,12.265,0,0,1,7.006,2.673,1.94,1.94,0,1,1-2.49,2.976,8.539,8.539,0,0,0-4.813-1.781,10.663,10.663,0,0,0-8.143,2.678A1.937,1.937,0,0,1,540.075,403.018Z"/>
            </g>
            <ellipse id="Ellipse_1" data-name="Ellipse 1" cx="8.786" cy="13.723" rx="8.786" ry="13.723" transform="matrix(0.076, -0.997, 0.997, 0.076, 522.352, 475.564)" fill="#ff5c62"/>
            <g id="Group_39" data-name="Group 39">
              <path id="Path_40" data-name="Path 40" d="M545.6,439.6q-1.223,0-2.438-.093c-8.356-.639-15.367-4.526-19.743-10.945a5.357,5.357,0,0,1,8.853-6.035,15.085,15.085,0,0,0,11.707,6.3,23.353,23.353,0,0,0,16.047-4.962,5.357,5.357,0,1,1,6.808,8.272A33.981,33.981,0,0,1,545.6,439.6Z"/>
            </g>
            <g id="Group_40" data-name="Group 40">
              <path id="Path_41" data-name="Path 41" d="M668.465,449.732q-1.184,0-2.385-.092a33.489,33.489,0,0,1-15.957-5.559,30.781,30.781,0,0,1-11.147-12.935,5.357,5.357,0,1,1,9.779-4.379c2.995,6.69,10.286,11.589,18.142,12.19a17.287,17.287,0,0,0,11.313-2.875,5.357,5.357,0,0,1,6.1,8.807A27.543,27.543,0,0,1,668.465,449.732Z"/>
            </g>
          </g>
          <g id="Group_43" data-name="Group 43">
            <g id="Group_42" data-name="Group 42">
              <path id="Path_42" data-name="Path 42" d="M667.664,408.442a2.114,2.114,0,0,1-1.24-3.828c3.71-2.682,7.995-2.7,10.895-2.475,1.691.129,3.366.387,4.986.636.676.1,1.314.2,1.952.291a2.115,2.115,0,0,1-.586,4.189c-.666-.093-1.348-.2-2.008-.3-1.542-.237-3.137-.483-4.667-.6-3.6-.276-6.1.244-8.094,1.686A2.111,2.111,0,0,1,667.664,408.442Z"/>
            </g>
            <ellipse id="Ellipse_2" data-name="Ellipse 2" cx="9.578" cy="14.961" rx="9.578" ry="14.961" transform="translate(657.574 488.582) rotate(-85.624)" fill="#ff5c62"/>
          </g>
          <g id="Group_44" data-name="Group 44">
            <path id="Path_43" data-name="Path 43" d="M607.743,504.626q-.574,0-1.15-.044c-5.76-.441-10.181-4.556-12.785-11.9a47.645,47.645,0,0,1-2.246-18.215,1.94,1.94,0,1,1,3.868.3,43.5,43.5,0,0,0,2.035,16.623c2.081,5.871,5.252,9.01,9.424,9.329a13.7,13.7,0,0,0,10.756-4.542c2.5-2.607,5.619-7.453,6.253-15.74a32.7,32.7,0,0,0-.055-5.689,1.94,1.94,0,1,1,3.861-.381,36.525,36.525,0,0,1,.063,6.366c-.572,7.467-3.1,13.737-7.324,18.131A17.793,17.793,0,0,1,607.743,504.626Z"/>
          </g>
        </g>
        <g id="Group_48" data-name="Group 48">
          <path id="Path_44" data-name="Path 44" d="M617.739,330.455C600.248,324.282,594.03,306,594.03,300.023c0-3.837,1.611-6.971,5.878-6.971,6.514,0,9.986,6.952,13.44,11.787.911-4.555,3.434-10.4,7.8-10.4,2.747,0,3.88,6.461,3.88,9.282C625.025,312.642,618.854,321.538,617.739,330.455Z" fill="#ed1c24"/>
          <g id="Group_46" data-name="Group 46">
            <path id="Path_45" data-name="Path 45" d="M669.943,281.138a2.114,2.114,0,0,1-1.612-.746,46.528,46.528,0,0,1-10.016-20.107,38.115,38.115,0,0,1,1.661-22.489c1.3-3.214,2.96-6.81,5.422-9.116,2.811-2.632,6.175-3.183,10-1.636a11.642,11.642,0,0,1,7.041,7.5,30.347,30.347,0,0,1,.966,9.06c0,.716.006,1.417.023,2.093,6.343-5.243,14.483-11.49,20.623-9.006,2.313.935,4.469,3.647,5.626,7.077a16.343,16.343,0,0,1-.236,11.338c-4.712,11.653-22.579,19.124-35.624,24.58-1.06.443-2.08.869-3.049,1.28A2.113,2.113,0,0,1,669.943,281.138Zm1.459-50.721c-2.49,0-4.749,2.15-7.505,8.964-4.7,11.616-2.063,26.012,6.68,37.08l1.608-.673c11.661-4.877,29.284-12.246,33.335-22.264a12.2,12.2,0,0,0,.149-8.4c-.824-2.442-2.235-4.116-3.2-4.507-4.254-1.721-12.686,5.3-17.724,9.492-.58.482-1.134.943-1.659,1.374a2.115,2.115,0,0,1-3.4-1.141,29.954,29.954,0,0,1-.509-6.715c-.028-6.349-.416-10.66-5.364-12.661A6.478,6.478,0,0,0,671.4,230.417Z"/>
          </g>
          <g id="Group_47" data-name="Group 47">
            <path id="Path_46" data-name="Path 46" d="M506.051,347.522a50.987,50.987,0,0,1-14.053-2.4c-4.008-1.232-11.368-4.005-15.642-8.728a11.881,11.881,0,0,1-3.209-6.386,7.84,7.84,0,0,1,2.742-6.956c2.486-2.249,6.441-1.091,9.868.431a18.145,18.145,0,0,1-.236-4.386c.239-3.928,1.545-7.24,3.584-9.084a9.343,9.343,0,0,1,9.28-1.927,14.128,14.128,0,0,1,6.042,3.686,13.147,13.147,0,0,1,2.371,4.365q.094.246.193.5c2.349,6.028,2.361,12,2.373,17.776a72.993,72.993,0,0,0,.541,10.607,2.116,2.116,0,0,1-1.9,2.417C507.4,347.495,506.745,347.522,506.051,347.522Zm-26.574-21.49a1.232,1.232,0,0,0-.75.159,3.682,3.682,0,0,0-1.381,3.312,7.857,7.857,0,0,0,2.146,4.056c5.3,5.852,18.313,9.571,25.944,9.734-.29-3.027-.3-5.987-.3-8.87-.011-5.635-.022-10.957-2.084-16.248l-.2-.517a9.584,9.584,0,0,0-1.559-3.045,10.052,10.052,0,0,0-4.12-2.472,5.069,5.069,0,0,0-5.228,1.011c-1.19,1.076-2.033,3.454-2.2,6.2-.17,2.8.431,5.033,1.113,5.786.727.8,2.082,2.3.9,3.857-.5.651-1.458,1.268-3.24.5-.46-.2-1.037-.486-1.706-.82a36.2,36.2,0,0,0-5.224-2.264A7.484,7.484,0,0,0,479.477,326.032Z"/>
          </g>
        </g>
        <path id="Path_47" data-name="Path 47" d="M456.454,253.8c-13.322-3.806-28.728-15.411-28.728-30.151,0-10.1,8.723-14.205,13.673-14.205,10.251,0,12.425,14.87,12.425,10.077,0-9.711,11.362-14.433,15.048-14.433,6.667,0,11.483,3.644,11.483,12.063,0,11.856-9.676,23.877-18.093,32.294A23.145,23.145,0,0,1,456.454,253.8Z" fill="#fff"/>
        <path id="Path_48" data-name="Path 48" d="M350.835,439.637c-9.363-4.477-30.307-16.047-30.307-26.314a7.747,7.747,0,0,1,8.167-7.8c14.049,0,16.186,15.512,16.186,10.692,0-2.836,6.385-15.431,15.859-15.431,3.782,0,4.816,4.431,4.816,8.251a34.239,34.239,0,0,1-2.744,10.28C359.076,426.517,354.464,432.741,350.835,439.637Z" fill="#fff"/>
      </g>
    </g>
  </g>
</svg>
