<?xml version="1.0" encoding="utf-8"?>
<!-- Generator: Adobe Illustrator 24.0.1, SVG Export Plug-In . SVG Version: 6.00 Build 0)  -->
<svg version="1.1" id="Layer_1" xmlns="http://www.w3.org/2000/svg" xmlns:xlink="http://www.w3.org/1999/xlink" x="0px" y="0px"
	 viewBox="0 0 293.8 410.5" style="enable-background:new 0 0 293.8 410.5;" xml:space="preserve">
<path style="fill:#EF598D" d="M158.7,12.4c5,0.9,10.1,1.8,15.1,2.8c54.9,11.4,97.5,55.7,106,111.1c5.7,37.6-2.9,71.9-25.5,102.5
	c-23.7,31.9-47.5,63.6-71.3,95.3c-8.8,11.7-20.6,18-35.2,18.3c-14.8,0.3-27.2-5.4-36.1-17.1C86.1,291.7,60.4,258.4,36,224.1
	C-13.7,154,16.6,53.8,96.4,22.2c11.5-4.6,23.4-7.6,35.7-9c0.6-0.1,1.2-0.5,1.8-0.8C142.2,12.4,150.4,12.4,158.7,12.4z M41.9,151.2
	c0.2,19.9,7.4,41.1,21.6,60c23.3,31,46.5,62.1,69.7,93.2c8.1,10.9,18.9,10.8,27.1-0.1c23.2-30.9,46.4-61.9,69.5-92.9
	c18-24.1,24.9-51,20.3-80.8c-8.6-55.8-61.9-95.4-117.6-87.3C80.3,50.9,41.9,95,41.9,151.2z"/>
<path style="fill:#EF598D" d="M82.3,396.4c-0.9-0.6-1.7-1.3-2.6-1.8c-6-3.4-9-10.1-7.5-16.5c1.7-6.9,7.2-11.6,14.2-11.7
	c40.1-0.1,80.3-0.1,120.4,0c7.2,0,13.1,5.2,14.5,12.3c1.3,6.5-2.3,13.3-8.6,16.3c-0.8,0.4-1.6,0.9-2.4,1.4
	C167.6,396.4,125,396.4,82.3,396.4z"/>
<path style="fill:#EF598D" d="M101.8,147.4c0-24.8,20.3-45,45-45c24.7,0,44.9,20.4,44.8,45.2c-0.1,24.6-20.2,44.8-44.8,44.8
	C122.1,192.5,101.8,172.2,101.8,147.4z M131.7,147.2c-0.1,8.3,6.5,15.1,14.8,15.2c8.2,0.1,15.1-6.6,15.2-14.8
	c0.1-8.3-6.5-15.1-14.8-15.2C138.6,132.3,131.8,139,131.7,147.2z"/>
</svg>
