<?xml version="1.0" encoding="utf-8"?>
<!-- Generator: Adobe Illustrator 24.0.1, SVG Export Plug-In . SVG Version: 6.00 Build 0)  -->
<svg version="1.1" id="Layer_1" xmlns="http://www.w3.org/2000/svg" xmlns:xlink="http://www.w3.org/1999/xlink" x="0px" y="0px"
	 viewBox="0 0 205 167" style="enable-background:new 0 0 205 167;" xml:space="preserve">

<rect x="1334" y="900" class="st0" width="979" height="915"/>
<g>
	<path style="fill-rule:evenodd;clip-rule:evenodd;fill:#FFFFFF;" d="M14,18l-6-1l4-5l-1-5l5,3l6-3l-1,6l4,5h-6l-4,6L14,18z"/>
	<path style="fill-rule:evenodd;clip-rule:evenodd;fill:#FFFFFF;" d="M188,101h5l3-3v5l3,3h-5l-3,3v-5L188,101z"/>
	<circle style="fill-rule:evenodd;clip-rule:evenodd;fill:#F7EC3A;" cx="146" cy="126" r="36"/>
	<path style="fill-rule:evenodd;clip-rule:evenodd;" d="M147,144.3c2.7,0,4.9-1.9,5.4-4.4h-10.7C142.2,142.4,144.4,144.3,147,144.3z M160.8,133.4c0,0-2-1.6-3-4.9
				c-0.8-2.6-0.2-4.5-0.3-5.9c-0.2-5.1-1.5-6.6-3.7-8.8c-2-2-5.3-2.4-5.3-2.4l-0.1-2.1c0,0-0.7-1-1.4-1c-0.6,0-1.3,1-1.3,1l-0.1,2
				c0,0-3.6,0.6-5.7,2.7c-5,4.9-2.6,7.8-3.7,14.5c-0.5,3.1-2.7,4.7-2.7,4.7s-1.6,0.9-1.4,3c0.1,1.7,2,2,2,2l24.7,0.1
				c0,0,2.2,0.4,3-1.6C162.7,134.5,160.8,133.4,160.8,133.4z"/>

</g>
</svg>
