<svg xmlns="http://www.w3.org/2000/svg" width="47.078" height="63.828" viewBox="0 0 47.078 63.828">
  <g id="Group_72" data-name="Group 72" transform="translate(-209.815 -749.493)">
    <path id="Path_82" data-name="Path 82" d="M212.2,813.321c-2.314-1.583-2.773-2.655-2.1-5.172q4.84-18.009,9.7-36.014c.441-1.645,1.186-2.977,2.99-3.295a3.27,3.27,0,0,1,3.828,1.816,2.153,2.153,0,0,0,2.356,1.315c4.745-.04,9.49-.025,14.235-.012,2.2.006,3.273.865,3.252,2.546-.021,1.664-1.124,2.558-3.291,2.567-5.1.02-10.194.057-15.289-.022a2.053,2.053,0,0,0-2.417,1.868c-.516,2.286-1.191,4.537-1.834,6.792a5.636,5.636,0,0,0,.117,3.108c1.706,6.343,3.379,12.694,5.068,19.041.735,2.76.421,3.71-1.834,5.462h-2.815a5.427,5.427,0,0,1-2.366-3.54c-.62-2.657-1.392-5.278-2.1-7.915a55.09,55.09,0,0,0-2.474,7.864,5.191,5.191,0,0,1-2.563,3.591Z" fill="#007dff"/>
    <path id="Path_83" data-name="Path 83" d="M220.64,763.938a5.769,5.769,0,0,1-.146,2.606q-3.371,12.39-6.7,24.793a6.3,6.3,0,0,1-.238.846c-.3.7-.749,1.27-1.6.977-.812-.279-.95-.962-.744-1.732q1.044-3.909,2.1-7.816,4.181-15.543,8.36-31.086c.8-2.986.851-3.035,3.934-3.033q14.146.009,28.293.029c1.109,0,2.266-.092,3,1.033v.705c-.778.967-1.872.863-2.916.806-1.129-.061-1.573.375-1.551,1.529.049,2.581.018,5.164-.01,7.746-.009.773.088,1.349,1.01,1.559a1.433,1.433,0,0,1,1.062,1.783c-.425,1.79-.276,3.62-.558,5.42-.233,1.491-1.2,1.3-2.188,1.351-1.1.059-1.81-.264-1.908-1.494-.138-1.752-.332-3.5-.5-5.25-.059-.623.1-1.386.6-1.555,1.544-.528,1.3-1.732,1.309-2.875.007-2.171-.033-4.343.009-6.513.023-1.151-.327-1.711-1.6-1.706q-11.949.051-23.9-.011a1.592,1.592,0,0,0-1.778,1.489c-.332,1.487-.621,3-1.9,4.045C220.126,759.367,220.467,761.672,220.64,763.938Z" fill="#007dff"/>
    <path id="Path_84" data-name="Path 84" d="M220.64,763.938c-.173-2.266-.514-4.571,1.441-6.354a11.572,11.572,0,0,1,3.337-1.465,5.9,5.9,0,0,1,6.516,4.127,5.978,5.978,0,0,1-3.166,7.038,5.918,5.918,0,0,1-7.394-2.154C221.115,764.743,220.884,764.336,220.64,763.938Z" fill="#007dff"/>
  </g>
</svg>
