<svg xmlns="http://www.w3.org/2000/svg" width="37.953" height="61.227" viewBox="0 0 37.953 61.227">
  <g id="Group_73" data-name="Group 73" transform="translate(-653.846 -747.873)">
    <path id="Path_85" data-name="Path 85" d="M671.092,809.08a43.782,43.782,0,0,1-10.5-.772c-3-.674-3.265-1.119-2.373-3.983a41.334,41.334,0,0,1,4.523-9.718,3.55,3.55,0,0,0,.018-4.281,18.52,18.52,0,0,1-2.222-15.2c.422-1.531,1.088-2.2,2.788-1.631a6.287,6.287,0,0,0,3.652.4c2.773-.807,5.081.049,7.3,1.585,1.543,1.065,3.149,1.295,4.667-.023,1.391-1.206,1.307-2.715.724-4.3-.383-1.039-.715-2.1-1.038-3.155-.288-.942-.109-1.592,1.076-1.4a35.489,35.489,0,0,1,9.728,2.807c1.612.773,1.883,2.016.691,3.308a3.576,3.576,0,0,0-.906,2.977,37.531,37.531,0,0,1-.315,5.054,5.415,5.415,0,0,0,1.987,5.041c1.461,1.159,1,2.08-.368,2.811-.956.512-1.664,1-1.023,2.24a2.208,2.208,0,0,1-.276,1.884,37.279,37.279,0,0,0-2.087,4.506c-.279.937-1.353.979-2.195.845-1.539-.244-3.061-.6-4.584-.941-.8-.177-1.6-.311-2.093.519-.532.89.118,1.453.689,2a28.835,28.835,0,0,1,4.164,4.383c1.737,2.557,1.4,3.478-1.548,4.2A40.588,40.588,0,0,1,671.092,809.08Z" fill="#9a59ed"/>
    <path id="Path_86" data-name="Path 86" d="M679.2,760.81a6.639,6.639,0,0,1-.579,3.6,6.164,6.164,0,0,0-.068,5.945,7.7,7.7,0,0,1,.594,2.255c.194,1.981-1.672,3.707-3.156,2.632-3.647-2.645-7.721-1.855-11.688-2.382-6.807-.906-11.18-7.212-10.362-14.214.744-6.377,6.789-11.135,13.66-10.751C674.059,748.255,679.223,753.905,679.2,760.81Zm-3.368,11.817.383-.678c-.392-1.224-.747-2.461-1.189-3.667a3.547,3.547,0,0,1,.224-2.978c3.685-7.58-1.295-15.053-9.674-14.576a9.789,9.789,0,0,0-9.078,9.721c-.016,5.19,4.082,9.737,9.189,9.753C669.266,770.214,672.927,769.231,675.835,772.627Z" fill="#9a59ed"/>
    <path id="Path_87" data-name="Path 87" d="M670.27,759.232c1.509-.01,2.966-.416,2.97,1.406,0,1.644-1.278,2.012-2.608,1.88-1.972-.2-2.78.546-2.491,2.533.161,1.1.024,2.242-1.392,2.3a1.925,1.925,0,0,1-2.163-2.2c.2-2.238-.784-2.881-2.823-2.621-1.161.147-2.181-.228-2.151-1.595a1.751,1.751,0,0,1,2.272-1.769c2.3.428,2.884-.6,2.668-2.65-.133-1.266.519-2.034,1.826-1.915,1.232.112,2.2.783,1.939,2.153C667.935,758.78,668.535,759.656,670.27,759.232Z" fill="#9a59ed"/>
  </g>
</svg>
