<svg xmlns="http://www.w3.org/2000/svg" width="73.497" height="55.571" viewBox="0 0 73.497 55.571">
  <g id="Group_18" data-name="Group 18" transform="translate(-141.808 -1106.469)">
    <path id="Path_28" data-name="Path 28" d="M170.64,1106.48a32.723,32.723,0,0,1,9.823,1.329,29.924,29.924,0,0,1,11.019,5.741,23.118,23.118,0,0,1,6.5,8.418,19.452,19.452,0,0,1,1.686,6.908,20.076,20.076,0,0,1-4.745,14.032,26.73,26.73,0,0,1-8.885,7.023,32.413,32.413,0,0,1-9.782,3.122,32.783,32.783,0,0,1-10.04.1c-.6-.092-1.213-.151-1.81-.282a.752.752,0,0,0-.569.1,28.53,28.53,0,0,1-9.007,3.263,51.81,51.81,0,0,1-6,.75c-1.083.083-2.169.02-3.25.127-.136.014-.295.039-.374-.1-.1-.171.058-.282.15-.4a36.055,36.055,0,0,0,4.458-6.976c.326-.673.606-1.368.922-2.046a.571.571,0,0,0-.19-.815,23.47,23.47,0,0,1-4.795-4.954,20.008,20.008,0,0,1-3.939-11.378,19.553,19.553,0,0,1,2.119-9.377,23.372,23.372,0,0,1,5.618-7.113,30.142,30.142,0,0,1,13.013-6.546A30.64,30.64,0,0,1,170.64,1106.48Z" fill="#00b1ff"/>
    <path id="Path_29" data-name="Path 29" d="M215.3,1139.994a18.733,18.733,0,0,1-4.372,12.437,16.543,16.543,0,0,1-2.208,2.32.423.423,0,0,0-.107.6,29.8,29.8,0,0,0,2.74,4.547c.377.519.778,1.02,1.167,1.53.08.106.222.2.15.355s-.237.125-.37.119c-1.22-.058-2.441-.109-3.66-.186a36.878,36.878,0,0,1-5.928-.887c-.791-.182-1.566-.414-2.341-.648a1.007,1.007,0,0,0-.668-.012,31.528,31.528,0,0,1-11.835,1.855,30.835,30.835,0,0,1-10.139-2.079c-.107-.041-.279-.053-.256-.209s.191-.127.3-.146a39.128,39.128,0,0,0,7.421-2.006,36.578,36.578,0,0,0,10.4-5.976,31.293,31.293,0,0,0,6.734-7.624,26.433,26.433,0,0,0,3.79-10.145,24.917,24.917,0,0,0-.193-8.705c-.046-.228-.208-.54.006-.68s.4.162.571.291a21.82,21.82,0,0,1,6.887,7.909A16.1,16.1,0,0,1,215.3,1139.994Z" fill="#00b1ff"/>
  </g>
</svg>
