<svg xmlns="http://www.w3.org/2000/svg" width="52.426" height="64.601" viewBox="0 0 52.426 64.601">
  <g id="_7nWCHq.tif" data-name="7nWCHq.tif" transform="translate(-79.608 -2361.115)">
    <g id="Group_65" data-name="Group 65">
      <path id="Path_79" data-name="Path 79" d="M100.882,2361.122c5.58.028,10.272.69,14.685,2.7,4.027,1.83,7.241,4.535,8.8,8.831.447,1.235.707,2.537,1.057,3.807a45.7,45.7,0,0,0,2.1,5.933,4.45,4.45,0,0,1-.021,3.822,8.4,8.4,0,0,0-.372.955,3.158,3.158,0,0,0,.4,2.921,49.7,49.7,0,0,0,3.605,4.521,4.774,4.774,0,0,1,.616.813,1.52,1.52,0,0,1-.632,2.3,17.375,17.375,0,0,1-1.726.8c-.972.422-1.205.89-.854,1.905a5.618,5.618,0,0,0,.583,1.177,1.691,1.691,0,0,1-.161,2.273.953.953,0,0,0-.148,1.239c.6,1.211.43,1.788-.775,2.471a2.266,2.266,0,0,0-1.225,2.16,10.917,10.917,0,0,1-.252,2.763,3.093,3.093,0,0,1-3.231,2.634,24.2,24.2,0,0,1-3.219-.086c-2.634-.258-4.736.518-6.032,3.026a39.975,39.975,0,0,0-2.384,5.5,2.627,2.627,0,0,1-2.98,2.131,40.1,40.1,0,0,1-17.974-4.39,18.734,18.734,0,0,0-6.4-1.991c-1.291-.142-1.512-.779-.711-1.824a20.173,20.173,0,0,0,4.206-9.694,9.616,9.616,0,0,0-1.177-5.573c-1.2-2.482-2.54-4.9-3.728-7.389a33.677,33.677,0,0,1-3.273-12.6,20.249,20.249,0,0,1,1.257-8.906,18.491,18.491,0,0,1,10.243-10.237A23.3,23.3,0,0,1,100.882,2361.122Zm-5.275,19.729c0,1.075,0,2.149,0,3.223a.94.94,0,0,1-.559,1.013.922.922,0,0,1-1.1-.348,6,6,0,0,0-.447-.483,2.9,2.9,0,0,0-3.262-.507,3.038,3.038,0,0,0-1.651,2.733,2.96,2.96,0,0,0,2.091,2.643,2.828,2.828,0,0,0,3.233-1.1.908.908,0,0,1,1.691.567c0,.2,0,.391,0,.586,0,1.953,0,3.906,0,5.86,0,.405.042.739.565.739,2.27,0,4.541,0,6.811,0a.666.666,0,0,0,.724-.5.789.789,0,0,0-.3-.844,5.358,5.358,0,0,1-.682-.659,2.97,2.97,0,0,1-.022-3.781,3.05,3.05,0,1,1,4.236,4.313c-.312.274-.583.54-.433.992.157.472.56.481.962.481,2.124,0,4.249-.011,6.373.014.586.006.756-.225.749-.783-.023-2.027-.011-4.053-.009-6.08,0-.446.029-.916-.48-1.123-.545-.223-.841.154-1.162.515a3.045,3.045,0,1,1-4.35-4.235,3.016,3.016,0,0,1,4.42.369c.274.326.531.686,1.025.509s.553-.622.552-1.086c-.005-2.051-.022-4.1.01-6.152.01-.641-.2-.852-.843-.841-1.928.034-3.858.018-5.786.009-.6,0-1.286.14-1.594-.584s.33-1.026.735-1.423a2.923,2.923,0,0,0,.649-3.307,2.893,2.893,0,0,0-2.681-1.71,2.939,2.939,0,0,0-2.692,1.921,2.814,2.814,0,0,0,.991,3.326,1.07,1.07,0,0,1,.523.98.838.838,0,0,1-.639.727,2.818,2.818,0,0,1-.723.072c-2,0-4,.026-6.006-.011-.68-.013-.973.156-.932.892C95.648,2378.8,95.605,2379.826,95.607,2380.851Z" fill="#007dff"/>
    </g>
  </g>
</svg>
