<svg xmlns="http://www.w3.org/2000/svg" width="77.229" height="56.294" viewBox="0 0 77.229 56.294">
  <g id="v9xVvd" transform="translate(-574.676 -2002.639)">
    <g id="Group_46" data-name="Group 46">
      <path id="Path_55" data-name="Path 55" d="M600.1,2026.089a63.75,63.75,0,0,1,1.75-15.069,22.869,22.869,0,0,1,2.517-6.382c1.332-2.153,3.043-2.584,5.167-1.209a15.99,15.99,0,0,1,2.387,1.91A88.153,88.153,0,0,0,621,2013.55a21.231,21.231,0,0,0,11.985,4.269,87.272,87.272,0,0,0,11.8-.59,11.78,11.78,0,0,1,4.812.191,3.087,3.087,0,0,1,2.26,3.664,27.541,27.541,0,0,1-2.993,8.64,63.783,63.783,0,0,1-10.436,14.631,54.007,54.007,0,0,1-8.772,7.637,25.847,25.847,0,0,1-10.369,4.525,12.132,12.132,0,0,1-12.08-4.617,28.1,28.1,0,0,1-4.968-10.166A62.982,62.982,0,0,1,600.1,2026.089Zm7.846-10.482c-2.2-.182-2.681,1.472-2.1,3.024a10.116,10.116,0,0,0,.913,2,16.776,16.776,0,0,0,5.6,5.228,7.813,7.813,0,0,0,3.992,1.3,1.878,1.878,0,0,0,2.156-2.19,4.549,4.549,0,0,0-.57-2.023,14.492,14.492,0,0,0-4.526-5.1A9.343,9.343,0,0,0,607.951,2015.607Zm27.99,10.426a12.149,12.149,0,0,0-7.086,1.69c-2.038,1.314-1.868,3.122.282,4.23a11.179,11.179,0,0,0,4.593,1.109,14.158,14.158,0,0,0,7.9-1.52c2.047-1.143,2.1-3,.141-4.248a4.388,4.388,0,0,0-.537-.254A11.442,11.442,0,0,0,635.941,2026.033Zm-15.712,22.989a7.155,7.155,0,0,0,2.611-.535,1,1,0,0,0,.634-1.017c-.051-.431-.436-.561-.806-.642a9.464,9.464,0,0,0-1-.172,18.747,18.747,0,0,1-8.349-2.637,11.1,11.1,0,0,0-2.461-1.333c-.723-.238-1.016-.018-1,.745a2.243,2.243,0,0,0,.735,1.578A15.067,15.067,0,0,0,620.229,2049.022Z" fill="#00be68"/>
      <path id="Path_56" data-name="Path 56" d="M600.667,2058.931a14.275,14.275,0,0,1-9.372-3.522,35.71,35.71,0,0,1-8.188-9.908,63.76,63.76,0,0,1-6.417-15.252,50.08,50.08,0,0,1-1.972-11.631,19.789,19.789,0,0,1,.285-5.157c.647-2.917,2.134-3.8,5.235-2.833a55.253,55.253,0,0,1,6.637,2.858,37.518,37.518,0,0,0,9.454,3.282c.557.094.7.36.628.874-.262,1.8-.552,3.587-.753,5.389a41.145,41.145,0,0,0,2.053,19.441c.357.947.3,1.034-.663,1.077a5.874,5.874,0,0,0-4.295,2.124,1.878,1.878,0,0,0-.459.991c-.114.834.353,1.26,1.158,1.012a9.609,9.609,0,0,0,1.16-.522,13.45,13.45,0,0,1,3.423-.974,1.488,1.488,0,0,1,1.853,1q1.447,3.076,3.063,6.074a10.937,10.937,0,0,0,2.43,3.358c.534.447.306.756-.221.993A12.285,12.285,0,0,1,600.667,2058.931Zm-10.053-28.808a8.192,8.192,0,0,0,2.249-.215,1.793,1.793,0,0,0,1.131-2.753,5.376,5.376,0,0,0-1.084-1.409,13.713,13.713,0,0,0-5.85-3.162,9.566,9.566,0,0,0-4.954-.276c-1.648.406-2.172,1.653-1.281,3.082a5.305,5.305,0,0,0,1.2,1.427A14.086,14.086,0,0,0,590.614,2030.123Z" fill="#00be68"/>
    </g>
  </g>
</svg>
