<svg xmlns="http://www.w3.org/2000/svg" width="57.509" height="57.806" viewBox="0 0 57.509 57.806">
  <g id="yXPqzs.tif" transform="translate(-579.042 -1647.974)">
    <g id="Group_42" data-name="Group 42">
      <path id="Path_51" data-name="Path 51" d="M636.551,1662.511a20.552,20.552,0,0,1-2.817,6.741,14.66,14.66,0,0,0-1.645,13.025c2.015,6.493,2.266,13.217,2.691,19.926.106,1.683-.653,2.334-2.13,2.669a35.2,35.2,0,0,1-23.447-2.7,2.131,2.131,0,0,1-1.35-2.855c1.74-6.818,3.2-13.721,6.691-19.948,2.609-4.659,2.013-9.539,1.121-14.478a17.791,17.791,0,0,1,5.361-16.915c1.338.943,1.385,1.908.744,2.79-1.018,1.4-.85,3.073-1.087,4.651a.95.95,0,0,0,.765,1.171,6.119,6.119,0,0,1,3.766,3.317c.574,1.092,1.028.85,1.709.124a5.839,5.839,0,0,1,4.186-2.182c1.012-.006,1.225-.425,1.295-1.289.134-1.653.6-3.3-.073-4.941a.933.933,0,0,1,.351-1.241,1.446,1.446,0,0,1,1.357-.031,2.016,2.016,0,0,1,.965,1.18,25.454,25.454,0,0,1,1.547,4.414Z" fill="#ff4e00"/>
      <path id="Path_52" data-name="Path 52" d="M591.689,1678.539c-2.706,3.722-2.706,3.713-5.93.726-1.95-1.806-3.911-3.6-5.916-5.347a1.559,1.559,0,0,1-.168-2.617c1.365-1.523,3.151-2.513,4.643-3.89,3.161-2.918,5.794-6.478,9.79-8.431a.807.807,0,0,0,.568-.841c-.2-1.7.782-1.534,1.958-1.349,4.572.717,9.043.468,13.24-1.718.884-.46,1.464-.451,1.768.62.082.29.234.736.437.788,1.839.479,1.244,1.769,1.123,2.989-.3,3,.591,5.9,1.037,8.818a17.825,17.825,0,0,1-1.581,11.4c-3.436,6.465-5.422,13.408-7.031,20.484a2.223,2.223,0,0,1-2.233,2.074c-1.971.152-3.925.51-5.894.686s-2.794-.467-3.049-2.446c-.846-6.557-1.632-13.121-2.444-19.682C591.924,1680.13,591.82,1679.464,591.689,1678.539Zm-10.382-5.946a1.525,1.525,0,0,0,.222.43q3.267,3,6.553,5.983c.231.209.56.363.821.033s.005-.569-.227-.782q-1.088-1-2.182-2-2.07-1.89-4.142-3.778c-.226-.2-.468-.459-.811-.259C581.43,1672.287,581.384,1672.465,581.307,1672.593Z" fill="#ff4e00"/>
    </g>
  </g>
</svg>
