<svg xmlns="http://www.w3.org/2000/svg" width="64.767" height="64.684" viewBox="0 0 64.767 64.684">
  <g id="_6fbOrm.tif" data-name="6fbOrm.tif" transform="translate(-501.51 -2369.071)">
    <g id="Group_66" data-name="Group 66">
      <path id="Path_80" data-name="Path 80" d="M531.218,2369.071h5.473a8.247,8.247,0,0,0,.945.226,32.3,32.3,0,0,1,28.149,37.716c-2.49,14.316-14.7,25.59-28.852,26.645-15.2,1.132-28.818-7.728-33.6-21.813a49.1,49.1,0,0,1-1.818-8.767v-3.128c.084-.51.2-1.019.246-1.533a32.407,32.407,0,0,1,22.605-27.9A59.817,59.817,0,0,1,531.218,2369.071Zm3.333,42.7q-5.853,0-11.705,0c-1.552,0-2.786.491-2.782,2.255s1.243,2.249,2.792,2.248q11.509-.006,23.02,0c1.523,0,2.755-.361,2.867-2.165.1-1.538-.844-2.317-2.878-2.333C542.094,2411.748,538.322,2411.77,534.551,2411.771Zm11.165-14.176a3.947,3.947,0,0,0,4.11-4.012,4.1,4.1,0,0,0-8.2-.058A4.023,4.023,0,0,0,545.716,2397.595Zm-18.528-4.04a4.028,4.028,0,0,0-4.121-4.007,3.986,3.986,0,0,0-3.886,4.224,3.919,3.919,0,0,0,4,3.9A3.967,3.967,0,0,0,527.188,2393.555Z" fill="#ff91d2"/>
    </g>
  </g>
</svg>
