<svg xmlns="http://www.w3.org/2000/svg" width="77.059" height="58.778" viewBox="0 0 77.059 58.778">
  <g id="by4miy.tif" transform="translate(-712.75 -2188.33)">
    <g id="Group_52" data-name="Group 52">
      <path id="Path_61" data-name="Path 61" d="M789.809,2221.885a3.261,3.261,0,0,1-1.1,1.634,2.628,2.628,0,0,1-3.764-.657,40.752,40.752,0,0,1-2.013-3.643q-1.939-3.684-3.862-7.377a.674.674,0,0,0-.232-.275c.217,1.1.431,2.19.653,3.285q1.764,8.712,3.529,17.424c.107.527.065.589-.473.644a33.7,33.7,0,0,1-3.455.046c-.393,0-.517.108-.515.51.014,3.051.008,6.1,0,9.154,0,.628-.033,1.256-.073,1.883a2.839,2.839,0,0,1-2.045,2.437,3,3,0,0,1-3.2-1.041,2.611,2.611,0,0,1-.6-1.726c.03-2.422,0-4.845-.01-7.268-.008-1.178-.044-2.356-.05-3.534,0-.306-.111-.415-.416-.41-.963.017-.818-.073-.82.817-.008,3.09,0,6.181-.015,9.272a12.188,12.188,0,0,1-.095,1.644,2.856,2.856,0,0,1-2.361,2.324,2.963,2.963,0,0,1-3-1.447,3.316,3.316,0,0,1-.49-1.779c.028-3.43.013-6.862.013-10.293,0-.532,0-.533-.548-.533h-2.408c.016-.234.179-.263.29-.329a3.37,3.37,0,0,0,1.54-4.086,25.586,25.586,0,0,0-1.519-3.275,1.257,1.257,0,0,1-.119-.864q1.219-6,2.413-12c.067-.332.125-.665.2-1.047a.573.573,0,0,0-.241.313q-2.1,3.955-4.2,7.912c-.249.47-.288.481-.559.036a9.331,9.331,0,0,0-2.277-2.626,9.773,9.773,0,0,0-1.179-.7.365.365,0,0,1-.184-.547,101.813,101.813,0,0,1,4.655-9.3,9.31,9.31,0,0,1,2.2-2.542,6.2,6.2,0,0,1,3.632-1.307c2.92-.142,5.84-.069,8.761-.05a9.6,9.6,0,0,1,2.6.333,7.03,7.03,0,0,1,4.261,3.615c2.412,4.4,4.643,8.89,6.748,13.443.126.272.22.56.328.84Z" fill="#9a59ed"/>
      <path id="Path_62" data-name="Path 62" d="M748.858,2247.108a2.17,2.17,0,0,1-1.7-1.24,3.152,3.152,0,0,1-.194-1.271c-.036-1.924-.074-3.849-.079-5.773q-.017-7.484-.007-14.968a.843.843,0,0,0-.082-.431q-.689,1.315-1.375,2.632c-.858,1.649-1.688,3.313-2.673,4.893a1.59,1.59,0,0,1-1.553.8,1.784,1.784,0,0,1-1.571-1.076,1.521,1.521,0,0,1-.028-1.221,48.591,48.591,0,0,1,2.081-4.616c.811-1.659,1.665-3.3,2.595-4.891a5.314,5.314,0,0,1,1.7-1.823,3.981,3.981,0,0,1,2.1-.675c2.043-.067,4.086.034,6.126-.008a4.543,4.543,0,0,1,4.161,2.333,57.847,57.847,0,0,1,3.005,5.738c.514,1.045,1.027,2.092,1.463,3.174a8.082,8.082,0,0,1,.333.964,1.576,1.576,0,0,1-.92,1.905,1.715,1.715,0,0,1-2.183-.476,30.285,30.285,0,0,1-1.732-3.079c-.728-1.377-1.436-2.765-2.155-4.147-.046-.089-.066-.2-.168-.253-.086.057-.05.143-.051.214q-.034,3.437-.065,6.873c-.034,4.007-.061,8.013-.1,12.02-.009.9-.083,1.8-.111,2.705a1.709,1.709,0,0,1-1.284,1.556,4.006,4.006,0,0,1-.488.139h-.394a2.046,2.046,0,0,1-1.742-2.264c-.033-1.164-.059-2.329-.065-3.493-.01-2.343-.005-4.687-.006-7.03,0-.118,0-.236,0-.353,0-.2-.109-.264-.3-.27-.386-.014-.323.26-.324.486q-.027,4.733-.05,9.464c0,.392.005.786-.021,1.177a2.188,2.188,0,0,1-1.813,2.283Z" fill="#9a59ed"/>
      <path id="Path_63" data-name="Path 63" d="M737.178,2211.182c0,.465,0,.93,0,1.4q-.018,14.357-.039,28.715c0,1.165-.005,2.331-.053,3.494a2.261,2.261,0,0,1-.968,1.555,3.018,3.018,0,0,1-4.267-.339,2.478,2.478,0,0,1-.457-1.555c-.128-1.973-.134-3.95-.153-5.925q-.056-5.518-.081-11.037c0-.344-.087-.48-.456-.494-.759-.03-.758-.053-.758.731q0,8.268,0,16.538a3.1,3.1,0,0,1-2.583,2.781,3.047,3.047,0,0,1-2.811-1.237,2.032,2.032,0,0,1-.386-1.29q-.061-1.726-.085-3.454c-.09-6.873-.053-13.747-.1-20.621-.021-2.985-.032-5.97-.054-8.955,0-.1-.009-.2-.016-.347a.787.787,0,0,0-.253.369c-1.832,3.518-3.62,7.06-5.521,10.542a9.045,9.045,0,0,1-.513.836,2.567,2.567,0,0,1-2.966,1.021,2.731,2.731,0,0,1-1.905-2.6,2.051,2.051,0,0,1,.177-.759c.9-2.224,1.95-4.376,3-6.528,1.2-2.459,2.4-4.917,3.76-7.295a9.281,9.281,0,0,1,2.31-2.751,6.413,6.413,0,0,1,3.776-1.362c2.606-.121,5.212-.075,7.817-.039a16.7,16.7,0,0,1,2.938.159,6.664,6.664,0,0,1,3.9,2.539,19.959,19.959,0,0,1,2.492,4.125c1,2.09,2,4.18,2.947,6.3.164.366.119.547-.251.727a7.733,7.733,0,0,0-2.839,2.814c-.209.3-.378.628-.574.937-.066.1-.1.276-.254.264-.13-.01-.156-.163-.206-.266-.684-1.4-1.363-2.8-2.05-4.2q-1.136-2.308-2.283-4.611a1.787,1.787,0,0,0-.119-.184Z" fill="#9a59ed"/>
      <path id="Path_64" data-name="Path 64" d="M730.537,2201.482a6.541,6.541,0,0,1-6.535-6.515,6.623,6.623,0,0,1,6.572-6.637,6.7,6.7,0,0,1,6.581,6.616A6.6,6.6,0,0,1,730.537,2201.482Z" fill="#9a59ed"/>
      <path id="Path_65" data-name="Path 65" d="M771.726,2188.388a6.552,6.552,0,1,1-6.294,6.518A6.562,6.562,0,0,1,771.726,2188.388Z" fill="#9a59ed"/>
      <path id="Path_66" data-name="Path 66" d="M755.728,2212.364a4.391,4.391,0,0,1-8.782-.036,4.441,4.441,0,0,1,4.423-4.392A4.368,4.368,0,0,1,755.728,2212.364Z" fill="#9a59ed"/>
    </g>
  </g>
</svg>
