<svg xmlns="http://www.w3.org/2000/svg" width="85.714" height="58.111" viewBox="0 0 85.714 58.111">
  <g id="KNaT2b.tif" transform="translate(-173.072 -1643.342)">
    <g id="Group_43" data-name="Group 43">
      <path id="Path_53" data-name="Path 53" d="M258.786,1700.768a4.022,4.022,0,0,1-4.122.231c-9.291-3.916-18.6-7.793-27.894-11.7a26.288,26.288,0,0,0-20.807-.253c-9.341,3.8-18.648,7.675-27.971,11.515a6.652,6.652,0,0,1-2.4.667c-1.093.025-2.022-.212-2.4-1.364a2.083,2.083,0,0,1,.929-2.46,36.267,36.267,0,0,1,8.238-4.728c3.138-1.3,6.232-2.714,9.392-3.961a20.78,20.78,0,0,0,11.148-10.292c1.369-2.661,2.691-5.378,4.873-7.552a11.45,11.45,0,0,1,17.454,1,77.069,77.069,0,0,1,5.652,9.07,16.665,16.665,0,0,0,7.146,6.556c3.887,1.955,7.926,3.56,11.928,5.248a38.067,38.067,0,0,1,8.835,5.35Z" fill="#00c3b0"/>
      <path id="Path_54" data-name="Path 54" d="M215.657,1663.968c-1.224.371-1.5-.486-1.472-1.868.055-2.547.831-3.731,3.359-4.8,2.744-1.162,4.029-3.375,3.431-5.909a4.922,4.922,0,0,0-9.227-1.312,19.757,19.757,0,0,1-1.279,2.149,5.255,5.255,0,0,1-4.3,2.213,1.917,1.917,0,0,1-2.057-1.594,1.727,1.727,0,0,1,1.2-2.263c1.686-.369,2.437-1.489,3.2-2.863a8.67,8.67,0,0,1,8.933-4.244,9.034,9.034,0,0,1,2.84,16.856c-1.248.668-2.423,1.088-2.355,2.936C217.98,1664.466,216.741,1663.777,215.657,1663.968Z" fill="#00c3b0"/>
    </g>
  </g>
</svg>
