<svg xmlns="http://www.w3.org/2000/svg" width="72.821" height="72.833" viewBox="0 0 72.821 72.833">
  <g id="Group_49" data-name="Group 49" transform="translate(-152.493 -2186.078)">
    <path id="Path_58" data-name="Path 58" d="M191.215,2189.173c.83-2.107,2.2-3.277,4.479-3.072,1.894.17,2.883,1.409,3.542,3.1.21-.576.409-1.1.592-1.623a1.9,1.9,0,0,1,2.79-1.12,3.056,3.056,0,0,1,1.991,2.95,17,17,0,0,1-.758,4.355,41.205,41.205,0,0,1-2.171,5.939c-.044.1-.144.218-.051.318s.245.043.368.014a14.061,14.061,0,0,1,8.178.41,10.182,10.182,0,0,0,3.267.713,7.087,7.087,0,0,0,4.1-1.252,7.733,7.733,0,0,0,2.055-2.123,1.386,1.386,0,0,1,2.33-.1,1.3,1.3,0,0,1,.025,1.6,9.9,9.9,0,0,1-6.367,4.435,9.667,9.667,0,0,1-4.928-.229c-.351-.1-.712-.177-1.19-.294,1.435,1,2.6,2.2,4.192,2.717a7.078,7.078,0,0,0,6.452-.864,2.146,2.146,0,0,1,1.307-.58,1.41,1.41,0,0,1,1.251.9,1.318,1.318,0,0,1-.366,1.488,9.966,9.966,0,0,1-4.9,2.146,9.574,9.574,0,0,1-5.1-.621,15.384,15.384,0,0,1-3.378-2.136,12.812,12.812,0,0,0-3.718-2.052.421.421,0,0,0-.28,0l1.118.864a29.834,29.834,0,0,1,8.11,9.88,33.68,33.68,0,0,1,2.805,7.07,27.292,27.292,0,0,1,.8,4.091,29.4,29.4,0,0,1,.217,3.606c0,.473-.056.945-.084,1.418a.4.4,0,0,1-.187.369,18.8,18.8,0,0,0-2.73,2.022,10.581,10.581,0,0,1-2.952,1.476c-1.073.366-2.142.747-3.213,1.12-.081.028-.165.048-.249.069-.554.143-.6.113-.593-.45a5.951,5.951,0,0,0-2.662-5.129,5.769,5.769,0,0,0-3.425-1.12c-2.458.008-4.911.079-7.363.248-1.146.079-2.3.04-3.446.1-2.367.122-4.736.181-7.1.277a61.749,61.749,0,0,0-6.511.626c-1.373.2-2.731.513-4.093.787-.406.082-.54-.006-.571-.5a24.9,24.9,0,0,1,.048-4.041,29.792,29.792,0,0,1,.819-4.657,33.931,33.931,0,0,1,2.521-6.675,32.082,32.082,0,0,1,6.311-8.722,21.41,21.41,0,0,1,7.029-4.663c.367-.143.353-.278.2-.593a43.969,43.969,0,0,1-3.083-7.845,30.134,30.134,0,0,1-.8-3.916,3.306,3.306,0,0,1,2.46-3.6,1.912,1.912,0,0,1,2.4,1.425A14.585,14.585,0,0,0,191.215,2189.173Z" fill="#037c3c"/>
    <path id="Path_59" data-name="Path 59" d="M189.164,2240.786c.146.139.3.092.432.092,2.113,0,4.228.03,6.34-.029,1.923-.055,3.853-.045,5.766-.258a41,41,0,0,0,5.378-.941c2.333-.58,4.58-1.413,6.839-2.214a13.225,13.225,0,0,0,4.162-2.637,4.483,4.483,0,0,1,6.227.158,3.472,3.472,0,0,1-.2,5.076c-1.77,1.554-3.587,3.055-5.38,4.583-1.345,1.147-2.715,2.261-4.155,3.289a30.778,30.778,0,0,1-6.778,3.642c-2.145.832-4.357,1.443-6.565,2.076-1.959.563-3.934,1.059-5.914,1.535-1.659.4-3.332.732-5.014,1.027-1.246.218-2.5.366-3.752.523a15.028,15.028,0,0,1-1.851.061q-8.194.007-16.391,0c-.635,0-.64-.006-.64-.659q0-9.7-.008-19.409a.626.626,0,0,1,.5-.715c1.486-.5,2.99-.921,4.51-1.3a55.519,55.519,0,0,1,5.613-1.091c1.676-.236,3.358-.41,5.051-.5,2.425-.132,4.853-.166,7.277-.28,2.167-.1,4.335-.144,6.5-.255,1.623-.083,3.243-.174,4.867-.138a3.3,3.3,0,0,1,3.053,3.343,3.423,3.423,0,0,1-2.939,2.953c-1.434.206-2.864.436-4.3.649-1.716.256-3.433.5-5.148.756q-1.489.222-2.975.468A.829.829,0,0,0,189.164,2240.786Z" fill="#037c3c"/>
    <path id="Path_60" data-name="Path 60" d="M164.742,2235.023v21.737a1.9,1.9,0,0,1-2.148,2.15h-8.021a1.849,1.849,0,0,1-2.076-2.073q0-5.475,0-10.953h0q0-5.52,0-11.04a1.874,1.874,0,0,1,1.033-1.841,1.419,1.419,0,0,1,.665-.151c2.932,0,5.866-.005,8.8,0a1.792,1.792,0,0,1,1.75,1.78C164.746,2234.764,164.742,2234.9,164.742,2235.023Z" fill="#037c3c"/>
  </g>
</svg>
