<svg xmlns="http://www.w3.org/2000/svg" width="62.875" height="60.003" viewBox="0 0 62.875 60.003">
  <g id="_1Xhtbf.tif" data-name="1Xhtbf.tif" transform="translate(-139.404 -1826.16)">
    <g id="Group_28" data-name="Group 28">
      <path id="Path_42" data-name="Path 42" d="M189.216,1826.16c4.213.635,6.674,3.5,8.593,6.928a37.906,37.906,0,0,1,4.316,14.405c.1.89.126,1.778.151,2.669a6.185,6.185,0,0,1-3.633,5.975,19.076,19.076,0,0,1-6.039,1.565c-1.231.206-2.467.381-3.7.572-.265.041-.529.048-.668-.227s.016-.5.225-.664a4.649,4.649,0,0,0,1.474-3.789,35.946,35.946,0,0,0-3.719-16.7c-.744-1.595-1.61-3.125-2.495-4.647a4.912,4.912,0,0,0-4.326-2.688c-.693-.021-.809-.271-.428-.842a3.553,3.553,0,0,1,1.974-1.368,26.446,26.446,0,0,1,5.079-1.066c.2-.023.4-.078.594-.119Z" fill="#ff7900"/>
      <path id="Path_43" data-name="Path 43" d="M139.409,1856.168a40.081,40.081,0,0,1,5.011-18.71,12.747,12.747,0,0,1,9.649-6.847c4.989-.727,9.939-.983,14.873.265,1.333.337,2.638.782,4.006.987a6.7,6.7,0,0,0,2.056.035,9.562,9.562,0,0,1,3.044.12,4.289,4.289,0,0,1,3.259,2.505,56.853,56.853,0,0,1,3.8,9.42,37.545,37.545,0,0,1,1.488,8.182,8.489,8.489,0,0,1-.157,2.434,3.613,3.613,0,0,1-2.2,2.743c-1.338.565-2.642,1.212-3.97,1.8a2.328,2.328,0,0,0-1.26,1.252c-2.817,6.4-7.483,11.3-12.818,15.644-1.321,1.075-2.825,1.9-4.109,3.051a20.666,20.666,0,0,0-4.273,5.347c-1.272,2.265-2.719,2.334-4.39.305-1.922-2.335-2.09-5.139-.415-7.979a23.836,23.836,0,0,1,4.379-5.281,13.629,13.629,0,0,0,1.765-1.8c1.654-2.237,1.057-4.548-1.5-5.7a14.376,14.376,0,0,0-8.145-1.1c-1.486.221-2.965.494-4.445.755a6.65,6.65,0,0,1-1.83.057,3.34,3.34,0,0,1-3.292-2.793A16.392,16.392,0,0,1,139.409,1856.168Z" fill="#ff7900"/>
    </g>
  </g>
</svg>
