<svg xmlns="http://www.w3.org/2000/svg" width="58.221" height="61.73" viewBox="0 0 58.221 61.73">
  <g id="v08jzy.tif" transform="translate(-695.9 -2551.163)">
    <g id="Group_22" data-name="Group 22">
      <path id="Path_35" data-name="Path 35" d="M706.178,2612.843c-1.879-.893-2.182-2.6-.72-4.073.454-.455.9-.92,1.37-1.357.34-.315.369-.458-.147-.574a12.672,12.672,0,0,1-4.648-2.07,13.791,13.791,0,0,1-6.11-11.318c-.045-1.646-.009-3.294-.007-4.941,0-.791.005-.795.808-.794l35.072.046,21.453.029c.864,0,.867,0,.865.856,0,1.647.028,3.295-.02,4.941a13.737,13.737,0,0,1-5.223,10.556,13.226,13.226,0,0,1-5.57,2.743c-.516.118-.488.258-.148.574.47.438.913.9,1.366,1.361,1.458,1.474,1.15,3.183-.731,4.071l-1.326,0a5.666,5.666,0,0,1-1.461-1.14c-1.337-1.359-2.695-2.7-4.028-4.057a1.288,1.288,0,0,0-1-.434q-10.984,0-21.969-.029a1.289,1.289,0,0,0-1,.431c-1.337,1.358-2.7,2.692-4.039,4.047a5.66,5.66,0,0,1-1.464,1.136Z" fill="#66a3e7"/>
      <path id="Path_36" data-name="Path 36" d="M743.87,2551.173a11.286,11.286,0,0,1,4.6,1.838,10.285,10.285,0,0,1,4.544,8.609c.06,7.55,0,15.1,0,22.652,0,.515-.164.719-.7.7-1.083-.03-2.169-.03-3.252,0-.506.012-.7-.188-.663-.672.016-.2,0-.4,0-.6q.014-10.875.033-21.749a5.949,5.949,0,0,0-3.277-5.607,5.309,5.309,0,0,0-2.536-.672c-1.546-.013-3.093,0-4.639-.012a6.8,6.8,0,0,0-2.342.493c-.46.165-.464.326-.166.705a7.2,7.2,0,0,1,1.06,7.637,2.251,2.251,0,0,1-3.251,1.282q-4.557-2.2-9.077-4.473a2.212,2.212,0,0,1-.95-3.224,7.285,7.285,0,0,1,6.828-3.923,1.515,1.515,0,0,0,1.227-.526,9.1,9.1,0,0,1,4.91-2.372c.137-.027.272-.062.408-.093Z" fill="#66a3e7"/>
      <path id="Path_37" data-name="Path 37" d="M711.233,2584.912c-1.748,0-3.495-.011-5.242,0a.663.663,0,0,1-.734-.465c-.773-2.047-1.6-4.073-2.343-6.131a5.449,5.449,0,0,1,9.869-4.591c1.181,2.418,1.986,5,2.985,7.492.418,1.044.8,2.1,1.225,3.142.18.442.052.571-.4.567C714.807,2584.91,713.02,2584.915,711.233,2584.912Z" fill="#66a3e7"/>
      <path id="Path_38" data-name="Path 38" d="M702.478,2568.908a4.32,4.32,0,0,1-4.089-2.386,15.32,15.32,0,0,1-1.139-2.972,4.133,4.133,0,0,1,1.656-4.606,10.459,10.459,0,0,1,4.062-1.584,3.831,3.831,0,0,1,3.995,1.661,9.2,9.2,0,0,1,1.715,4.746,3.731,3.731,0,0,1-1.471,3.221A10.6,10.6,0,0,1,702.478,2568.908Z" fill="#66a3e7"/>
      <path id="Path_39" data-name="Path 39" d="M719,2584.878c.091-.3.311-.339.477-.432q4.121-2.324,8.245-4.638a4.517,4.517,0,0,1,6.282,1.117q1.488,1.74,2.97,3.486c.1.117.268.233.2.407-.071.194-.276.125-.425.125q-8.709-.008-17.418-.023A3.022,3.022,0,0,1,719,2584.878Z" fill="#66a3e7"/>
    </g>
  </g>
</svg>
