<svg xmlns="http://www.w3.org/2000/svg" width="38.997" height="57.554" viewBox="0 0 38.997 57.554">
  <g id="Group_19" data-name="Group 19" transform="translate(-741.438 -1107.299)">
    <path id="Path_30" data-name="Path 30" d="M773.186,1164.853H748.755c-.71-.073-1.425-.113-2.129-.223-3.521-.555-5.009-2.291-5.153-5.621a41.4,41.4,0,0,1,1.61-13.075A31.753,31.753,0,0,1,756.79,1127.1a3.365,3.365,0,0,1,2.006-.595c1.408.046,2.82.051,4.228,0a3.68,3.68,0,0,1,2.2.642c7.834,4.963,12.437,12.112,14.317,21.118a61.244,61.244,0,0,1,.9,6.508v5.107c-.117.408-.224.82-.353,1.224a3.982,3.982,0,0,1-1.546,2.29,6.887,6.887,0,0,1-3.355,1.252C774.514,1164.687,773.851,1164.783,773.186,1164.853Zm-12.356-6.35c.268,0,.538-.019.8,0,.578.051.819-.19.784-.776-.032-.536.034-1.078-.016-1.611-.064-.686.2-.98.878-1.139a4.877,4.877,0,0,0,3.886-3.741,6.252,6.252,0,0,0-.007-2.991,4.387,4.387,0,0,0-2.988-3.416,21.637,21.637,0,0,0-2.98-.778,7.58,7.58,0,0,1-2.516-.646,2.062,2.062,0,0,1-1.072-2.205,2.193,2.193,0,0,1,1.578-2.178,6.767,6.767,0,0,1,3.056-.021,3.247,3.247,0,0,1,2.549,2.047c.13.329.269.412.59.229.465-.265.947-.5,1.431-.737a.628.628,0,0,0,.373-.815,3.682,3.682,0,0,0-1.807-2.392,6.217,6.217,0,0,0-2.251-.836.753.753,0,0,1-.716-.917c.034-.6-.011-1.21.011-1.813.019-.509-.168-.747-.7-.72s-1.074.026-1.609,0c-.515-.025-.739.174-.72.7.023.648-.014,1.3.007,1.947.016.461-.183.666-.621.792-3.1.89-4.442,2.856-4.2,6.1a4.648,4.648,0,0,0,3.653,4.348c.672.165,1.352.3,2.032.428a10.3,10.3,0,0,1,2.891.819,1.881,1.881,0,0,1,.363,3.3,3.109,3.109,0,0,1-1.919.712c-1.77.073-3.553.1-4.478-1.874-.149-.319-.36-.265-.6-.139-.5.257-.991.52-1.5.76-.365.174-.434.411-.366.812.294,1.745,1.525,2.533,3.026,3.077.5.181,1.182.068,1.482.5.311.445.1,1.088.109,1.643C759.3,1158.669,759.078,1158.494,760.83,1158.5Z" fill="#00be68"/>
    <path id="Path_31" data-name="Path 31" d="M760.968,1107.3c1.565,0,3.131,0,4.7,0,1.4.005,1.91.521,1.918,1.9v.2c0,1.1,0,1.1,1.1,1.122a1.67,1.67,0,0,1,1.85,1.4,2.822,2.822,0,0,1-.907,3.457c-2.294,1.868-3.633,4.457-4.874,7.072a1.534,1.534,0,0,1-1.668,1.058c-1.562-.072-3.13-.034-4.7-.014a.937.937,0,0,1-.978-.629,35.028,35.028,0,0,0-2.045-3.853,16.856,16.856,0,0,0-3.326-4.013,2.923,2.923,0,0,1-.28-3.872,1.837,1.837,0,0,1,1.624-.611c.972,0,.973-.009.978-.973,0-.179,0-.358,0-.537a1.535,1.535,0,0,1,1.706-1.705c1.633-.018,3.266-.005,4.9-.005Z" fill="#00be68"/>
  </g>
</svg>
