<svg xmlns="http://www.w3.org/2000/svg" width="39.411" height="57.323" viewBox="0 0 39.411 57.323">
  <g id="v4JfDq.tif" transform="translate(-190.835 -1465.215)">
    <g id="Group_25" data-name="Group 25">
      <path id="Path_40" data-name="Path 40" d="M208.786,1465.215h3.577a2.28,2.28,0,0,0,.269.068,16.139,16.139,0,0,1,9.778,5.157c.346.371.344.6-.019.957-1.4,1.366-2.771,2.761-4.155,4.143-.526.526-.519.516-1.016-.032a8.6,8.6,0,0,0-7.524-3,8.861,8.861,0,0,0-7.814,7.061,26.58,26.58,0,0,0-.2,4.793c-.013.829,0,.829.767.485a18.821,18.821,0,0,1,11-1.547,19.539,19.539,0,0,1,15.275,11.792,20.513,20.513,0,0,1,1.524,5.7v4.027c-.074.459-.14.92-.223,1.377a19.742,19.742,0,0,1-39.131-1.85,19.307,19.307,0,0,1,3.193-12.326,2.05,2.05,0,0,0,.358-1.2q-.02-4.306,0-8.613a19.873,19.873,0,0,1,.1-2.791,16.051,16.051,0,0,1,9.536-12.881A17.357,17.357,0,0,1,208.786,1465.215Zm-4.268,27.961c-.21.013-.319.179-.447.307-.938.933-1.858,1.884-2.814,2.8-.365.35-.32.568.02.9,1.727,1.7,3.421,3.43,5.15,5.126.382.375.39.607,0,.986-1.729,1.695-3.423,3.426-5.149,5.125-.335.331-.4.548-.027.9q1.434,1.371,2.8,2.807c.349.365.567.321.9-.02,1.683-1.714,3.389-3.407,5.089-5.106.524-.523.528-.523,1.048,0,1.7,1.7,3.4,3.392,5.089,5.106.33.335.548.4.9.028q1.37-1.436,2.8-2.807c.365-.35.32-.568-.02-.9-1.726-1.7-3.42-3.43-5.149-5.125-.382-.375-.39-.607,0-.986,1.73-1.7,3.424-3.426,5.15-5.126.335-.33.4-.548.026-.9q-1.433-1.37-2.8-2.806c-.35-.366-.567-.32-.9.02-1.7,1.728-3.427,3.423-5.121,5.154-.375.383-.607.39-.985,0-1.694-1.731-3.415-3.435-5.129-5.146C204.826,1493.38,204.718,1493.216,204.518,1493.176Z" fill="#ffb500"/>
    </g>
  </g>
</svg>
