<svg xmlns="http://www.w3.org/2000/svg" width="43.762" height="61.379" viewBox="0 0 43.762 61.379">
  <g id="rAM5AW" transform="translate(-566.489 -2733.891)">
    <g id="Group_78" data-name="Group 78">
      <path id="Path_92" data-name="Path 92" d="M578.368,2775.515q.062-7.692.129-15.385a1.059,1.059,0,0,0-.337-.827c-3.521-3.564-7.02-7.151-10.555-10.7a3.838,3.838,0,0,1-.747-4.342,3.709,3.709,0,0,1,5.8-1.093c.321.289.617.6.919.913q3.734,3.789,7.459,7.586a1.021,1.021,0,0,0,.787.341q6.495.037,12.991.1a1.021,1.021,0,0,0,.8-.32c2.723-2.7,5.463-5.378,8.181-8.081a3.8,3.8,0,0,1,3.7-1.084,3.7,3.7,0,0,1,2.755,3.766,3.915,3.915,0,0,1-1.249,2.619q-5.3,5.193-10.583,10.4a1.23,1.23,0,0,0-.409.955q-.106,15.286-.237,30.574a4.3,4.3,0,1,1-8.605.051q.045-6.966.109-13.933c0-.613,0-.613-.617-.618-.392,0-.787.017-1.177-.016s-.524.086-.52.5c.013,1.373-.013,2.747-.024,4.121-.027,3.31-.045,6.62-.083,9.929a4.3,4.3,0,0,1-8.6-.1Q578.294,2783.189,578.368,2775.515Z" fill="#ff4ac1"/>
      <path id="Path_93" data-name="Path 93" d="M588.465,2733.9a8.482,8.482,0,0,1,8.493,8.591,8.565,8.565,0,0,1-17.13-.144A8.483,8.483,0,0,1,588.465,2733.9Z" fill="#ff4ac1"/>
    </g>
  </g>
</svg>
