<svg xmlns="http://www.w3.org/2000/svg" width="53.039" height="58.941" viewBox="0 0 53.039 58.941">
  <g id="LRuozS" transform="translate(-443.501 -1824.026)">
    <g id="Group_33" data-name="Group 33">
      <path id="Path_45" data-name="Path 45" d="M470.035,1824.027q11.689,0,23.38,0a3,3,0,0,1,2.882,1.807,2.826,2.826,0,0,1,.233,1.257q-.008,7,0,14.008c0,4.515-.033,9.03.013,13.545a15.3,15.3,0,0,1-2.011,7.488,30.783,30.783,0,0,1-4.492,6.164,61.563,61.563,0,0,1-7.7,7.01,94.234,94.234,0,0,1-8.778,6.039c-.725.444-1.447.9-2.2,1.283a2.806,2.806,0,0,1-2.79-.071c-2.518-1.425-4.951-2.985-7.32-4.647-2.116-1.484-4.17-3.047-6.136-4.724a44.629,44.629,0,0,1-8.492-9.223,19.415,19.415,0,0,1-2.643-5.641,12.64,12.64,0,0,1-.472-3.3q0-13.941,0-27.883a3.021,3.021,0,0,1,3.12-3.115Q458.328,1824.024,470.035,1824.027Zm.014,32.47h-7.417c-.353,0-.707.007-1.06,0-.23-.006-.324.095-.3.319.027.275.037.551.077.823a8.77,8.77,0,0,0,16.15,3.4,8.623,8.623,0,0,0,1.283-4.061c.029-.456.033-.475-.418-.475Zm8.791-14.706h-5.43c-.4,0-.44.052-.378.446.044.283.076.57.148.847a5.737,5.737,0,0,0,4.971,4.415,5.6,5.6,0,0,0,5.075-1.933,5.833,5.833,0,0,0,1.442-3.314c.049-.418.024-.461-.4-.461Zm-17.639,0c-1.819,0-3.639.005-5.458,0-.3,0-.4.111-.35.4.039.228.045.462.093.687a5.8,5.8,0,0,0,8.529,3.949,5.61,5.61,0,0,0,2.995-4.6c.041-.4-.005-.429-.416-.429Z" fill="#9556ec"/>
    </g>
  </g>
</svg>
