<svg xmlns="http://www.w3.org/2000/svg" width="67.841" height="57.381" viewBox="0 0 67.841 57.381">
  <g id="hKjSCz.tif" transform="translate(-695.523 -2917.262)">
    <g id="Group_36" data-name="Group 36">
      <path id="Path_46" data-name="Path 46" d="M713.02,2917.262h1.6c.152.027.3.067.457.079a18.06,18.06,0,0,1,13.9,7.968c.473.669.468.673.932,0a18.224,18.224,0,0,1,10.229-7.354,23.457,23.457,0,0,1,4.128-.694h1.6c.572.069,1.148.115,1.715.21,7.315,1.216,12.245,5.325,14.829,12.257a19.7,19.7,0,0,1,.949,4.62v2.4c-.1.68-.175,1.365-.3,2.041a18.685,18.685,0,0,1-5.8,10.346q-12.924,12.266-25.8,24.58a2.679,2.679,0,0,1-4.07-.026q-4.674-4.479-9.368-8.937c-5.712-5.452-11.479-10.849-17.115-16.379a17.407,17.407,0,0,1-5.253-15,18.2,18.2,0,0,1,14.137-15.643C710.86,2917.49,711.943,2917.406,713.02,2917.262Z" fill="#d30741"/>
    </g>
  </g>
</svg>
