<svg xmlns="http://www.w3.org/2000/svg" width="53.736" height="56.329" viewBox="0 0 53.736 56.329">
  <g id="_64xa0t" data-name="64xa0t" transform="translate(-778.769 -1285.799)">
    <g id="Group_60" data-name="Group 60">
      <path id="Path_78" data-name="Path 78" d="M806.989,1342.128H783.821c-1.683,0-2.322-.636-2.322-2.314q0-12.12.006-24.24a1.016,1.016,0,0,0-.463-.915,5.317,5.317,0,0,1-2.2-5.27,4.791,4.791,0,0,1,1.346-2.716.665.665,0,0,0,.171-.795c-.284-.782-.548-1.572-.815-2.36a1.947,1.947,0,0,1,1.39-2.811q5.35-1.791,10.7-3.587c3.075-1.026,6.155-2.033,9.229-3.059q5.562-1.857,11.119-3.728c2.114-.708,4.232-1.405,6.347-2.109q3.258-1.086,6.514-2.174c.2-.066.4-.127.6-.176a1.856,1.856,0,0,1,2.363,1.278c.671,1.985,1.323,3.978,2,5.963.124.363.053.514-.33.639-2.614.854-5.218,1.738-7.827,2.609-1.071.358-2.147.7-3.218,1.062q-3.786,1.266-7.569,2.536-5.371,1.8-10.743,3.591-4.57,1.524-9.143,3.038c-.635.211-1.269.423-1.906.629-.2.064-.274.154-.141.352a5.576,5.576,0,0,1,.624,1.569.434.434,0,0,0,.433.363,14.609,14.609,0,0,0,2.449.015c.637-.057,1.282.057,1.915.03,1.783-.076,3.565.068,5.348-.034.665-.038,1.339.083,2,.041,1.738-.108,3.476-.017,5.213-.022s3.475-.088,5.213.024c.652.043,1.312-.069,1.959-.038,1.739.084,3.476-.077,5.214.039.667.045,1.342-.075,2-.039,1.724.093,3.446-.081,5.169.04.682.048,1.366-.031,2.05-.051,1.142-.035,2.286.146,3.43,0,.4-.052.558.132.557.539q-.015,5.715-.009,11.428,0,6.247,0,12.5c0,2.009.009,4.018-.009,6.026a1.881,1.881,0,0,1-2.15,2.133Zm-2.77-9.543a1.169,1.169,0,0,0,0,.178c.018.126-.068.3.074.368s.243-.072.352-.143c.3-.193.59-.4.892-.589q3.839-2.4,7.68-4.791c.513-.321.507-.333,0-.653l-8.5-5.332c-.123-.077-.251-.211-.4-.135s-.1.268-.095.406c.12,1.871.02,3.744.024,5.614C804.251,1329.2,804.345,1330.894,804.219,1332.585Zm-10.029-34.022c-1.7.553-3.319,1.081-4.941,1.612a.545.545,0,0,0-.411.42c-.231,1-.478,1.994-.718,2.99a14.607,14.607,0,0,0-.4,1.781c1.68-.438,3.248-1.092,4.873-1.569a.611.611,0,0,0,.426-.516c.216-.849.453-1.694.667-2.544C793.858,1300.035,794.012,1299.328,794.19,1298.563Zm20.391-2.126,5.025-1.662c.25-.083.3-.305.359-.523.128-.5.259-1.007.383-1.512.255-1.033.506-2.067.762-3.113-.286-.055-.465.113-.669.178-1.373.436-2.741.886-4.108,1.34-.216.071-.467.1-.539.4C815.4,1293.144,815,1294.741,814.581,1296.437Zm-13.462,4.449c.157-.03.217-.035.272-.053,1.582-.518,3.163-1.04,4.746-1.554.24-.078.3-.264.349-.471.363-1.457.721-2.915,1.1-4.368.091-.351-.043-.354-.3-.266-1.211.408-2.4.9-3.64,1.192a1.789,1.789,0,0,0-1.593,1.871.451.451,0,0,1-.022.086C801.728,1298.487,801.432,1299.651,801.119,1300.886Zm-9.662,14.694c.773,0,1.546,0,2.318,0a.583.583,0,0,0,.573-.255q1.212-1.922,2.448-3.827c.177-.274.16-.374-.2-.368a20.08,20.08,0,0,1-2.313.057,15.327,15.327,0,0,0-2.58.009.555.555,0,0,0-.477.269c-.781,1.228-1.57,2.45-2.348,3.68-.243.385-.212.43.259.433C789.912,1315.584,790.685,1315.581,791.457,1315.58Zm14.159,0c.639,0,1.281-.04,1.915.011a1.189,1.189,0,0,0,1.285-.68c.635-1.1,1.368-2.153,2.054-3.229.091-.143.278-.293.177-.469-.088-.154-.3-.077-.458-.075-.638.012-1.279.088-1.912.046a20.468,20.468,0,0,0-2.713.01.594.594,0,0,0-.53.258q-1.181,1.861-2.372,3.718c-.189.3-.126.419.237.413C804.071,1315.572,804.844,1315.581,805.616,1315.581Zm14.221,0c.773,0,1.545,0,2.318,0a.6.6,0,0,0,.579-.249q1.221-1.917,2.448-3.828c.163-.255.112-.38-.207-.369a19.373,19.373,0,0,1-1.956.051,23.3,23.3,0,0,0-2.846.009.611.611,0,0,0-.553.293c-.778,1.229-1.573,2.447-2.351,3.676-.227.358-.189.411.251.415C818.293,1315.585,819.065,1315.58,819.837,1315.58Zm-38.234-5.32a2.572,2.572,0,0,0,2.591,2.647,2.6,2.6,0,0,0,2.665-2.645,2.555,2.555,0,0,0-2.619-2.623A2.51,2.51,0,0,0,781.6,1310.26Z" fill="#ffb500"/>
    </g>
  </g>
</svg>
