<svg xmlns="http://www.w3.org/2000/svg" width="45.733" height="53.778" viewBox="0 0 45.733 53.778">
  <g id="Group_31" data-name="Group 31" transform="translate(-781.657 -1828.394)">
    <path id="Path_44" data-name="Path 44" d="M827.39,1867.016c-.339,3.659-4.189,6.188-7.5,6.643a7.712,7.712,0,0,1-4.066-.436,4.26,4.26,0,0,1-2.352-6.081,8.424,8.424,0,0,1,4.7-4.119,9.108,9.108,0,0,1,4.777-.606c.334.048.462-.041.451-.364,0-.1,0-.21,0-.315V1840.07c0-.729,0-.735-.718-.53q-11.612,3.334-23.224,6.661a.7.7,0,0,0-.59.809q.023,13.352.016,26.7a7.212,7.212,0,0,1-2.857,5.6,11.39,11.39,0,0,1-8.479,2.823,6.514,6.514,0,0,1-4.619-2.078,4.9,4.9,0,0,1-.7-5.631,9.825,9.825,0,0,1,5.544-5.009,10.482,10.482,0,0,1,6.872-.552c.317.085.419-.013.4-.32-.013-.156,0-.314,0-.472v-31.53c0-.842,0-.842.785-1.022q15.168-3.476,30.336-6.953c.2-.046.4-.119.6-.18h.524c0,.28.011.559.011.839q0,18.057,0,36.115a3.94,3.94,0,0,0,.092,1.248Z" fill="#a67ee4"/>
  </g>
</svg>
