<svg xmlns="http://www.w3.org/2000/svg" width="63.365" height="54.561" viewBox="0 0 63.365 54.561">
  <g id="uZqysY" transform="translate(-234.201 -2911.421)">
    <g id="Group_39" data-name="Group 39">
      <path id="Path_47" data-name="Path 47" d="M265.935,2965.921c-3.127,0-6.256-.069-9.381.022-2.049.06-3.108-.784-3.666-2.764-1.53-5.434-3.251-10.814-4.805-16.242a12.039,12.039,0,0,0-3.34-5.58,31.278,31.278,0,0,1-9.876-20.516c-.263-3.371,1.359-5.532,3.968-5.76,2.528-.22,4.374,1.772,4.769,5.147,1.382,11.834,10.454,20.6,21.486,20.762a23.085,23.085,0,0,0,23.054-19.9c.077-.5.085-1.011.207-1.5.621-2.467,2.179-3.984,4.759-3.7a4.02,4.02,0,0,1,3.833,4.595,27.1,27.1,0,0,1-7.581,18.016,24.236,24.236,0,0,0-6.664,11.852c-.978,4.114-2.512,8.093-3.542,12.2-.669,2.666-2.108,3.572-4.75,3.4C271.593,2965.785,268.759,2965.923,265.935,2965.921Z" fill="#00b65e"/>
      <path id="Path_48" data-name="Path 48" d="M265.77,2934.561a11.476,11.476,0,0,1-11.478-11.531,11.607,11.607,0,1,1,23.211.257A11.468,11.468,0,0,1,265.77,2934.561Z" fill="#00b65e"/>
      <path id="Path_49" data-name="Path 49" d="M234.272,2948.329c-.2-1.624-.1-3.8,2.1-4.406,2.222-.608,4.737-1.134,6.971.041,1.6.841,2.537,7.382,1.426,8.887-2.435,3.3-5.564.418-8.345.739-1.757.2-2.284-1.905-2.155-3.67C234.3,2949.521,234.272,2949.118,234.272,2948.329Z" fill="#00b65e"/>
      <path id="Path_50" data-name="Path 50" d="M297.482,2948.975c-.006,4.3-.267,4.571-4.461,4.656a4.777,4.777,0,0,0-.883.11c-5.059,1.074-6.337-.313-5.007-5.391a6.244,6.244,0,0,0,.076-1.769,2.622,2.622,0,0,1,.969-2.422c2.308-1.479,4.875-.727,7.215-.248,1.9.388,2.316,2.3,2.138,4.162C297.5,2948.372,297.495,2948.674,297.482,2948.975Z" fill="#00b65e"/>
    </g>
  </g>
</svg>
