<svg xmlns="http://www.w3.org/2000/svg" width="53.27" height="57.554" viewBox="0 0 53.27 57.554">
  <g id="Group_14" data-name="Group 14" transform="translate(-669.257 -924.754)">
    <path id="Path_25" data-name="Path 25" d="M680.619,924.754h3.911a24.763,24.763,0,0,1,3.571,1,15.469,15.469,0,0,1,6.546,5.039c.845,1.091,1.619,1.069,2.5.006.355-.43.7-.868,1.077-1.279a15.588,15.588,0,0,1,9.034-4.764h3.911a13.7,13.7,0,0,1,8.814,6.135,16.457,16.457,0,0,1,2.548,7.276v2.421a3.265,3.265,0,0,0-.089.36c-.837,6.405-4.556,10.977-9.424,14.819-.373.294-.669.373-1-.082a39.862,39.862,0,0,1-3.6-5.411,31.522,31.522,0,0,1-3.25-12.6,1.486,1.486,0,0,0-.843-1.513c-.7-.3-1.188.121-1.68.494a38.864,38.864,0,0,0-14.219,20.179c-.085.28-.06.727-.424.755-.331.025-.449-.384-.592-.65a14.04,14.04,0,0,1-1.449-4.587,1.513,1.513,0,0,0-.928-1.388,1.452,1.452,0,0,0-1.51.472,21.034,21.034,0,0,0-3.347,3.73c-.743,1.079-.75,1.079-1.8.234-4.792-3.857-8.319-8.492-9.11-14.81v-2.421a5.129,5.129,0,0,0,.11-.543C669.889,932.162,673.892,926.111,680.619,924.754Z" fill="#ff295a"/>
    <path id="Path_26" data-name="Path 26" d="M695.706,982.308a8.254,8.254,0,0,1-5.593-2.594,7.679,7.679,0,0,1-1.217-8.568c.427-.822.562-.833,1.055-.044a5.013,5.013,0,0,0,1.355,1.514,1.368,1.368,0,0,0,2.312-.888,17.23,17.23,0,0,1,4.449-8.345c.22-.232.415-.635.807-.512.334.105.295.521.368.805a17.76,17.76,0,0,0,2.949,6.266,7.728,7.728,0,0,1-5.384,12.24c-.245.028-.486.083-.729.126Z" fill="#ff295a"/>
    <path id="Path_27" data-name="Path 27" d="M686.548,978.958a1.28,1.28,0,0,1-.959-.436A16.382,16.382,0,0,1,682.75,955.9c.112-.148.231-.292.345-.439.475-.613.735-.475.956.216a10.766,10.766,0,0,0,2.851,4.836,6.619,6.619,0,0,0,1.025.8,1.392,1.392,0,0,0,2.295-1.009,36.046,36.046,0,0,1,11.637-19.676c.224-.193.432-.535.778-.4.309.117.21.486.25.747a31.671,31.671,0,0,0,5.509,14.174,24.362,24.362,0,0,1,2.593,3.965c3.061,6.506.7,15.514-5.16,19.629-.122.086-.258.151-.441.256-.183-.405.037-.7.14-.986a10.149,10.149,0,0,0-1.439-9.959,14.371,14.371,0,0,1-2.706-7.226c-.084-.779.137-1.776-.9-2.167-.979-.371-1.566.38-2.2.891a21.061,21.061,0,0,0-6.03,7.929c-.11.246-.153.655-.441.651-.415-.005-.3-.471-.381-.736-.392-1.35-1.35-1.636-2.444-.708a10.426,10.426,0,0,0-2.844,11.143C686.269,978.173,686.393,978.517,686.548,978.958Z" fill="#ff295a"/>
  </g>
</svg>
