<svg xmlns="http://www.w3.org/2000/svg" width="45.318" height="72.248" viewBox="0 0 45.318 72.248">
  <g id="N7z15p.tif" transform="translate(-106.531 -1282.377)">
    <g id="Group_56" data-name="Group 56">
      <path id="Path_67" data-name="Path 67" d="M106.57,1354.625c-.009-1.1-.072-2.208-.015-3.307a2.869,2.869,0,0,1,3.109-2.787c3.968-.018,7.937-.01,11.9-.01q13.347,0,26.7,0c2.46,0,3.581,1.115,3.584,3.565,0,.845-.013,1.69-.019,2.535Z" fill="#ffb800"/>
      <path id="Path_68" data-name="Path 68" d="M129.106,1321.646q-9.339,0-18.677.005c-.559,0-.956-.042-.908-.785a17.675,17.675,0,0,1,4.088-10.519,19.15,19.15,0,0,1,12.734-6.8c1.213-.152,1.219-.12,1.22-1.345q0-8.775,0-17.55a5.921,5.921,0,0,1,.04-.914,1.427,1.427,0,0,1,1.534-1.343q8-.016,16-.005c.156,0,.374-.064.446.109.091.214-.138.326-.262.45-1.657,1.666-3.308,3.337-4.989,4.979-.413.4-.439.652-.011,1.069,1.568,1.521,3.1,3.077,4.641,4.629.24.242.732.483.607.78-.151.358-.674.168-1.03.168-4.276.011-8.552,0-12.828,0-.981,0-.983,0-.983.958,0,2.326.039,4.653-.017,6.977-.019.765.286.949.951,1.033a20.182,20.182,0,0,1,11.112,4.893,17,17,0,0,1,5.987,12.1c.067,1.1.03,1.1-1.05,1.1Z" fill="#ffb800"/>
      <path id="Path_69" data-name="Path 69" d="M129.149,1324.432h19.1a3.216,3.216,0,0,1,3.211,1.6,3.093,3.093,0,0,1-2.318,4.577,38.663,38.663,0,0,1-4.014.06q-17.517.015-35.034,0c-.165,0-.329,0-.493-.007a3.109,3.109,0,1,1,.089-6.217c1.5-.033,3.008-.011,4.512-.011q7.471,0,14.944,0Z" fill="#ffb800"/>
      <path id="Path_70" data-name="Path 70" d="M136.779,1339.653c0,1.384,0,2.768,0,4.151-.005,1.262-.526,1.856-1.6,1.845-1.048-.011-1.57-.6-1.573-1.805q-.009-4.293,0-8.585a1.576,1.576,0,0,1,1.564-1.782,1.555,1.555,0,0,1,1.6,1.743C136.792,1336.7,136.778,1338.175,136.779,1339.653Z" fill="#ffb800"/>
      <path id="Path_71" data-name="Path 71" d="M118.731,1339.587c0,1.43.009,2.86,0,4.29-.009,1.182-.566,1.781-1.612,1.771-1.01-.009-1.552-.6-1.557-1.752q-.016-4.36,0-8.722a1.588,1.588,0,1,1,3.169-.019C118.742,1336.632,118.731,1338.109,118.731,1339.587Z" fill="#ffb800"/>
      <path id="Path_72" data-name="Path 72" d="M112.683,1339.681c0,1.433.006,2.865,0,4.3-.007,1.071-.522,1.639-1.481,1.668a1.489,1.489,0,0,1-1.666-1.585c-.053-1.031-.021-2.066-.022-3.1,0-1.878-.014-3.758.007-5.636.014-1.354.936-2.114,2.083-1.763a1.439,1.439,0,0,1,1.081,1.538C112.69,1336.628,112.683,1338.155,112.683,1339.681Z" fill="#ffb800"/>
      <path id="Path_73" data-name="Path 73" d="M121.607,1339.505c0-1.433,0-2.866,0-4.3,0-1.093.553-1.712,1.513-1.726a1.554,1.554,0,0,1,1.631,1.658c.047,1.5.024,3.006.025,4.509,0,1.433.015,2.866-.016,4.3a1.529,1.529,0,0,1-1.568,1.7,1.409,1.409,0,0,1-1.578-1.493c-.022-1.549-.006-3.1-.006-4.65Z" fill="#ffb800"/>
      <path id="Path_74" data-name="Path 74" d="M130.729,1339.609c0,1.456.007,2.912,0,4.369-.006,1.077-.517,1.644-1.475,1.669a1.458,1.458,0,0,1-1.667-1.579q-.056-4.473,0-8.949a1.53,1.53,0,0,1,1.645-1.637c.947.033,1.491.663,1.5,1.757C130.735,1336.7,130.729,1338.152,130.729,1339.609Z" fill="#ffb800"/>
      <path id="Path_75" data-name="Path 75" d="M148.78,1339.625c0,1.455.008,2.911,0,4.367-.008,1.06-.537,1.632-1.5,1.658a1.5,1.5,0,0,1-1.658-1.6q-.045-4.437.005-8.875a1.551,1.551,0,0,1,1.669-1.689c.932.038,1.476.68,1.482,1.774C148.786,1336.713,148.781,1338.169,148.78,1339.625Z" fill="#ffb800"/>
      <path id="Path_76" data-name="Path 76" d="M139.655,1339.576c0-1.479-.008-2.958,0-4.437a1.5,1.5,0,0,1,1.454-1.654,1.542,1.542,0,0,1,1.672,1.456,6.317,6.317,0,0,1,.039.913q0,3.979,0,7.959c0,1.1-.537,1.766-1.441,1.835a1.46,1.46,0,0,1-1.72-1.565C139.646,1342.581,139.655,1341.078,139.655,1339.576Z" fill="#ffb800"/>
    </g>
  </g>
</svg>
