<svg xmlns="http://www.w3.org/2000/svg" width="59.812" height="60.002" viewBox="0 0 59.812 60.002">
  <g id="iWOpZm.tif" transform="translate(-187.111 -2006.365)">
    <g id="Group_47" data-name="Group 47">
      <path id="Path_57" data-name="Path 57" d="M246.922,2036.591c-.148,16.159-13.75,29.732-29.84,29.776a30.009,30.009,0,0,1-29.97-30.073c.107-16.506,13.554-29.989,29.849-29.929C233.34,2006.425,247.072,2020.279,246.922,2036.591Zm-21.43,16.641c-.039-.179-.074-.36-.117-.539-.7-2.9-4.467-5.449-8.2-5.551-3.995-.109-7.981,2.343-8.835,5.442-.2.721-.452,1.534.512,1.873.847.3,1.365-.219,1.728-.969a6.553,6.553,0,0,1,7.03-3.836,6.27,6.27,0,0,1,5.44,3.731c.345.741.79,1.282,1.673,1.119C225.394,2054.377,225.544,2053.845,225.492,2053.232Zm-27.566-11.687c2.529-1.447,5.345-3,8.09-4.673.663-.4.169-1-.334-1.286-2.486-1.405-4.989-2.781-7.491-4.159a1.119,1.119,0,0,0-1.644.478c-.42.67-.252,1.162.409,1.62,1.411.979,4.12,1.175,4.133,2.757.016,1.858-2.77,1.978-4.2,3.053a.982.982,0,0,0-.337,1.416A1.319,1.319,0,0,0,197.926,2041.545Zm39.613-9.038c-.339-1.1-.984-1.547-2.07-.956-2.427,1.319-4.851,2.642-7.254,4-.528.3-1.367.809-.369,1.4,2.617,1.537,5.3,2.954,7.976,4.4a.964.964,0,0,0,1.394-.456,1.046,1.046,0,0,0-.442-1.619,7.417,7.417,0,0,1-.96-.543c-1.035-.834-3.051-.956-3-2.475.042-1.32,1.943-1.434,2.978-2.145C236.446,2033.655,237.378,2033.508,237.539,2032.507Z" fill="#ff295a"/>
    </g>
  </g>
</svg>
