<svg xmlns="http://www.w3.org/2000/svg" width="60.582" height="61.227" viewBox="0 0 60.582 61.227">
  <g id="BobiMy.tif" transform="translate(-150.413 -2551.789)">
    <g id="Group_21" data-name="Group 21">
      <path id="Path_32" data-name="Path 32" d="M182.637,2602.293a16.961,16.961,0,0,1-8.958-2.261c-.817-.415-1.646-.806-2.473-1.2a1.2,1.2,0,0,0-.561-.178.775.775,0,0,0-.519.288.83.83,0,0,0,.01.549.543.543,0,0,0,.227.259,20.48,20.48,0,0,0,6.133,3.408,25.3,25.3,0,0,0,7.878.781,17.18,17.18,0,0,0,6.356-1.786c4.7-2.088,9.419-4.155,14.082-6.332a5.2,5.2,0,0,1,3.9-.445,2.883,2.883,0,0,1,2.249,2.47,3.106,3.106,0,0,1-1.529,3.28c-3.881,2.41-7.718,4.9-11.825,6.914A58.349,58.349,0,0,1,185,2612.758a11.512,11.512,0,0,1-5.823-.27q-6.9-1.947-13.8-3.911a6.221,6.221,0,0,0-4.113.1c-1.147.449-2.3.874-3.459,1.3a4.07,4.07,0,0,1-2.255.28,3.292,3.292,0,0,1-2.589-2.738c-.555-2.231-1.077-4.47-1.612-6.706-.278-1.167-.575-2.329-.827-3.5a3.245,3.245,0,0,1,2.568-4.161c4.337-1.056,8.687-2.061,13.026-3.11a16.223,16.223,0,0,1,4.89-.611,8.587,8.587,0,0,1,5.586,2.38,10.108,10.108,0,0,0,6.238,2.736,39.259,39.259,0,0,0,3.992.258,3.34,3.34,0,0,1,3.41,3.314c.156,2.152-.219,2.789-2.27,3.485A16.79,16.79,0,0,1,182.637,2602.293Z" fill="#037c3c"/>
      <path id="Path_33" data-name="Path 33" d="M202.747,2557.264a31.656,31.656,0,0,1-1.478,10,15.668,15.668,0,0,1-9.225,10.113c-1.993.835-4.056,1.5-6.1,2.211a.78.78,0,0,0-.616.8,35.259,35.259,0,0,0,.744,10.341,1.068,1.068,0,0,1-.876,1.335.964.964,0,0,1-1.192-.849,36.6,36.6,0,0,1,5.432-28.714,12.124,12.124,0,0,1,3.716-3.59,29.645,29.645,0,0,0,7.5-6.711.823.823,0,0,1,.955-.365,1.289,1.289,0,0,1,.922,1.139c.093.778.174,1.559.216,2.341C202.775,2555.961,202.747,2556.613,202.747,2557.264Zm-4.763,6.639c-.094-.1-.161-.24-.264-.276a.562.562,0,0,0-.414.016,1.3,1.3,0,0,0-.334.361c-2.166,2.794-4.293,5.618-6.511,8.369a42.091,42.091,0,0,1-3,3.081c-.191.193-.372.383-.148.635s.476.168.7-.039c.037-.034.075-.067.11-.1a35.8,35.8,0,0,0,2.588-2.643c2.387-2.978,4.705-6.012,7.048-9.027A3.8,3.8,0,0,0,197.984,2563.9Z" fill="#037c3c"/>
      <path id="Path_34" data-name="Path 34" d="M162.774,2558.635c.089-.72.131-1.523.3-2.3a1.487,1.487,0,0,1,2.15-1.258,8.69,8.69,0,0,1,2.691,1.472,44.675,44.675,0,0,0,6.12,4.315,17.56,17.56,0,0,1,8.149,12.275,38.448,38.448,0,0,1,.35,3.882c.011.132,0,.267.021.4.148,1.1-.581,1.7-1.623,1.294-.651-.254-1.284-.555-1.917-.851a36.512,36.512,0,0,1-10.77-7.254,18.064,18.064,0,0,1-5.222-9.654C162.89,2560.219,162.859,2559.465,162.774,2558.635Zm7.407,4.715c-.145.113-.329.185-.348.288a.66.66,0,0,0,.106.492c.359.416.759.8,1.136,1.2a67.968,67.968,0,0,1,8.652,11.355c.162.268.34.561.7.321.327-.22.144-.5-.012-.741-.583-.913-1.149-1.837-1.754-2.735a67.541,67.541,0,0,0-8-9.781C170.525,2563.61,170.364,2563.5,170.181,2563.35Z" fill="#037c3c"/>
    </g>
  </g>
</svg>
