<svg xmlns="http://www.w3.org/2000/svg" width="47.722" height="58.843" viewBox="0 0 47.722 58.843">
  <g id="NC7aAO" transform="translate(-844.872 -2738.484)">
    <g id="Group_75" data-name="Group 75">
      <path id="Path_88" data-name="Path 88" d="M884.762,2743.08a.424.424,0,0,0-.268-.038c-1.093,0-2.186-.006-3.278.005-.207,0-.263-.066-.262-.261q.008-2.025,0-4.049c0-.177.042-.253.245-.253q5.544.011,11.088,0c.229,0,.306.068.306.3q-.009,5.568,0,11.136c0,.228-.067.309-.3.307q-1.977-.014-3.953,0c-.229,0-.308-.069-.306-.3.01-1.1.005-2.2.005-3.3v-.314c-.091-.01-.118.061-.159.1q-2.7,2.691-5.387,5.384c-.4.4-.394.4-.082.872a14.042,14.042,0,0,1-10.07,21.659,1.8,1.8,0,0,1-.429.042c-.318-.039-.441.141-.571.389a14.069,14.069,0,0,1-9.809,7.245c-.245.045-.346.121-.344.4.015,1.735.007,3.471.008,5.206,0,.351,0,.352.342.353h4.339c.348,0,.349,0,.349.347,0,1.318-.005,2.636,0,3.953,0,.21-.073.254-.264.253-1.479-.006-2.957,0-4.435,0-.333,0-.336,0-.336.335q0,2.073,0,4.146c0,.334,0,.339-.334.339H856.98c-.329,0-.331,0-.331-.339,0-1.39-.006-2.78.005-4.17,0-.243-.066-.316-.311-.314-1.487.01-2.973,0-4.46.009-.224,0-.292-.076-.291-.292q.011-1.989,0-3.978c0-.223.079-.289.3-.288,1.479.007,2.957,0,4.435,0,.324,0,.325,0,.325-.315,0-1.768,0-3.535,0-5.3,0-.193-.043-.275-.252-.313a13.659,13.659,0,0,1-6.745-3.263,14,14,0,0,1-1.449-19.61,14.015,14.015,0,0,1,4.938-3.731,13.272,13.272,0,0,1,4.547-1.171.587.587,0,0,0,.555-.364,12.248,12.248,0,0,1,1.664-2.5,14.061,14.061,0,0,1,4.722-3.668,14.145,14.145,0,0,1,13.095.524c.32.182.629.387.933.6.149.1.248.119.389-.022q2.8-2.809,5.606-5.609C884.693,2743.17,884.724,2743.126,884.762,2743.08Zm-13.477,7.821a9.982,9.982,0,0,0-4.9,1.024,9.4,9.4,0,0,0-3.19,2.632c-.182.232-.177.234.112.33a13.96,13.96,0,0,1,6.725,4.756,13.444,13.444,0,0,1,2.042,3.67,14.273,14.273,0,0,1,.833,6.083c-.016.22.044.217.215.17a9.437,9.437,0,0,0,4.822-3.07,9.435,9.435,0,0,0,.84-11.034,9.615,9.615,0,0,0-2.352-2.612A9.056,9.056,0,0,0,871.285,2750.9Zm-21.833,17.318c0,.289-.013.579,0,.867a5.961,5.961,0,0,0,.1.764,9.414,9.414,0,0,0,4.169,6.312,9.149,9.149,0,0,0,6.552,1.452,9.319,9.319,0,0,0,6.119-3.553c.186-.233.187-.24-.091-.332a13.993,13.993,0,0,1-9.612-14.4c.027-.327.005-.344-.3-.258a9.413,9.413,0,0,0-4.822,3.151A9.092,9.092,0,0,0,849.452,2768.219Zm18.96.046a8.476,8.476,0,0,0-.037-.849,9.261,9.261,0,0,0-1.3-4.044,9.482,9.482,0,0,0-2.22-2.545,9.656,9.656,0,0,0-3.375-1.751c-.142-.042-.206,0-.224.151a9.452,9.452,0,0,0,1.894,6.929,9.544,9.544,0,0,0,4.925,3.37c.2.061.267-.013.276-.188A8.5,8.5,0,0,0,868.412,2768.265Z" fill="#ff52be"/>
    </g>
  </g>
</svg>
