<svg xmlns="http://www.w3.org/2000/svg" width="46.542" height="53.069" viewBox="0 0 46.542 53.069">
  <g id="_7sTVZO" data-name="7sTVZO" transform="translate(-464.889 -1287.729)">
    <g id="Group_58" data-name="Group 58">
      <path id="Path_77" data-name="Path 77" d="M469.754,1321.767c-.017-1.385,0-2.8.084-4.2.056-.935.124-1.871.245-2.8a4.281,4.281,0,0,0-.427-2.523,65.389,65.389,0,0,1-2.822-6.453,29.983,29.983,0,0,1-1.79-7.155,11.91,11.91,0,0,1,.13-4.555,8.105,8.105,0,0,1,5.965-5.981,10.086,10.086,0,0,1,2.466-.315,36.456,36.456,0,0,1,6.431.556c1.975.31,3.951.63,5.94.829a22.456,22.456,0,0,0,5.321-.12c2.728-.376,5.445-.839,8.18-1.14a15.017,15.017,0,0,1,5.68.19,8.031,8.031,0,0,1,6.111,6.648,12.906,12.906,0,0,1-.044,4.3,35.524,35.524,0,0,1-2.178,7.831c-.687,1.758-1.5,3.458-2.3,5.161-.178.375-.33.763-.476,1.152a3.747,3.747,0,0,0-.024,1.636c.079,1.146.2,2.288.259,3.437.1,2,.091,4,.044,6a53.336,53.336,0,0,1-.745,7.751,32.842,32.842,0,0,1-1.1,4.59,10.855,10.855,0,0,1-1.313,2.8,5.458,5.458,0,0,1-.979,1.062,1.334,1.334,0,0,1-.77.309,4.917,4.917,0,0,1-4.552-2.094,11.068,11.068,0,0,1-1.8-4.635c-.353-1.764-.566-3.547-.766-5.334-.178-1.593-.426-3.178-.72-4.756a10.4,10.4,0,0,0-1.649-4.324,4.531,4.531,0,0,0-3.374-1.957,5.282,5.282,0,0,0-2.454.268,5.124,5.124,0,0,0-2.655,2.482,12.814,12.814,0,0,0-1.184,3.684c-.448,2.327-.672,4.684-.985,7.03a27.555,27.555,0,0,1-.974,4.912,8.59,8.59,0,0,1-1.258,2.6,4.98,4.98,0,0,1-4.627,2.117,1.718,1.718,0,0,1-1.05-.571,7.628,7.628,0,0,1-1.668-2.757,26.4,26.4,0,0,1-1.351-5.151c-.212-1.258-.421-2.516-.537-3.786-.077-.837-.138-1.675-.2-2.512-.09-1.254-.059-2.512-.1-3.768C469.727,1322.083,469.745,1321.938,469.754,1321.767Z" fill="#00b1ff"/>
    </g>
  </g>
</svg>
