<svg xmlns="http://www.w3.org/2000/svg" width="61.272" height="54.502" viewBox="0 0 61.272 54.502">
  <g id="wpjyx0.tif" transform="translate(-129.706 -2731.481)">
    <g id="Group_77" data-name="Group 77">
      <path id="Path_89" data-name="Path 89" d="M129.707,2752.616v-9.5a2.927,2.927,0,0,1,3.227-3.231q7.545-.016,15.091,0c1.275,0,1.275,0,1.273-1.3,0-1.46-.011-2.919,0-4.378a2.462,2.462,0,0,1,2.717-2.715q8.292-.009,16.582.007c1.871,0,2.772.937,2.778,2.836,0,1.459.039,2.92-.02,4.378-.035.867.21,1.2,1.138,1.191,5-.04,10-.017,15-.019,2.383,0,3.468,1.073,3.469,3.464,0,6.365-.013,12.731.02,19.1a1.205,1.205,0,0,1-1.094,1.4,74.049,74.049,0,0,1-9.936,1.442c-3.89.372-7.79.616-11.7.782a1.243,1.243,0,0,1-1.5-1.066,6.618,6.618,0,0,0-6.487-4.9,6.734,6.734,0,0,0-6.424,5.015c-.172.586-.348.984-1.1.951-7.159-.318-14.315-.658-21.366-2.075-1.668-.336-1.669-.348-1.671-2.055Q129.7,2757.273,129.707,2752.616Zm30.628-16.558c-1.83,0-3.661.024-5.49-.012-.7-.014-1.045.167-.98.937a13.533,13.533,0,0,1,0,1.952c-.041.664.179.951.888.947q5.584-.036,11.168,0c.624,0,.918-.186.88-.852a14.707,14.707,0,0,1,.008-2.046c.063-.769-.276-.95-.981-.935C164,2736.084,162.165,2736.059,160.335,2736.058Z" fill="#66a3e7"/>
      <path id="Path_90" data-name="Path 90" d="M160.3,2785.978q-13.181,0-26.361,0c-2.35,0-3.22-.834-3.234-3.19-.026-4.719.006-9.438-.009-14.157,0-.837.261-1.055,1.118-.894a110.481,110.481,0,0,0,11.817,1.407c3,.236,6,.4,9.008.529.649.028.991.258,1.007.92.071,3.025,3.128,6.114,6.754,6.016a6.705,6.705,0,0,0,6.588-6.117.786.786,0,0,1,.882-.82c3.934-.184,7.867-.391,11.79-.751a87.761,87.761,0,0,0,9.127-1.187c.878-.174,1.075.088,1.071.914-.025,4.782-.007,9.563-.01,14.345,0,2.119-.869,2.989-3,2.99q-13.273.008-26.547,0Z" fill="#66a3e7"/>
      <path id="Path_91" data-name="Path 91" d="M163.519,2768.4a12.687,12.687,0,0,1-.121,2.041,3.134,3.134,0,0,1-3.081,2.594,3.062,3.062,0,0,1-3.041-2.625,12.149,12.149,0,0,1,.024-4.167,3.123,3.123,0,0,1,3.05-2.522,3.181,3.181,0,0,1,3.032,2.546A10.967,10.967,0,0,1,163.519,2768.4Z" fill="#66a3e7"/>
    </g>
  </g>
</svg>
